0
SECTION
2
HEADER
9
$ANGDIR
70
1
9
$AUNITS
70
0
9
$PROJECTNAME
1
CremeDeLaBoard
9
$TDCREATE
40
2458908.59860084
9
$INSUNITS
70
4
0
ENDSEC
0
SECTION
2
ENTITIES
0
POLYLINE
66
1
8
outline
10
0.0
20
0.0
30
0.0
70
1
0
VERTEX
8
0
10
0
20
0
30
0
0
VERTEX
8
0
10
41.580000000000005
20
0
30
0
0
VERTEX
8
0
10
41.580000000000005
20
57.14
30
0
0
VERTEX
8
0
10
0
20
57.14
30
0
0
VERTEX
8
0
10
0
20
0
30
0
0
SEQEND
0
POLYLINE
66
1
8
holes
10
0.0
20
0.0
30
0.0
70
1
0
VERTEX
8
0
10
13.72
20
17.75
30
0
0
VERTEX
8
0
10
15.520000000000001
20
17.75
30
0
0
VERTEX
8
0
10
15.520000000000001
20
20.35
30
0
0
VERTEX
8
0
10
13.72
20
20.35
30
0
0
VERTEX
8
0
10
13.72
20
17.75
30
0
0
SEQEND
0
POLYLINE
66
1
8
holes
10
0.0
20
0.0
30
0.0
70
1
0
VERTEX
8
0
10
25.12
20
17.75
30
0
0
VERTEX
8
0
10
26.92
20
17.75
30
0
0
VERTEX
8
0
10
26.92
20
20.35
30
0
0
VERTEX
8
0
10
25.12
20
20.35
30
0
0
VERTEX
8
0
10
25.12
20
17.75
30
0
0
SEQEND
0
POLYLINE
66
1
8
holes
10
0.0
20
0.0
30
0.0
70
1
0
VERTEX
8
0
10
8.001000000000001
20
25.091953125
30
0
0
VERTEX
8
0
10
7.99393125
20
24.9840875
30
0
0
VERTEX
8
0
10
7.979821875000001
20
24.876915625000002
30
0
0
VERTEX
8
0
10
7.9587312500000005
20
24.770896875000002
30
0
0
VERTEX
8
0
10
7.93075625
20
24.666484375
30
0
0
VERTEX
8
0
10
7.896009375
20
24.564125
30
0
0
VERTEX
8
0
10
7.854640625
20
24.464256250000002
30
0
0
VERTEX
8
0
10
7.80683125
20
24.367306250000002
30
0
0
VERTEX
8
0
10
7.752784375
20
24.27369375
30
0
0
VERTEX
8
0
10
7.692728125
20
24.183815625
30
0
0
VERTEX
8
0
10
7.626925
20
24.098056250000003
30
0
0
VERTEX
8
0
10
7.55565
20
24.016784375
30
0
0
VERTEX
8
0
10
7.479215625
20
23.940350000000002
30
0
0
VERTEX
8
0
10
7.3979437500000005
20
23.869075000000002
30
0
0
VERTEX
8
0
10
7.312184375
20
23.803271875
30
0
0
VERTEX
8
0
10
7.22230625
20
23.743215625
30
0
0
VERTEX
8
0
10
7.12869375
20
23.68916875
30
0
0
VERTEX
8
0
10
7.03174375
20
23.641359375
30
0
0
VERTEX
8
0
10
6.931875000000001
20
23.599990625
30
0
0
VERTEX
8
0
10
6.829515625
20
23.56524375
30
0
0
VERTEX
8
0
10
6.725103125
20
23.537268750000003
30
0
0
VERTEX
8
0
10
6.619084375
20
23.516178125
30
0
0
VERTEX
8
0
10
6.5119125
20
23.50206875
30
0
0
VERTEX
8
0
10
6.404046875000001
20
23.495
30
0
0
VERTEX
8
0
10
6.2959531250000005
20
23.495
30
0
0
VERTEX
8
0
10
6.1880875
20
23.50206875
30
0
0
VERTEX
8
0
10
6.080915625
20
23.516178125
30
0
0
VERTEX
8
0
10
5.974896875000001
20
23.537268750000003
30
0
0
VERTEX
8
0
10
5.870484375
20
23.56524375
30
0
0
VERTEX
8
0
10
5.768125
20
23.599990625
30
0
0
VERTEX
8
0
10
5.668256250000001
20
23.641359375
30
0
0
VERTEX
8
0
10
5.57130625
20
23.68916875
30
0
0
VERTEX
8
0
10
5.47769375
20
23.743215625
30
0
0
VERTEX
8
0
10
5.387815625
20
23.803271875
30
0
0
VERTEX
8
0
10
5.302056250000001
20
23.869075000000002
30
0
0
VERTEX
8
0
10
5.220784375
20
23.940350000000002
30
0
0
VERTEX
8
0
10
5.14435
20
24.016784375
30
0
0
VERTEX
8
0
10
5.073075
20
24.098056250000003
30
0
0
VERTEX
8
0
10
5.007271875
20
24.183815625
30
0
0
VERTEX
8
0
10
4.947215625
20
24.27369375
30
0
0
VERTEX
8
0
10
4.89316875
20
24.367306250000002
30
0
0
VERTEX
8
0
10
4.845359375
20
24.464256250000002
30
0
0
VERTEX
8
0
10
4.803990625
20
24.564125
30
0
0
VERTEX
8
0
10
4.76924375
20
24.666484375
30
0
0
VERTEX
8
0
10
4.741268750000001
20
24.770896875000002
30
0
0
VERTEX
8
0
10
4.720178125
20
24.876915625000002
30
0
0
VERTEX
8
0
10
4.70606875
20
24.9840875
30
0
0
VERTEX
8
0
10
4.699
20
25.091953125
30
0
0
VERTEX
8
0
10
4.699
20
25.200046875
30
0
0
VERTEX
8
0
10
4.70606875
20
25.3079125
30
0
0
VERTEX
8
0
10
4.720178125
20
25.415084375000003
30
0
0
VERTEX
8
0
10
4.741268750000001
20
25.521103125
30
0
0
VERTEX
8
0
10
4.76924375
20
25.625515625000002
30
0
0
VERTEX
8
0
10
4.803990625
20
25.727875
30
0
0
VERTEX
8
0
10
4.845359375
20
25.82774375
30
0
0
VERTEX
8
0
10
4.89316875
20
25.924693750000003
30
0
0
VERTEX
8
0
10
4.947215625
20
26.018306250000002
30
0
0
VERTEX
8
0
10
5.007271875
20
26.108184375
30
0
0
VERTEX
8
0
10
5.073075
20
26.193943750000003
30
0
0
VERTEX
8
0
10
5.14435
20
26.275215625
30
0
0
VERTEX
8
0
10
5.220784375
20
26.351650000000003
30
0
0
VERTEX
8
0
10
5.302056250000001
20
26.422925000000003
30
0
0
VERTEX
8
0
10
5.387815625
20
26.488728125
30
0
0
VERTEX
8
0
10
5.47769375
20
26.548784375
30
0
0
VERTEX
8
0
10
5.57130625
20
26.60283125
30
0
0
VERTEX
8
0
10
5.668256250000001
20
26.650640625
30
0
0
VERTEX
8
0
10
5.768125
20
26.692009375
30
0
0
VERTEX
8
0
10
5.870484375
20
26.72675625
30
0
0
VERTEX
8
0
10
5.974896875000001
20
26.754731250000003
30
0
0
VERTEX
8
0
10
6.080915625
20
26.775821875000002
30
0
0
VERTEX
8
0
10
6.1880875
20
26.789931250000002
30
0
0
VERTEX
8
0
10
6.2959531250000005
20
26.797
30
0
0
VERTEX
8
0
10
6.404046875000001
20
26.797
30
0
0
VERTEX
8
0
10
6.5119125
20
26.789931250000002
30
0
0
VERTEX
8
0
10
6.619084375
20
26.775821875000002
30
0
0
VERTEX
8
0
10
6.725103125
20
26.754731250000003
30
0
0
VERTEX
8
0
10
6.829515625
20
26.72675625
30
0
0
VERTEX
8
0
10
6.931875000000001
20
26.692009375
30
0
0
VERTEX
8
0
10
7.03174375
20
26.650640625
30
0
0
VERTEX
8
0
10
7.12869375
20
26.60283125
30
0
0
VERTEX
8
0
10
7.22230625
20
26.548784375
30
0
0
VERTEX
8
0
10
7.312184375
20
26.488728125
30
0
0
VERTEX
8
0
10
7.3979437500000005
20
26.422925000000003
30
0
0
VERTEX
8
0
10
7.479215625
20
26.351650000000003
30
0
0
VERTEX
8
0
10
7.55565
20
26.275215625
30
0
0
VERTEX
8
0
10
7.626925
20
26.193943750000003
30
0
0
VERTEX
8
0
10
7.692728125
20
26.108184375
30
0
0
VERTEX
8
0
10
7.752784375
20
26.018306250000002
30
0
0
VERTEX
8
0
10
7.80683125
20
25.924693750000003
30
0
0
VERTEX
8
0
10
7.854640625
20
25.82774375
30
0
0
VERTEX
8
0
10
7.896009375
20
25.727875
30
0
0
VERTEX
8
0
10
7.93075625
20
25.625515625000002
30
0
0
VERTEX
8
0
10
7.9587312500000005
20
25.521103125
30
0
0
VERTEX
8
0
10
7.979821875000001
20
25.415084375000003
30
0
0
VERTEX
8
0
10
7.99393125
20
25.3079125
30
0
0
VERTEX
8
0
10
8.001000000000001
20
25.200046875
30
0
0
VERTEX
8
0
10
8.001000000000001
20
25.091953125
30
0
0
SEQEND
0
POLYLINE
66
1
8
holes
10
0.0
20
0.0
30
0.0
70
1
0
VERTEX
8
0
10
37.211
20
25.091953125
30
0
0
VERTEX
8
0
10
37.203931250000004
20
24.9840875
30
0
0
VERTEX
8
0
10
37.189821875
20
24.876915625000002
30
0
0
VERTEX
8
0
10
37.16873125
20
24.770896875000002
30
0
0
VERTEX
8
0
10
37.14075625
20
24.666484375
30
0
0
VERTEX
8
0
10
37.106009375
20
24.564125
30
0
0
VERTEX
8
0
10
37.064640625
20
24.464256250000002
30
0
0
VERTEX
8
0
10
37.01683125
20
24.367306250000002
30
0
0
VERTEX
8
0
10
36.962784375
20
24.27369375
30
0
0
VERTEX
8
0
10
36.902728125
20
24.183815625
30
0
0
VERTEX
8
0
10
36.836925
20
24.098056250000003
30
0
0
VERTEX
8
0
10
36.76565
20
24.016784375
30
0
0
VERTEX
8
0
10
36.689215625
20
23.940350000000002
30
0
0
VERTEX
8
0
10
36.607943750000004
20
23.869075000000002
30
0
0
VERTEX
8
0
10
36.522184375
20
23.803271875
30
0
0
VERTEX
8
0
10
36.43230625
20
23.743215625
30
0
0
VERTEX
8
0
10
36.338693750000004
20
23.68916875
30
0
0
VERTEX
8
0
10
36.241743750000005
20
23.641359375
30
0
0
VERTEX
8
0
10
36.141875
20
23.599990625
30
0
0
VERTEX
8
0
10
36.039515625
20
23.56524375
30
0
0
VERTEX
8
0
10
35.935103125000005
20
23.537268750000003
30
0
0
VERTEX
8
0
10
35.829084375
20
23.516178125
30
0
0
VERTEX
8
0
10
35.7219125
20
23.50206875
30
0
0
VERTEX
8
0
10
35.614046875
20
23.495
30
0
0
VERTEX
8
0
10
35.505953125000005
20
23.495
30
0
0
VERTEX
8
0
10
35.3980875
20
23.50206875
30
0
0
VERTEX
8
0
10
35.290915625000004
20
23.516178125
30
0
0
VERTEX
8
0
10
35.184896875
20
23.537268750000003
30
0
0
VERTEX
8
0
10
35.080484375000005
20
23.56524375
30
0
0
VERTEX
8
0
10
34.978125
20
23.599990625
30
0
0
VERTEX
8
0
10
34.87825625
20
23.641359375
30
0
0
VERTEX
8
0
10
34.78130625
20
23.68916875
30
0
0
VERTEX
8
0
10
34.68769375
20
23.743215625
30
0
0
VERTEX
8
0
10
34.597815625
20
23.803271875
30
0
0
VERTEX
8
0
10
34.51205625
20
23.869075000000002
30
0
0
VERTEX
8
0
10
34.430784375
20
23.940350000000002
30
0
0
VERTEX
8
0
10
34.354350000000004
20
24.016784375
30
0
0
VERTEX
8
0
10
34.283075000000004
20
24.098056250000003
30
0
0
VERTEX
8
0
10
34.217271875
20
24.183815625
30
0
0
VERTEX
8
0
10
34.157215625
20
24.27369375
30
0
0
VERTEX
8
0
10
34.10316875
20
24.367306250000002
30
0
0
VERTEX
8
0
10
34.055359375
20
24.464256250000002
30
0
0
VERTEX
8
0
10
34.013990625
20
24.564125
30
0
0
VERTEX
8
0
10
33.97924375
20
24.666484375
30
0
0
VERTEX
8
0
10
33.951268750000004
20
24.770896875000002
30
0
0
VERTEX
8
0
10
33.930178125000005
20
24.876915625000002
30
0
0
VERTEX
8
0
10
33.91606875
20
24.9840875
30
0
0
VERTEX
8
0
10
33.909
20
25.091953125
30
0
0
VERTEX
8
0
10
33.909
20
25.200046875
30
0
0
VERTEX
8
0
10
33.91606875
20
25.3079125
30
0
0
VERTEX
8
0
10
33.930178125000005
20
25.415084375000003
30
0
0
VERTEX
8
0
10
33.951268750000004
20
25.521103125
30
0
0
VERTEX
8
0
10
33.97924375
20
25.625515625000002
30
0
0
VERTEX
8
0
10
34.013990625
20
25.727875
30
0
0
VERTEX
8
0
10
34.055359375
20
25.82774375
30
0
0
VERTEX
8
0
10
34.10316875
20
25.924693750000003
30
0
0
VERTEX
8
0
10
34.157215625
20
26.018306250000002
30
0
0
VERTEX
8
0
10
34.217271875
20
26.108184375
30
0
0
VERTEX
8
0
10
34.283075000000004
20
26.193943750000003
30
0
0
VERTEX
8
0
10
34.354350000000004
20
26.275215625
30
0
0
VERTEX
8
0
10
34.430784375
20
26.351650000000003
30
0
0
VERTEX
8
0
10
34.51205625
20
26.422925000000003
30
0
0
VERTEX
8
0
10
34.597815625
20
26.488728125
30
0
0
VERTEX
8
0
10
34.68769375
20
26.548784375
30
0
0
VERTEX
8
0
10
34.78130625
20
26.60283125
30
0
0
VERTEX
8
0
10
34.87825625
20
26.650640625
30
0
0
VERTEX
8
0
10
34.978125
20
26.692009375
30
0
0
VERTEX
8
0
10
35.080484375000005
20
26.72675625
30
0
0
VERTEX
8
0
10
35.184896875
20
26.754731250000003
30
0
0
VERTEX
8
0
10
35.290915625000004
20
26.775821875000002
30
0
0
VERTEX
8
0
10
35.3980875
20
26.789931250000002
30
0
0
VERTEX
8
0
10
35.505953125000005
20
26.797
30
0
0
VERTEX
8
0
10
35.614046875
20
26.797
30
0
0
VERTEX
8
0
10
35.7219125
20
26.789931250000002
30
0
0
VERTEX
8
0
10
35.829084375
20
26.775821875000002
30
0
0
VERTEX
8
0
10
35.935103125000005
20
26.754731250000003
30
0
0
VERTEX
8
0
10
36.039515625
20
26.72675625
30
0
0
VERTEX
8
0
10
36.141875
20
26.692009375
30
0
0
VERTEX
8
0
10
36.241743750000005
20
26.650640625
30
0
0
VERTEX
8
0
10
36.338693750000004
20
26.60283125
30
0
0
VERTEX
8
0
10
36.43230625
20
26.548784375
30
0
0
VERTEX
8
0
10
36.522184375
20
26.488728125
30
0
0
VERTEX
8
0
10
36.607943750000004
20
26.422925000000003
30
0
0
VERTEX
8
0
10
36.689215625
20
26.351650000000003
30
0
0
VERTEX
8
0
10
36.76565
20
26.275215625
30
0
0
VERTEX
8
0
10
36.836925
20
26.193943750000003
30
0
0
VERTEX
8
0
10
36.902728125
20
26.108184375
30
0
0
VERTEX
8
0
10
36.962784375
20
26.018306250000002
30
0
0
VERTEX
8
0
10
37.01683125
20
25.924693750000003
30
0
0
VERTEX
8
0
10
37.064640625
20
25.82774375
30
0
0
VERTEX
8
0
10
37.106009375
20
25.727875
30
0
0
VERTEX
8
0
10
37.14075625
20
25.625515625000002
30
0
0
VERTEX
8
0
10
37.16873125
20
25.521103125
30
0
0
VERTEX
8
0
10
37.189821875
20
25.415084375000003
30
0
0
VERTEX
8
0
10
37.203931250000004
20
25.3079125
30
0
0
VERTEX
8
0
10
37.211
20
25.200046875
30
0
0
VERTEX
8
0
10
37.211
20
25.091953125
30
0
0
SEQEND
0
POLYLINE
66
1
8
1_copper
10
0.0
20
0.0
30
0.0
70
1
0
VERTEX
8
0
10
15.97
20
20.400000000000002
30
0
0
VERTEX
8
0
10
13.270000000000001
20
20.400000000000002
30
0
0
VERTEX
8
0
10
13.270000000000001
20
17.7
30
0
0
VERTEX
8
0
10
15.97
20
17.7
30
0
0
SEQEND
0
POLYLINE
66
1
8
1_copper
10
0.0
20
0.0
30
0.0
70
1
0
VERTEX
8
0
10
27.37
20
20.400000000000002
30
0
0
VERTEX
8
0
10
24.67
20
20.400000000000002
30
0
0
VERTEX
8
0
10
24.67
20
17.7
30
0
0
VERTEX
8
0
10
27.37
20
17.7
30
0
0
SEQEND
0
POLYLINE
66
1
8
16_copper
10
0.0
20
0.0
30
0.0
70
1
0
VERTEX
8
0
10
15.97
20
20.400000000000002
30
0
0
VERTEX
8
0
10
13.270000000000001
20
20.400000000000002
30
0
0
VERTEX
8
0
10
13.270000000000001
20
17.7
30
0
0
VERTEX
8
0
10
15.97
20
17.7
30
0
0
SEQEND
0
POLYLINE
66
1
8
16_copper
10
0.0
20
0.0
30
0.0
70
1
0
VERTEX
8
0
10
27.37
20
20.400000000000002
30
0
0
VERTEX
8
0
10
24.67
20
20.400000000000002
30
0
0
VERTEX
8
0
10
24.67
20
17.7
30
0
0
VERTEX
8
0
10
27.37
20
17.7
30
0
0
SEQEND
0
POLYLINE
66
1
8
1_copper
10
0.0
20
0.0
30
0.0
70
1
0
VERTEX
8
0
10
14.417140625
20
52.2605
30
0
0
VERTEX
8
0
10
15.0495
20
52.892859375
30
0
0
VERTEX
8
0
10
15.0495
20
53.787140625
30
0
0
VERTEX
8
0
10
14.417140625
20
54.4195
30
0
0
VERTEX
8
0
10
13.522859375000001
20
54.4195
30
0
0
VERTEX
8
0
10
12.890500000000001
20
53.787140625
30
0
0
VERTEX
8
0
10
12.890500000000001
20
53.4162
30
0
0
VERTEX
8
0
10
11.239500000000001
20
53.4162
30
0
0
VERTEX
8
0
10
11.239500000000001
20
53.787140625
30
0
0
VERTEX
8
0
10
10.607140625000001
20
54.4195
30
0
0
VERTEX
8
0
10
9.712859375
20
54.4195
30
0
0
VERTEX
8
0
10
9.0805
20
53.787140625
30
0
0
VERTEX
8
0
10
9.0805
20
53.4162
30
0
0
VERTEX
8
0
10
7.4295
20
53.4162
30
0
0
VERTEX
8
0
10
7.4295
20
53.787140625
30
0
0
VERTEX
8
0
10
6.797140625
20
54.4195
30
0
0
VERTEX
8
0
10
5.902859375
20
54.4195
30
0
0
VERTEX
8
0
10
5.2705
20
53.787140625
30
0
0
VERTEX
8
0
10
5.2705
20
52.892859375
30
0
0
VERTEX
8
0
10
5.902859375
20
52.2605
30
0
0
VERTEX
8
0
10
6.797140625
20
52.2605
30
0
0
VERTEX
8
0
10
7.4295
20
52.892859375
30
0
0
VERTEX
8
0
10
7.4295
20
53.2638
30
0
0
VERTEX
8
0
10
9.0805
20
53.2638
30
0
0
VERTEX
8
0
10
9.0805
20
52.892859375
30
0
0
VERTEX
8
0
10
9.712859375
20
52.2605
30
0
0
VERTEX
8
0
10
10.607140625000001
20
52.2605
30
0
0
VERTEX
8
0
10
11.239500000000001
20
52.892859375
30
0
0
VERTEX
8
0
10
11.239500000000001
20
53.2638
30
0
0
VERTEX
8
0
10
12.890500000000001
20
53.2638
30
0
0
VERTEX
8
0
10
12.890500000000001
20
52.892859375
30
0
0
VERTEX
8
0
10
13.522859375000001
20
52.2605
30
0
0
VERTEX
8
0
10
13.8938
20
52.2605
30
0
0
VERTEX
8
0
10
13.8938
20
49.6062
30
0
0
VERTEX
8
0
10
8.89
20
49.6062
30
0
42
0.41421356237309503
0
VERTEX
8
0
10
8.8138
20
49.53
30
0
0
VERTEX
8
0
10
8.8138
20
30.48
30
0
42
0.41421356237309503
0
VERTEX
8
0
10
8.89
20
30.4038
30
0
0
VERTEX
8
0
10
22.781540625
20
30.4038
30
0
0
VERTEX
8
0
10
22.66529375
20
26.425034375000003
30
0
42
0.30944104860980026
0
VERTEX
8
0
10
22.4136875
20
26.041534375
30
0
0
VERTEX
8
0
10
22.450078125
20
24.294815625000002
30
0
0
VERTEX
8
0
10
20.03263125
20
21.877368750000002
30
0
42
0.198912367379658
0
VERTEX
8
0
10
19.913600000000002
20
21.59
30
0
0
VERTEX
8
0
10
19.913600000000002
20
11.7183375
30
0
0
VERTEX
8
0
10
15.9168625
20
7.7216000000000005
30
0
0
VERTEX
8
0
10
14.0244125
20
7.7216000000000005
30
0
42
0.198912367379658
0
VERTEX
8
0
10
13.73704375
20
7.6025687500000005
30
0
0
VERTEX
8
0
10
13.059209375
20
6.924734375000001
30
0
0
VERTEX
8
0
10
12.973543750000001
20
7.010400000000001
30
0
0
VERTEX
8
0
10
12.614337500000001
20
7.010400000000001
30
0
0
VERTEX
8
0
10
9.652000000000001
20
9.972737500000001
30
0
0
VERTEX
8
0
10
9.652000000000001
20
10.959434375
30
0
42
0.9520795017710562
0
VERTEX
8
0
10
8.128
20
10.959434375
30
0
0
VERTEX
8
0
10
8.128
20
9.360565625000001
30
0
42
0.7145602227898333
0
VERTEX
8
0
10
9.514378125
20
8.960884375000001
30
0
0
VERTEX
8
0
10
12.0396
20
6.4356625
30
0
0
VERTEX
8
0
10
12.0396
20
6.076456250000001
30
0
0
VERTEX
8
0
10
12.426456250000001
20
5.6896
30
0
0
VERTEX
8
0
10
12.973543750000001
20
5.6896
30
0
0
VERTEX
8
0
10
13.346540625000001
20
6.0625968750000006
30
0
0
VERTEX
8
0
10
13.34658125
20
6.06263125
30
0
0
VERTEX
8
0
10
14.19275
20
6.9088
30
0
0
VERTEX
8
0
10
16.0852
20
6.9088
30
0
42
0.198912367379658
0
VERTEX
8
0
10
16.37256875
20
7.02783125
30
0
0
VERTEX
8
0
10
20.607368750000003
20
11.26263125
30
0
42
0.198912367379658
0
VERTEX
8
0
10
20.7264
20
11.55
30
0
0
VERTEX
8
0
10
20.7264
20
21.4216625
30
0
0
VERTEX
8
0
10
23.147368750000002
20
23.84263125
30
0
42
0.20433215429098286
0
VERTEX
8
0
10
23.2663125
20
24.138465625000002
30
0
0
VERTEX
8
0
10
23.226312500000002
20
26.058465625
30
0
42
0.40909375281467486
0
VERTEX
8
0
10
22.818653125
20
26.455618750000003
30
0
0
VERTEX
8
0
10
22.93616875
20
30.477775
30
0
42
0.42279306463823024
0
VERTEX
8
0
10
22.86
20
30.5562
30
0
0
VERTEX
8
0
10
8.9662
20
30.5562
30
0
0
VERTEX
8
0
10
8.9662
20
49.4538
30
0
0
VERTEX
8
0
10
13.97
20
49.4538
30
0
42
0.41421356237309503
0
VERTEX
8
0
10
14.0462
20
49.53
30
0
0
VERTEX
8
0
10
14.0462
20
52.2605
30
0
0
SEQEND
0
POLYLINE
66
1
8
16_copper
10
0.0
20
0.0
30
0.0
70
1
0
VERTEX
8
0
10
15.0495
20
52.892859375
30
0
0
VERTEX
8
0
10
15.0495
20
53.787140625
30
0
0
VERTEX
8
0
10
14.417140625
20
54.4195
30
0
0
VERTEX
8
0
10
13.522859375000001
20
54.4195
30
0
0
VERTEX
8
0
10
12.890500000000001
20
53.787140625
30
0
0
VERTEX
8
0
10
12.890500000000001
20
52.892859375
30
0
0
VERTEX
8
0
10
13.522859375000001
20
52.2605
30
0
0
VERTEX
8
0
10
14.417140625
20
52.2605
30
0
0
SEQEND
0
POLYLINE
66
1
8
16_copper
10
0.0
20
0.0
30
0.0
70
1
0
VERTEX
8
0
10
11.239500000000001
20
52.892859375
30
0
0
VERTEX
8
0
10
11.239500000000001
20
53.787140625
30
0
0
VERTEX
8
0
10
10.607140625000001
20
54.4195
30
0
0
VERTEX
8
0
10
9.712859375
20
54.4195
30
0
0
VERTEX
8
0
10
9.0805
20
53.787140625
30
0
0
VERTEX
8
0
10
9.0805
20
52.892859375
30
0
0
VERTEX
8
0
10
9.712859375
20
52.2605
30
0
0
VERTEX
8
0
10
10.607140625000001
20
52.2605
30
0
0
SEQEND
0
POLYLINE
66
1
8
16_copper
10
0.0
20
0.0
30
0.0
70
1
0
VERTEX
8
0
10
7.4295
20
52.892859375
30
0
0
VERTEX
8
0
10
7.4295
20
53.787140625
30
0
0
VERTEX
8
0
10
6.797140625
20
54.4195
30
0
0
VERTEX
8
0
10
5.902859375
20
54.4195
30
0
0
VERTEX
8
0
10
5.2705
20
53.787140625
30
0
0
VERTEX
8
0
10
5.2705
20
52.892859375
30
0
0
VERTEX
8
0
10
5.902859375
20
52.2605
30
0
0
VERTEX
8
0
10
6.797140625
20
52.2605
30
0
0
SEQEND
0
POLYLINE
66
1
8
16_copper
10
0.0
20
0.0
30
0.0
70
1
0
VERTEX
8
0
10
9.00194375
20
8.643337500000001
30
0
42
0.3578057741447831
0
VERTEX
8
0
10
9.652000000000001
20
9.360565625000001
30
0
0
VERTEX
8
0
10
9.652000000000001
20
10.959434375
30
0
42
0.9520795017710562
0
VERTEX
8
0
10
8.128
20
10.959434375
30
0
0
VERTEX
8
0
10
8.128
20
9.360565625000001
30
0
0
VERTEX
8
0
10
8.1353375
20
9.28605625
30
0
0
VERTEX
8
0
10
8.14994375
20
9.212625000000001
30
0
0
VERTEX
8
0
10
8.171678125
20
9.140981250000001
30
0
0
VERTEX
8
0
10
8.200328125
20
9.071809375
30
0
0
VERTEX
8
0
10
8.235621875
20
9.00578125
30
0
0
VERTEX
8
0
10
8.277218750000001
20
8.943531250000001
30
0
0
VERTEX
8
0
10
8.324715625
20
8.88565625
30
0
0
VERTEX
8
0
10
8.377656250000001
20
8.832715625
30
0
0
VERTEX
8
0
10
8.43553125
20
8.78521875
30
0
0
VERTEX
8
0
10
8.497781250000001
20
8.743621875
30
0
0
VERTEX
8
0
10
8.563809375
20
8.708328125
30
0
0
VERTEX
8
0
10
8.63298125
20
8.679678125
30
0
0
VERTEX
8
0
10
8.704625
20
8.657943750000001
30
0
0
VERTEX
8
0
10
8.77805625
20
8.643337500000001
30
0
0
VERTEX
8
0
10
8.852565625
20
8.636000000000001
30
0
0
VERTEX
8
0
10
8.927434375
20
8.636000000000001
30
0
0
SEQEND
0
POLYLINE
66
1
8
16_copper
10
0.0
20
0.0
30
0.0
70
1
0
VERTEX
8
0
10
13.3604
20
6.076456250000001
30
0
0
VERTEX
8
0
10
13.3604
20
6.6235437500000005
30
0
0
VERTEX
8
0
10
12.973543750000001
20
7.010400000000001
30
0
0
VERTEX
8
0
10
12.426456250000001
20
7.010400000000001
30
0
0
VERTEX
8
0
10
12.0396
20
6.6235437500000005
30
0
0
VERTEX
8
0
10
12.0396
20
6.076456250000001
30
0
0
VERTEX
8
0
10
12.426456250000001
20
5.6896
30
0
0
VERTEX
8
0
10
12.973543750000001
20
5.6896
30
0
0
SEQEND
0
POLYLINE
66
1
8
1_copper
10
0.0
20
0.0
30
0.0
70
1
0
VERTEX
8
0
10
19.05008125
20
2.13360625
30
0
42
0.1988604079762159
0
VERTEX
8
0
10
19.33736875
20
2.2526312500000003
30
0
0
VERTEX
8
0
10
20.4883375
20
3.4036
30
0
0
VERTEX
8
0
10
20.5105
20
3.4036
30
0
0
VERTEX
8
0
10
20.5105
20
3.362859375
30
0
0
VERTEX
8
0
10
21.142859375
20
2.7305
30
0
0
VERTEX
8
0
10
22.037140625000003
20
2.7305
30
0
0
VERTEX
8
0
10
22.6695
20
3.362859375
30
0
0
VERTEX
8
0
10
22.6695
20
3.4036
30
0
0
VERTEX
8
0
10
25.400000000000002
20
3.4036
30
0
42
0.41421356237309503
0
VERTEX
8
0
10
25.8064
20
3.81
30
0
0
VERTEX
8
0
10
25.8064
20
5.82245625
30
0
0
VERTEX
8
0
10
26.0604
20
6.076456250000001
30
0
0
VERTEX
8
0
10
26.0604
20
6.6235437500000005
30
0
0
VERTEX
8
0
10
25.67354375
20
7.010400000000001
30
0
0
VERTEX
8
0
10
25.12645625
20
7.010400000000001
30
0
0
VERTEX
8
0
10
24.739600000000003
20
6.6235437500000005
30
0
0
VERTEX
8
0
10
24.739600000000003
20
6.076456250000001
30
0
0
VERTEX
8
0
10
24.9936
20
5.82245625
30
0
0
VERTEX
8
0
10
24.9936
20
4.2164
30
0
0
VERTEX
8
0
10
22.6695
20
4.2164
30
0
0
VERTEX
8
0
10
22.6695
20
4.257140625
30
0
0
VERTEX
8
0
10
22.037140625000003
20
4.8895
30
0
0
VERTEX
8
0
10
21.142859375
20
4.8895
30
0
0
VERTEX
8
0
10
20.5105
20
4.257140625
30
0
0
VERTEX
8
0
10
20.5105
20
4.2164
30
0
0
VERTEX
8
0
10
20.32
20
4.2164
30
0
42
0.198912367379658
0
VERTEX
8
0
10
20.03263125
20
4.09736875
30
0
0
VERTEX
8
0
10
18.8816625
20
2.9464
30
0
0
VERTEX
8
0
10
12.8683375
20
2.9464
30
0
0
VERTEX
8
0
10
11.71736875
20
4.09736875
30
0
42
0.198912367379658
0
VERTEX
8
0
10
11.43
20
4.2164
30
0
0
VERTEX
8
0
10
7.4295
20
4.2164
30
0
0
VERTEX
8
0
10
7.4295
20
4.257140625
30
0
0
VERTEX
8
0
10
6.797140625
20
4.8895
30
0
0
VERTEX
8
0
10
5.902859375
20
4.8895
30
0
0
VERTEX
8
0
10
5.87405
20
4.860690625
30
0
0
VERTEX
8
0
10
4.2164
20
6.5183375
30
0
0
VERTEX
8
0
10
4.2164
20
8.753096875
30
0
42
0.24455754813634345
0
VERTEX
8
0
10
4.572
20
9.360565625000001
30
0
0
VERTEX
8
0
10
4.572
20
10.959434375
30
0
42
0.9520795017710562
0
VERTEX
8
0
10
3.048
20
10.959434375
30
0
0
VERTEX
8
0
10
3.048
20
9.360565625000001
30
0
42
0.24455754813634345
0
VERTEX
8
0
10
3.4036
20
8.753096875
30
0
0
VERTEX
8
0
10
3.4036
20
6.3500000000000005
30
0
42
0.198912367379658
0
VERTEX
8
0
10
3.5226312500000003
20
6.06263125
30
0
0
VERTEX
8
0
10
5.2993125
20
4.285953125
30
0
0
VERTEX
8
0
10
5.2705
20
4.257140625
30
0
0
VERTEX
8
0
10
5.2705
20
3.362859375
30
0
0
VERTEX
8
0
10
5.902859375
20
2.7305
30
0
0
VERTEX
8
0
10
6.797140625
20
2.7305
30
0
0
VERTEX
8
0
10
7.4295
20
3.362859375
30
0
0
VERTEX
8
0
10
7.4295
20
3.4036
30
0
0
VERTEX
8
0
10
11.2616625
20
3.4036
30
0
0
VERTEX
8
0
10
12.41263125
20
2.2526312500000003
30
0
42
0.198912367379658
0
VERTEX
8
0
10
12.700000000000001
20
2.1336
30
0
0
VERTEX
8
0
10
19.05
20
2.1336
30
0
0
SEQEND
0
POLYLINE
66
1
8
16_copper
10
0.0
20
0.0
30
0.0
70
1
0
VERTEX
8
0
10
3.92194375
20
8.643337500000001
30
0
42
0.3578057741447831
0
VERTEX
8
0
10
4.572
20
9.360565625000001
30
0
0
VERTEX
8
0
10
4.572
20
10.959434375
30
0
42
0.9520795017710562
0
VERTEX
8
0
10
3.048
20
10.959434375
30
0
0
VERTEX
8
0
10
3.048
20
9.360565625000001
30
0
0
VERTEX
8
0
10
3.0553375000000003
20
9.28605625
30
0
0
VERTEX
8
0
10
3.06994375
20
9.212625000000001
30
0
0
VERTEX
8
0
10
3.091678125
20
9.140981250000001
30
0
0
VERTEX
8
0
10
3.1203281250000003
20
9.071809375
30
0
0
VERTEX
8
0
10
3.155621875
20
9.00578125
30
0
0
VERTEX
8
0
10
3.19721875
20
8.943531250000001
30
0
0
VERTEX
8
0
10
3.244715625
20
8.88565625
30
0
0
VERTEX
8
0
10
3.29765625
20
8.832715625
30
0
0
VERTEX
8
0
10
3.3555312500000003
20
8.78521875
30
0
0
VERTEX
8
0
10
3.41778125
20
8.743621875
30
0
0
VERTEX
8
0
10
3.4838093750000003
20
8.708328125
30
0
0
VERTEX
8
0
10
3.55298125
20
8.679678125
30
0
0
VERTEX
8
0
10
3.624625
20
8.657943750000001
30
0
0
VERTEX
8
0
10
3.69805625
20
8.643337500000001
30
0
0
VERTEX
8
0
10
3.7725656250000004
20
8.636000000000001
30
0
0
VERTEX
8
0
10
3.847434375
20
8.636000000000001
30
0
0
SEQEND
0
POLYLINE
66
1
8
16_copper
10
0.0
20
0.0
30
0.0
70
1
0
VERTEX
8
0
10
26.0604
20
6.076456250000001
30
0
0
VERTEX
8
0
10
26.0604
20
6.6235437500000005
30
0
0
VERTEX
8
0
10
25.67354375
20
7.010400000000001
30
0
0
VERTEX
8
0
10
25.12645625
20
7.010400000000001
30
0
0
VERTEX
8
0
10
24.739600000000003
20
6.6235437500000005
30
0
0
VERTEX
8
0
10
24.739600000000003
20
6.076456250000001
30
0
0
VERTEX
8
0
10
25.12645625
20
5.6896
30
0
0
VERTEX
8
0
10
25.67354375
20
5.6896
30
0
0
SEQEND
0
POLYLINE
66
1
8
16_copper
10
0.0
20
0.0
30
0.0
70
1
0
VERTEX
8
0
10
22.6695
20
3.362859375
30
0
0
VERTEX
8
0
10
22.6695
20
4.257140625
30
0
0
VERTEX
8
0
10
22.037140625000003
20
4.8895
30
0
0
VERTEX
8
0
10
21.142859375
20
4.8895
30
0
0
VERTEX
8
0
10
20.5105
20
4.257140625
30
0
0
VERTEX
8
0
10
20.5105
20
3.362859375
30
0
0
VERTEX
8
0
10
21.142859375
20
2.7305
30
0
0
VERTEX
8
0
10
22.037140625000003
20
2.7305
30
0
0
SEQEND
0
POLYLINE
66
1
8
16_copper
10
0.0
20
0.0
30
0.0
70
1
0
VERTEX
8
0
10
7.4295
20
3.362859375
30
0
0
VERTEX
8
0
10
7.4295
20
4.257140625
30
0
0
VERTEX
8
0
10
6.797140625
20
4.8895
30
0
0
VERTEX
8
0
10
5.902859375
20
4.8895
30
0
0
VERTEX
8
0
10
5.2705
20
4.257140625
30
0
0
VERTEX
8
0
10
5.2705
20
3.362859375
30
0
0
VERTEX
8
0
10
5.902859375
20
2.7305
30
0
0
VERTEX
8
0
10
6.797140625
20
2.7305
30
0
0
SEQEND
0
POLYLINE
66
1
8
1_copper
10
0.0
20
0.0
30
0.0
70
1
0
VERTEX
8
0
10
40.4495
20
3.362859375
30
0
0
VERTEX
8
0
10
40.4495
20
4.257140625
30
0
0
VERTEX
8
0
10
39.817140625
20
4.8895
30
0
0
VERTEX
8
0
10
38.922859375
20
4.8895
30
0
0
VERTEX
8
0
10
38.2905
20
4.257140625
30
0
0
VERTEX
8
0
10
38.2905
20
4.2164
30
0
0
VERTEX
8
0
10
35.9664
20
4.2164
30
0
0
VERTEX
8
0
10
35.9664
20
6.048565625
30
0
42
0.2609571049034481
0
VERTEX
8
0
10
36.3982
20
6.745203125000001
30
0
0
VERTEX
8
0
10
36.3982
20
8.494796875
30
0
42
0.9572914311583669
0
VERTEX
8
0
10
34.7218
20
8.494796875
30
0
0
VERTEX
8
0
10
34.7218
20
6.745203125000001
30
0
42
0.2609571049034481
0
VERTEX
8
0
10
35.153600000000004
20
6.048565625
30
0
0
VERTEX
8
0
10
35.153600000000004
20
3.81
30
0
42
0.41421356237309503
0
VERTEX
8
0
10
35.56
20
3.4036
30
0
0
VERTEX
8
0
10
38.2905
20
3.4036
30
0
0
VERTEX
8
0
10
38.2905
20
3.362859375
30
0
0
VERTEX
8
0
10
38.922859375
20
2.7305
30
0
0
VERTEX
8
0
10
39.817140625
20
2.7305
30
0
0
SEQEND
0
POLYLINE
66
1
8
16_copper
10
0.0
20
0.0
30
0.0
70
1
0
VERTEX
8
0
10
35.6695125
20
5.949978125
30
0
42
0.3639697834944294
0
VERTEX
8
0
10
36.3982
20
6.745203125000001
30
0
0
VERTEX
8
0
10
36.3982
20
8.494796875
30
0
42
0.9572914311583669
0
VERTEX
8
0
10
34.7218
20
8.494796875
30
0
0
VERTEX
8
0
10
34.7218
20
6.745203125000001
30
0
0
VERTEX
8
0
10
34.728178125
20
6.6722875
30
0
0
VERTEX
8
0
10
34.740890625
20
6.60020625
30
0
0
VERTEX
8
0
10
34.759834375000004
20
6.529509375
30
0
0
VERTEX
8
0
10
34.784865625
20
6.460728125
30
0
0
VERTEX
8
0
10
34.8158
20
6.39439375
30
0
0
VERTEX
8
0
10
34.852396875000004
20
6.331006250000001
30
0
0
VERTEX
8
0
10
34.894378125
20
6.271050000000001
30
0
0
VERTEX
8
0
10
34.941425
20
6.21498125
30
0
0
VERTEX
8
0
10
34.99318125
20
6.163225000000001
30
0
0
VERTEX
8
0
10
35.04925
20
6.116178125
30
0
0
VERTEX
8
0
10
35.10920625
20
6.074196875
30
0
0
VERTEX
8
0
10
35.172593750000004
20
6.0376
30
0
0
VERTEX
8
0
10
35.238928125
20
6.006665625
30
0
0
VERTEX
8
0
10
35.307709375
20
5.9816343750000005
30
0
0
VERTEX
8
0
10
35.378406250000005
20
5.9626906250000005
30
0
0
VERTEX
8
0
10
35.4504875
20
5.949978125
30
0
0
VERTEX
8
0
10
35.523403125
20
5.9436
30
0
0
VERTEX
8
0
10
35.596596875
20
5.9436
30
0
0
SEQEND
0
POLYLINE
66
1
8
16_copper
10
0.0
20
0.0
30
0.0
70
1
0
VERTEX
8
0
10
40.4495
20
3.362859375
30
0
0
VERTEX
8
0
10
40.4495
20
4.257140625
30
0
0
VERTEX
8
0
10
39.817140625
20
4.8895
30
0
0
VERTEX
8
0
10
38.922859375
20
4.8895
30
0
0
VERTEX
8
0
10
38.2905
20
4.257140625
30
0
0
VERTEX
8
0
10
38.2905
20
3.362859375
30
0
0
VERTEX
8
0
10
38.922859375
20
2.7305
30
0
0
VERTEX
8
0
10
39.817140625
20
2.7305
30
0
0
SEQEND
0
POLYLINE
66
1
8
1_copper
10
0.0
20
0.0
30
0.0
70
1
0
VERTEX
8
0
10
15.99
20
47.32
30
0
0
VERTEX
8
0
10
15.513434375000001
20
47.32
30
0
0
VERTEX
8
0
10
16.58301875
20
50.905215625000004
30
0
42
0.9999999999999999
0
VERTEX
8
0
10
16.436981250000002
20
50.948784375
30
0
0
VERTEX
8
0
10
15.354396875
20
47.32
30
0
0
VERTEX
8
0
10
14.49
20
47.32
30
0
0
VERTEX
8
0
10
14.49
20
46.02
30
0
0
VERTEX
8
0
10
15.99
20
46.02
30
0
0
SEQEND
0
POLYLINE
66
1
8
1_copper
10
0.0
20
0.0
30
0.0
70
1
0
VERTEX
8
0
10
23.61
20
47.32
30
0
0
VERTEX
8
0
10
22.3465375
20
47.32
30
0
0
VERTEX
8
0
10
19.105196875
20
50.725534375
30
0
42
0.9999999999999999
0
VERTEX
8
0
10
18.994803125
20
50.620465625
30
0
0
VERTEX
8
0
10
22.136140625
20
47.32
30
0
0
VERTEX
8
0
10
22.11
20
47.32
30
0
0
VERTEX
8
0
10
22.11
20
46.02
30
0
0
VERTEX
8
0
10
23.61
20
46.02
30
0
0
SEQEND
0
POLYLINE
66
1
8
1_copper
10
0.0
20
0.0
30
0.0
70
1
0
VERTEX
8
0
10
28.69
20
47.32
30
0
0
VERTEX
8
0
10
27.426537500000002
20
47.32
30
0
0
VERTEX
8
0
10
24.185196875000003
20
50.725534375
30
0
42
0.9999999999999999
0
VERTEX
8
0
10
24.074803125000003
20
50.620465625
30
0
0
VERTEX
8
0
10
27.216140625
20
47.32
30
0
0
VERTEX
8
0
10
27.19
20
47.32
30
0
0
VERTEX
8
0
10
27.19
20
46.02
30
0
0
VERTEX
8
0
10
28.69
20
46.02
30
0
0
SEQEND
0
POLYLINE
66
1
8
1_copper
10
0.0
20
0.0
30
0.0
70
1
0
VERTEX
8
0
10
21.07
20
47.32
30
0
0
VERTEX
8
0
10
19.898340625
20
47.32
30
0
0
VERTEX
8
0
10
19.340921875
20
48.017871875000004
30
0
42
0.9871662900876622
0
VERTEX
8
0
10
18.76504375
20
48.5099
30
0
0
VERTEX
8
0
10
18.734862500000002
20
48.470568750000005
30
0
42
0.7726001533557217
0
VERTEX
8
0
10
19.221984375
20
47.9225875
30
0
0
VERTEX
8
0
10
19.70329375
20
47.32
30
0
0
VERTEX
8
0
10
19.57
20
47.32
30
0
0
VERTEX
8
0
10
19.57
20
46.02
30
0
0
VERTEX
8
0
10
21.07
20
46.02
30
0
0
SEQEND
0
POLYLINE
66
1
8
16_copper
10
0.0
20
0.0
30
0.0
70
1
0
VERTEX
8
0
10
26.805428125000002
20
33.072015625
30
0
42
0.16997656369761122
0
VERTEX
8
0
10
26.85088125
20
33.09311875
30
0
0
VERTEX
8
0
10
29.26388125
20
35.50611875
30
0
42
0.198912367379658
0
VERTEX
8
0
10
29.2862
20
35.56
30
0
0
VERTEX
8
0
10
29.2862
20
48.260000000000005
30
0
42
0.41421356237309503
0
VERTEX
8
0
10
29.21
20
48.336200000000005
30
0
0
VERTEX
8
0
10
19.421121875
20
48.336200000000005
30
0
42
0.9969241442347151
0
VERTEX
8
0
10
18.678271875
20
48.186059375
30
0
0
VERTEX
8
0
10
18.691103125
20
48.138171875000005
30
0
42
0.7648843201253167
0
VERTEX
8
0
10
19.421121875
20
48.183800000000005
30
0
0
VERTEX
8
0
10
29.1338
20
48.183800000000005
30
0
0
VERTEX
8
0
10
29.1338
20
35.5915625
30
0
0
VERTEX
8
0
10
26.7654375
20
33.2232
30
0
0
VERTEX
8
0
10
26.67
20
33.2232
30
0
42
0.8710665068920351
0
VERTEX
8
0
10
26.649293750000002
20
33.07366875
30
0
0
VERTEX
8
0
10
26.67
20
33.0708
30
0
0
VERTEX
8
0
10
26.797
20
33.0708
30
0
0
SEQEND
0
POLYLINE
66
1
8
1_copper
10
0.0
20
0.0
30
0.0
70
1
0
VERTEX
8
0
10
13.450000000000001
20
47.32
30
0
0
VERTEX
8
0
10
12.776200000000001
20
47.32
30
0
0
VERTEX
8
0
10
12.776200000000001
20
47.888878125000005
30
0
42
0.9969241442347151
0
VERTEX
8
0
10
12.626059375
20
48.631728125
30
0
0
VERTEX
8
0
10
12.578171875
20
48.618896875000004
30
0
42
0.7648843201253167
0
VERTEX
8
0
10
12.623800000000001
20
47.888878125000005
30
0
0
VERTEX
8
0
10
12.623800000000001
20
47.32
30
0
0
VERTEX
8
0
10
11.950000000000001
20
47.32
30
0
0
VERTEX
8
0
10
11.950000000000001
20
46.02
30
0
0
VERTEX
8
0
10
13.450000000000001
20
46.02
30
0
0
SEQEND
0
POLYLINE
66
1
8
1_copper
10
0.0
20
0.0
30
0.0
70
1
0
VERTEX
8
0
10
24.141315625
20
32.81764375
30
0
42
0.3712023256762844
0
VERTEX
8
0
10
24.206200000000003
20
32.893
30
0
0
VERTEX
8
0
10
24.206200000000003
20
35.56
30
0
42
0.41421356237309503
0
VERTEX
8
0
10
24.130000000000003
20
35.6362
30
0
0
VERTEX
8
0
10
16.881121875
20
35.6362
30
0
42
0.9969241442347151
0
VERTEX
8
0
10
16.138271875
20
35.486059375
30
0
0
VERTEX
8
0
10
16.151103125000002
20
35.438171875
30
0
42
0.7648843201253167
0
VERTEX
8
0
10
16.881121875
20
35.4838
30
0
0
VERTEX
8
0
10
24.053800000000003
20
35.4838
30
0
0
VERTEX
8
0
10
24.053800000000003
20
32.893
30
0
0
VERTEX
8
0
10
24.056909375
20
32.87145625
30
0
0
VERTEX
8
0
10
24.06598125
20
32.85166875
30
0
0
VERTEX
8
0
10
24.080278125
20
32.83525625
30
0
0
VERTEX
8
0
10
24.098634375
20
32.82355625
30
0
0
VERTEX
8
0
10
24.119546875
20
32.817518750000005
30
0
0
SEQEND
0
POLYLINE
66
1
8
16_copper
10
0.0
20
0.0
30
0.0
70
1
0
VERTEX
8
0
10
16.583940625
20
35.188271875000005
30
0
42
0.818105841543916
0
VERTEX
8
0
10
16.5862
20
35.931121875
30
0
0
VERTEX
8
0
10
16.5862
20
41.330062500000004
30
0
42
0.14431046205070072
0
VERTEX
8
0
10
16.57401875
20
41.37139375
30
0
0
VERTEX
8
0
10
16.569146875
20
41.3769875
30
0
42
0.07569209161177291
0
VERTEX
8
0
10
16.5481
20
41.399725000000004
30
0
0
VERTEX
8
0
10
16.5481
20
42.420275000000004
30
0
42
0.27415419855218404
0
VERTEX
8
0
10
16.5862
20
42.4899375
30
0
0
VERTEX
8
0
10
16.5862
20
43.18
30
0
42
0.16227555561101814
0
VERTEX
8
0
10
16.570959375
20
43.22571875
30
0
0
VERTEX
8
0
10
12.983653125
20
48.008796875
30
0
42
0.9388827024867071
0
VERTEX
8
0
10
12.4501
20
48.544956250000006
30
0
0
VERTEX
8
0
10
12.41504375
20
48.5099
30
0
42
0.8134746878484829
0
VERTEX
8
0
10
12.861575
20
47.917565625
30
0
0
VERTEX
8
0
10
16.4338
20
43.154603125
30
0
0
VERTEX
8
0
10
16.4338
20
42.5215
30
0
42
0.07520538326441663
0
VERTEX
8
0
10
16.412946875
20
42.498934375000005
30
0
0
VERTEX
8
0
10
16.4074125
20
42.492434375
30
0
42
0.14139383237721448
0
VERTEX
8
0
10
16.3957
20
42.4518375
30
0
0
VERTEX
8
0
10
16.3957
20
41.368162500000004
30
0
42
0.27415419855218404
0
VERTEX
8
0
10
16.4338
20
41.298500000000004
30
0
0
VERTEX
8
0
10
16.4338
20
35.931121875
30
0
0
VERTEX
8
0
10
16.388171875
20
35.918896875
30
0
0
VERTEX
8
0
10
16.342368750000002
20
35.899925
30
0
0
VERTEX
8
0
10
16.29943125
20
35.8751375
30
0
0
VERTEX
8
0
10
16.2601
20
35.84495625
30
0
0
VERTEX
8
0
10
16.22504375
20
35.8099
30
0
0
VERTEX
8
0
10
16.1948625
20
35.77056875
30
0
0
VERTEX
8
0
10
16.170075
20
35.72763125
30
0
0
VERTEX
8
0
10
16.151103125000002
20
35.681828125
30
0
0
VERTEX
8
0
10
16.138271875
20
35.633940625
30
0
0
VERTEX
8
0
10
16.131800000000002
20
35.584787500000004
30
0
0
VERTEX
8
0
10
16.131800000000002
20
35.5352125
30
0
0
VERTEX
8
0
10
16.138271875
20
35.486059375
30
0
0
VERTEX
8
0
10
16.151103125000002
20
35.438171875
30
0
0
VERTEX
8
0
10
16.170075
20
35.39236875
30
0
0
VERTEX
8
0
10
16.1948625
20
35.34943125
30
0
0
VERTEX
8
0
10
16.22504375
20
35.3101
30
0
0
VERTEX
8
0
10
16.2601
20
35.27504375
30
0
0
VERTEX
8
0
10
16.29943125
20
35.2448625
30
0
0
VERTEX
8
0
10
16.342368750000002
20
35.220075
30
0
0
VERTEX
8
0
10
16.388171875
20
35.201103125
30
0
0
VERTEX
8
0
10
16.436059375
20
35.188271875000005
30
0
0
VERTEX
8
0
10
16.4852125
20
35.1818
30
0
0
VERTEX
8
0
10
16.5347875
20
35.1818
30
0
0
SEQEND
0
POLYLINE
66
1
8
1_copper
10
0.0
20
0.0
30
0.0
70
1
0
VERTEX
8
0
10
18.53
20
47.32
30
0
0
VERTEX
8
0
10
17.8562
20
47.32
30
0
0
VERTEX
8
0
10
17.8562
20
49.158878125
30
0
42
0.9969241442347151
0
VERTEX
8
0
10
17.706059375000002
20
49.901728125000005
30
0
0
VERTEX
8
0
10
17.658171875
20
49.888896875
30
0
42
0.7648843201253167
0
VERTEX
8
0
10
17.7038
20
49.158878125
30
0
0
VERTEX
8
0
10
17.7038
20
47.32
30
0
0
VERTEX
8
0
10
17.03
20
47.32
30
0
0
VERTEX
8
0
10
17.03
20
46.02
30
0
0
VERTEX
8
0
10
18.53
20
46.02
30
0
0
SEQEND
0
POLYLINE
66
1
8
1_copper
10
0.0
20
0.0
30
0.0
70
1
0
VERTEX
8
0
10
21.620634375
20
33.077228125000005
30
0
42
0.5446942374318731
0
VERTEX
8
0
10
21.640975
20
33.2036375
30
0
0
VERTEX
8
0
10
20.370975
20
34.3466375
30
0
42
0.18528448587410176
0
VERTEX
8
0
10
20.32
20
34.3662
30
0
0
VERTEX
8
0
10
10.2362
20
34.3662
30
0
0
VERTEX
8
0
10
10.2362
20
47.888878125000005
30
0
42
0.9969241442347151
0
VERTEX
8
0
10
10.086059375
20
48.631728125
30
0
0
VERTEX
8
0
10
10.038171875
20
48.618896875000004
30
0
42
0.7648843201253167
0
VERTEX
8
0
10
10.0838
20
47.888878125000005
30
0
0
VERTEX
8
0
10
10.0838
20
34.29
30
0
42
0.41421356237309503
0
VERTEX
8
0
10
10.16
20
34.2138
30
0
0
VERTEX
8
0
10
20.2907625
20
34.2138
30
0
0
VERTEX
8
0
10
21.539025000000002
20
33.090362500000005
30
0
0
VERTEX
8
0
10
21.55711875
20
33.078259375
30
0
0
VERTEX
8
0
10
21.57789375
20
33.071768750000004
30
0
0
VERTEX
8
0
10
21.599659375
20
33.071415625
30
0
0
SEQEND
0
POLYLINE
66
1
8
16_copper
10
0.0
20
0.0
30
0.0
70
1
0
VERTEX
8
0
10
10.233940625
20
47.888271875
30
0
42
0.818105841543916
0
VERTEX
8
0
10
10.2362
20
48.631121875000005
30
0
0
VERTEX
8
0
10
10.2362
20
49.4538
30
0
0
VERTEX
8
0
10
17.408878125
20
49.4538
30
0
42
0.9969241442347151
0
VERTEX
8
0
10
18.151728125
20
49.603940625
30
0
0
VERTEX
8
0
10
18.138896875
20
49.651828125
30
0
42
0.7648843201253167
0
VERTEX
8
0
10
17.408878125
20
49.6062
30
0
0
VERTEX
8
0
10
10.16
20
49.6062
30
0
42
0.41421356237309503
0
VERTEX
8
0
10
10.0838
20
49.53
30
0
0
VERTEX
8
0
10
10.0838
20
48.631121875000005
30
0
0
VERTEX
8
0
10
10.038171875
20
48.618896875000004
30
0
0
VERTEX
8
0
10
9.99236875
20
48.599925
30
0
0
VERTEX
8
0
10
9.94943125
20
48.575137500000004
30
0
0
VERTEX
8
0
10
9.9101
20
48.544956250000006
30
0
0
VERTEX
8
0
10
9.87504375
20
48.5099
30
0
0
VERTEX
8
0
10
9.8448625
20
48.470568750000005
30
0
0
VERTEX
8
0
10
9.820075000000001
20
48.427631250000005
30
0
0
VERTEX
8
0
10
9.801103125000001
20
48.381828125000006
30
0
0
VERTEX
8
0
10
9.788271875000001
20
48.333940625000004
30
0
0
VERTEX
8
0
10
9.7818
20
48.2847875
30
0
0
VERTEX
8
0
10
9.7818
20
48.2352125
30
0
0
VERTEX
8
0
10
9.788271875000001
20
48.186059375
30
0
0
VERTEX
8
0
10
9.801103125000001
20
48.138171875000005
30
0
0
VERTEX
8
0
10
9.820075000000001
20
48.092368750000006
30
0
0
VERTEX
8
0
10
9.8448625
20
48.049431250000005
30
0
0
VERTEX
8
0
10
9.87504375
20
48.0101
30
0
0
VERTEX
8
0
10
9.9101
20
47.975043750000005
30
0
0
VERTEX
8
0
10
9.94943125
20
47.9448625
30
0
0
VERTEX
8
0
10
9.99236875
20
47.920075000000004
30
0
0
VERTEX
8
0
10
10.038171875
20
47.901103125
30
0
0
VERTEX
8
0
10
10.086059375
20
47.888271875
30
0
0
VERTEX
8
0
10
10.1352125
20
47.881800000000005
30
0
0
VERTEX
8
0
10
10.1847875
20
47.881800000000005
30
0
0
SEQEND
0
POLYLINE
66
1
8
1_copper
10
0.0
20
0.0
30
0.0
70
1
0
VERTEX
8
0
10
18.53
20
39.7
30
0
0
VERTEX
8
0
10
17.8562
20
39.7
30
0
0
VERTEX
8
0
10
17.8562
20
40.8305
30
0
0
VERTEX
8
0
10
18.227140625
20
40.8305
30
0
0
VERTEX
8
0
10
18.8595
20
41.462859375
30
0
0
VERTEX
8
0
10
18.8595
20
42.357140625
30
0
0
VERTEX
8
0
10
18.227140625
20
42.9895
30
0
0
VERTEX
8
0
10
17.8562
20
42.9895
30
0
0
VERTEX
8
0
10
17.8562
20
44.120000000000005
30
0
0
VERTEX
8
0
10
18.53
20
44.120000000000005
30
0
0
VERTEX
8
0
10
18.53
20
45.42
30
0
0
VERTEX
8
0
10
17.03
20
45.42
30
0
0
VERTEX
8
0
10
17.03
20
44.120000000000005
30
0
0
VERTEX
8
0
10
17.7038
20
44.120000000000005
30
0
0
VERTEX
8
0
10
17.7038
20
42.9895
30
0
0
VERTEX
8
0
10
17.332859375
20
42.9895
30
0
0
VERTEX
8
0
10
16.7005
20
42.357140625
30
0
0
VERTEX
8
0
10
16.7005
20
41.462859375
30
0
0
VERTEX
8
0
10
17.332859375
20
40.8305
30
0
0
VERTEX
8
0
10
17.7038
20
40.8305
30
0
0
VERTEX
8
0
10
17.7038
20
39.7
30
0
0
VERTEX
8
0
10
17.03
20
39.7
30
0
0
VERTEX
8
0
10
17.03
20
38.4
30
0
0
VERTEX
8
0
10
18.53
20
38.4
30
0
0
SEQEND
0
POLYLINE
66
1
8
16_copper
10
0.0
20
0.0
30
0.0
70
1
0
VERTEX
8
0
10
18.8595
20
41.462859375
30
0
0
VERTEX
8
0
10
18.8595
20
42.357140625
30
0
0
VERTEX
8
0
10
18.227140625
20
42.9895
30
0
0
VERTEX
8
0
10
17.332859375
20
42.9895
30
0
0
VERTEX
8
0
10
16.7005
20
42.357140625
30
0
0
VERTEX
8
0
10
16.7005
20
41.462859375
30
0
0
VERTEX
8
0
10
17.332859375
20
40.8305
30
0
0
VERTEX
8
0
10
18.227140625
20
40.8305
30
0
0
SEQEND
0
POLYLINE
66
1
8
1_copper
10
0.0
20
0.0
30
0.0
70
1
0
VERTEX
8
0
10
13.450000000000001
20
39.7
30
0
0
VERTEX
8
0
10
12.776200000000001
20
39.7
30
0
0
VERTEX
8
0
10
12.776200000000001
20
40.8305
30
0
0
VERTEX
8
0
10
13.147140625
20
40.8305
30
0
0
VERTEX
8
0
10
13.7795
20
41.462859375
30
0
0
VERTEX
8
0
10
13.7795
20
42.357140625
30
0
0
VERTEX
8
0
10
13.147140625
20
42.9895
30
0
0
VERTEX
8
0
10
12.776200000000001
20
42.9895
30
0
0
VERTEX
8
0
10
12.776200000000001
20
44.120000000000005
30
0
0
VERTEX
8
0
10
13.450000000000001
20
44.120000000000005
30
0
0
VERTEX
8
0
10
13.450000000000001
20
45.42
30
0
0
VERTEX
8
0
10
11.950000000000001
20
45.42
30
0
0
VERTEX
8
0
10
11.950000000000001
20
44.120000000000005
30
0
0
VERTEX
8
0
10
12.623800000000001
20
44.120000000000005
30
0
0
VERTEX
8
0
10
12.623800000000001
20
42.9895
30
0
0
VERTEX
8
0
10
12.252859375
20
42.9895
30
0
0
VERTEX
8
0
10
11.6205
20
42.357140625
30
0
0
VERTEX
8
0
10
11.6205
20
41.462859375
30
0
0
VERTEX
8
0
10
12.252859375
20
40.8305
30
0
0
VERTEX
8
0
10
12.623800000000001
20
40.8305
30
0
0
VERTEX
8
0
10
12.623800000000001
20
39.7
30
0
0
VERTEX
8
0
10
11.950000000000001
20
39.7
30
0
0
VERTEX
8
0
10
11.950000000000001
20
38.4
30
0
0
VERTEX
8
0
10
13.450000000000001
20
38.4
30
0
0
SEQEND
0
POLYLINE
66
1
8
16_copper
10
0.0
20
0.0
30
0.0
70
1
0
VERTEX
8
0
10
13.7795
20
41.462859375
30
0
0
VERTEX
8
0
10
13.7795
20
42.357140625
30
0
0
VERTEX
8
0
10
13.147140625
20
42.9895
30
0
0
VERTEX
8
0
10
12.252859375
20
42.9895
30
0
0
VERTEX
8
0
10
11.6205
20
42.357140625
30
0
0
VERTEX
8
0
10
11.6205
20
41.462859375
30
0
0
VERTEX
8
0
10
12.252859375
20
40.8305
30
0
0
VERTEX
8
0
10
13.147140625
20
40.8305
30
0
0
SEQEND
0
POLYLINE
66
1
8
1_copper
10
0.0
20
0.0
30
0.0
70
1
0
VERTEX
8
0
10
21.07
20
39.7
30
0
0
VERTEX
8
0
10
20.3962
20
39.7
30
0
0
VERTEX
8
0
10
20.3962
20
40.8305
30
0
0
VERTEX
8
0
10
20.767140625
20
40.8305
30
0
0
VERTEX
8
0
10
21.3995
20
41.462859375
30
0
0
VERTEX
8
0
10
21.3995
20
42.357140625
30
0
0
VERTEX
8
0
10
20.767140625
20
42.9895
30
0
0
VERTEX
8
0
10
20.3962
20
42.9895
30
0
0
VERTEX
8
0
10
20.3962
20
44.120000000000005
30
0
0
VERTEX
8
0
10
21.07
20
44.120000000000005
30
0
0
VERTEX
8
0
10
21.07
20
45.42
30
0
0
VERTEX
8
0
10
19.57
20
45.42
30
0
0
VERTEX
8
0
10
19.57
20
44.120000000000005
30
0
0
VERTEX
8
0
10
20.2438
20
44.120000000000005
30
0
0
VERTEX
8
0
10
20.2438
20
42.9895
30
0
0
VERTEX
8
0
10
19.872859375
20
42.9895
30
0
0
VERTEX
8
0
10
19.2405
20
42.357140625
30
0
0
VERTEX
8
0
10
19.2405
20
41.462859375
30
0
0
VERTEX
8
0
10
19.872859375
20
40.8305
30
0
0
VERTEX
8
0
10
20.2438
20
40.8305
30
0
0
VERTEX
8
0
10
20.2438
20
39.7
30
0
0
VERTEX
8
0
10
19.57
20
39.7
30
0
0
VERTEX
8
0
10
19.57
20
38.4
30
0
0
VERTEX
8
0
10
21.07
20
38.4
30
0
0
SEQEND
0
POLYLINE
66
1
8
16_copper
10
0.0
20
0.0
30
0.0
70
1
0
VERTEX
8
0
10
21.3995
20
41.462859375
30
0
0
VERTEX
8
0
10
21.3995
20
42.357140625
30
0
0
VERTEX
8
0
10
20.767140625
20
42.9895
30
0
0
VERTEX
8
0
10
19.872859375
20
42.9895
30
0
0
VERTEX
8
0
10
19.2405
20
42.357140625
30
0
0
VERTEX
8
0
10
19.2405
20
41.462859375
30
0
0
VERTEX
8
0
10
19.872859375
20
40.8305
30
0
0
VERTEX
8
0
10
20.767140625
20
40.8305
30
0
0
SEQEND
0
POLYLINE
66
1
8
1_copper
10
0.0
20
0.0
30
0.0
70
1
0
VERTEX
8
0
10
23.61
20
39.7
30
0
0
VERTEX
8
0
10
22.9362
20
39.7
30
0
0
VERTEX
8
0
10
22.9362
20
41.538878125000004
30
0
42
0.8155378645187369
0
VERTEX
8
0
10
22.9362
20
42.281121875000004
30
0
0
VERTEX
8
0
10
22.9362
20
44.120000000000005
30
0
0
VERTEX
8
0
10
23.61
20
44.120000000000005
30
0
0
VERTEX
8
0
10
23.61
20
45.42
30
0
0
VERTEX
8
0
10
22.11
20
45.42
30
0
0
VERTEX
8
0
10
22.11
20
44.120000000000005
30
0
0
VERTEX
8
0
10
22.7838
20
44.120000000000005
30
0
0
VERTEX
8
0
10
22.7838
20
42.281121875000004
30
0
42
0.8155378645187369
0
VERTEX
8
0
10
22.7838
20
41.538878125000004
30
0
0
VERTEX
8
0
10
22.7838
20
39.7
30
0
0
VERTEX
8
0
10
22.11
20
39.7
30
0
0
VERTEX
8
0
10
22.11
20
38.4
30
0
0
VERTEX
8
0
10
23.61
20
38.4
30
0
0
SEQEND
0
POLYLINE
66
1
8
16_copper
10
0.0
20
0.0
30
0.0
70
1
0
VERTEX
8
0
10
17.831615625
20
11.474690625000001
30
0
42
0.3712004127235635
0
VERTEX
8
0
10
17.8962
20
11.550303125000001
30
0
0
VERTEX
8
0
10
17.856325000000002
20
21.5585625
30
0
0
VERTEX
8
0
10
20.653281250000003
20
24.35551875
30
0
42
0.198912367379658
0
VERTEX
8
0
10
20.6756
20
24.4094
30
0
0
VERTEX
8
0
10
20.6756
20
33.5257625
30
0
0
VERTEX
8
0
10
22.913881250000003
20
35.76404375
30
0
42
0.198912367379658
0
VERTEX
8
0
10
22.9362
20
35.817925
30
0
0
VERTEX
8
0
10
22.9362
20
41.538878125000004
30
0
42
0.9969241442347151
0
VERTEX
8
0
10
22.786059375
20
42.281728125
30
0
0
VERTEX
8
0
10
22.738171875000003
20
42.268896875
30
0
42
0.7648843201253167
0
VERTEX
8
0
10
22.7838
20
41.538878125000004
30
0
0
VERTEX
8
0
10
22.7838
20
35.8494875
30
0
0
VERTEX
8
0
10
20.54551875
20
33.61120625
30
0
42
0.198912367379658
0
VERTEX
8
0
10
20.5232
20
33.557325
30
0
0
VERTEX
8
0
10
20.5232
20
24.4409625
30
0
0
VERTEX
8
0
10
17.72611875
20
21.64388125
30
0
42
0.1999464201127266
0
VERTEX
8
0
10
17.7038
20
21.589696875
30
0
0
VERTEX
8
0
10
17.7438
20
11.549696875
30
0
0
VERTEX
8
0
10
17.746996875
20
11.528165625
30
0
0
VERTEX
8
0
10
17.756146875000002
20
11.508415625000001
30
0
0
VERTEX
8
0
10
17.770509375
20
11.492059375
30
0
0
VERTEX
8
0
10
17.788909375
20
11.48043125
30
0
0
VERTEX
8
0
10
17.809846875
20
11.474478125000001
30
0
0
SEQEND
0
POLYLINE
66
1
8
1_copper
10
0.0
20
0.0
30
0.0
70
1
0
VERTEX
8
0
10
28.69
20
39.7
30
0
0
VERTEX
8
0
10
28.0162
20
39.7
30
0
0
VERTEX
8
0
10
28.0162
20
41.538878125000004
30
0
42
0.8155378645187369
0
VERTEX
8
0
10
28.0162
20
42.281121875000004
30
0
0
VERTEX
8
0
10
28.0162
20
44.120000000000005
30
0
0
VERTEX
8
0
10
28.69
20
44.120000000000005
30
0
0
VERTEX
8
0
10
28.69
20
45.42
30
0
0
VERTEX
8
0
10
27.19
20
45.42
30
0
0
VERTEX
8
0
10
27.19
20
44.120000000000005
30
0
0
VERTEX
8
0
10
27.8638
20
44.120000000000005
30
0
0
VERTEX
8
0
10
27.8638
20
42.281121875000004
30
0
42
0.8155378645187369
0
VERTEX
8
0
10
27.8638
20
41.538878125000004
30
0
0
VERTEX
8
0
10
27.8638
20
39.7
30
0
0
VERTEX
8
0
10
27.19
20
39.7
30
0
0
VERTEX
8
0
10
27.19
20
38.4
30
0
0
VERTEX
8
0
10
28.69
20
38.4
30
0
0
SEQEND
0
POLYLINE
66
1
8
16_copper
10
0.0
20
0.0
30
0.0
70
1
0
VERTEX
8
0
10
17.83290625
20
25.9749
30
0
42
0.3712077295453098
0
VERTEX
8
0
10
17.896184375
20
26.0516125
30
0
0
VERTEX
8
0
10
17.856871875
20
27.909109375
30
0
0
VERTEX
8
0
10
20.348481250000003
20
30.400718750000003
30
0
42
0.198912367379658
0
VERTEX
8
0
10
20.370800000000003
20
30.454600000000003
30
0
0
VERTEX
8
0
10
20.370800000000003
20
33.65201875
30
0
0
VERTEX
8
0
10
21.64388125
20
34.9251
30
0
42
0.198912367379658
0
VERTEX
8
0
10
21.6662
20
34.978981250000004
30
0
0
VERTEX
8
0
10
21.6662
20
41.298500000000004
30
0
42
0.27415419855218404
0
VERTEX
8
0
10
21.7043
20
41.368162500000004
30
0
0
VERTEX
8
0
10
21.7043
20
42.4518375
30
0
42
0.14431046205070072
0
VERTEX
8
0
10
21.692118750000002
20
42.49316875
30
0
0
VERTEX
8
0
10
21.687246875
20
42.498762500000005
30
0
42
0.07569209161177291
0
VERTEX
8
0
10
21.6662
20
42.5215
30
0
0
VERTEX
8
0
10
21.6662
20
43.1038
30
0
0
VERTEX
8
0
10
26.638437500000002
20
43.1038
30
0
0
VERTEX
8
0
10
27.62369375
20
42.11854375
30
0
42
0.9969257294187597
0
VERTEX
8
0
10
28.2551375
20
41.69943125
30
0
0
VERTEX
8
0
10
28.279925000000002
20
41.742368750000004
30
0
42
0.76488331982605
0
VERTEX
8
0
10
27.73145625
20
42.22630625
30
0
0
VERTEX
8
0
10
26.72388125
20
43.23388125
30
0
42
0.198912367379658
0
VERTEX
8
0
10
26.67
20
43.2562
30
0
0
VERTEX
8
0
10
21.59
20
43.2562
30
0
42
0.41421356237309503
0
VERTEX
8
0
10
21.5138
20
43.18
30
0
0
VERTEX
8
0
10
21.5138
20
42.4899375
30
0
42
0.27415419855218404
0
VERTEX
8
0
10
21.5519
20
42.420275000000004
30
0
0
VERTEX
8
0
10
21.5519
20
41.399725000000004
30
0
42
0.07520538326441663
0
VERTEX
8
0
10
21.531046875
20
41.377159375000005
30
0
0
VERTEX
8
0
10
21.5255125
20
41.370659375
30
0
42
0.14139383237721448
0
VERTEX
8
0
10
21.5138
20
41.330062500000004
30
0
0
VERTEX
8
0
10
21.5138
20
35.010543750000004
30
0
0
VERTEX
8
0
10
20.24071875
20
33.7374625
30
0
42
0.198912367379658
0
VERTEX
8
0
10
20.218400000000003
20
33.68358125
30
0
0
VERTEX
8
0
10
20.218400000000003
20
30.486162500000002
30
0
0
VERTEX
8
0
10
17.72611875
20
27.99388125
30
0
42
0.20441819286501095
0
VERTEX
8
0
10
17.703815625
20
27.9383875
30
0
0
VERTEX
8
0
10
17.743815625
20
26.0483875
30
0
0
VERTEX
8
0
10
17.74738125
20
26.026915625
30
0
0
VERTEX
8
0
10
17.756871875
20
26.007325
30
0
0
VERTEX
8
0
10
17.7715125
20
25.99121875
30
0
0
VERTEX
8
0
10
17.790109375
20
25.979906250000003
30
0
0
VERTEX
8
0
10
17.811146875000002
20
25.974315625000003
30
0
0
SEQEND
0
POLYLINE
66
1
8
1_copper
10
0.0
20
0.0
30
0.0
70
1
0
VERTEX
8
0
10
15.99
20
39.7
30
0
0
VERTEX
8
0
10
15.3162
20
39.7
30
0
0
VERTEX
8
0
10
15.3162
20
41.538878125000004
30
0
42
0.8155378645187369
0
VERTEX
8
0
10
15.3162
20
42.281121875000004
30
0
0
VERTEX
8
0
10
15.3162
20
44.120000000000005
30
0
0
VERTEX
8
0
10
15.99
20
44.120000000000005
30
0
0
VERTEX
8
0
10
15.99
20
45.42
30
0
0
VERTEX
8
0
10
14.49
20
45.42
30
0
0
VERTEX
8
0
10
14.49
20
44.120000000000005
30
0
0
VERTEX
8
0
10
15.1638
20
44.120000000000005
30
0
0
VERTEX
8
0
10
15.1638
20
42.281121875000004
30
0
42
0.8155378645187369
0
VERTEX
8
0
10
15.1638
20
41.538878125000004
30
0
0
VERTEX
8
0
10
15.1638
20
39.7
30
0
0
VERTEX
8
0
10
14.49
20
39.7
30
0
0
VERTEX
8
0
10
14.49
20
38.4
30
0
0
VERTEX
8
0
10
15.99
20
38.4
30
0
0
SEQEND
0
POLYLINE
66
1
8
1_copper
10
0.0
20
0.0
30
0.0
70
1
0
VERTEX
8
0
10
33.129512500000004
20
5.949978125
30
0
42
0.3639697834944294
0
VERTEX
8
0
10
33.858200000000004
20
6.745203125000001
30
0
0
VERTEX
8
0
10
33.858200000000004
20
8.494796875
30
0
42
0.9572914311583669
0
VERTEX
8
0
10
32.1818
20
8.494796875
30
0
0
VERTEX
8
0
10
32.1818
20
6.745203125000001
30
0
0
VERTEX
8
0
10
32.188178125
20
6.6722875
30
0
0
VERTEX
8
0
10
32.200890625
20
6.60020625
30
0
0
VERTEX
8
0
10
32.219834375000005
20
6.529509375
30
0
0
VERTEX
8
0
10
32.244865625
20
6.460728125
30
0
0
VERTEX
8
0
10
32.275800000000004
20
6.39439375
30
0
0
VERTEX
8
0
10
32.312396875000005
20
6.331006250000001
30
0
0
VERTEX
8
0
10
32.354378125000004
20
6.271050000000001
30
0
0
VERTEX
8
0
10
32.401425
20
6.21498125
30
0
0
VERTEX
8
0
10
32.45318125
20
6.163225000000001
30
0
0
VERTEX
8
0
10
32.50925
20
6.116178125
30
0
0
VERTEX
8
0
10
32.56920625
20
6.074196875
30
0
0
VERTEX
8
0
10
32.63259375
20
6.0376
30
0
0
VERTEX
8
0
10
32.698928125
20
6.006665625
30
0
0
VERTEX
8
0
10
32.767709375
20
5.9816343750000005
30
0
0
VERTEX
8
0
10
32.83840625
20
5.9626906250000005
30
0
0
VERTEX
8
0
10
32.9104875
20
5.949978125
30
0
0
VERTEX
8
0
10
32.983403125
20
5.9436
30
0
0
VERTEX
8
0
10
33.056596875000004
20
5.9436
30
0
0
SEQEND
0
POLYLINE
66
1
8
16_copper
10
0.0
20
0.0
30
0.0
70
1
0
VERTEX
8
0
10
33.129512500000004
20
5.949978125
30
0
42
0.3639697834944294
0
VERTEX
8
0
10
33.858200000000004
20
6.745203125000001
30
0
0
VERTEX
8
0
10
33.858200000000004
20
8.494796875
30
0
42
0.9204496356881691
0
VERTEX
8
0
10
32.187525
20
8.560237500000001
30
0
0
VERTEX
8
0
10
31.80388125
20
8.94388125
30
0
42
0.198912367379658
0
VERTEX
8
0
10
31.75
20
8.9662
30
0
0
VERTEX
8
0
10
19.0815625
20
8.9662
30
0
0
VERTEX
8
0
10
16.5862
20
11.461562500000001
30
0
0
VERTEX
8
0
10
16.5862
20
22.86
30
0
42
0.198912367379658
0
VERTEX
8
0
10
16.56388125
20
22.913881250000003
30
0
0
VERTEX
8
0
10
15.3162
20
24.161562500000002
30
0
0
VERTEX
8
0
10
15.3162
20
33.02
30
0
42
0.198912367379658
0
VERTEX
8
0
10
15.29388125
20
33.07388125
30
0
0
VERTEX
8
0
10
15.026696875
20
33.341065625
30
0
42
0.0667446145342042
0
VERTEX
8
0
10
15.014481250000001
20
33.357206250000004
30
0
0
VERTEX
8
0
10
14.43420625
20
33.937481250000005
30
0
42
0.06202674630426105
0
VERTEX
8
0
10
14.418646875
20
33.949115625000005
30
0
0
VERTEX
8
0
10
14.0462
20
34.3215625
30
0
0
VERTEX
8
0
10
14.0462
20
40.6084375
30
0
0
VERTEX
8
0
10
15.031456250000002
20
41.59369375
30
0
42
0.9969257294187597
0
VERTEX
8
0
10
15.45056875
20
42.2251375
30
0
0
VERTEX
8
0
10
15.407631250000001
20
42.249925000000005
30
0
42
0.76488331982605
0
VERTEX
8
0
10
14.92369375
20
41.70145625
30
0
0
VERTEX
8
0
10
13.91611875
20
40.693881250000004
30
0
42
0.198912367379658
0
VERTEX
8
0
10
13.8938
20
40.64
30
0
0
VERTEX
8
0
10
13.8938
20
34.29
30
0
42
0.198912367379658
0
VERTEX
8
0
10
13.91611875
20
34.23611875
30
0
0
VERTEX
8
0
10
14.32251875
20
33.829718750000005
30
0
42
0.06412148602626631
0
VERTEX
8
0
10
14.338078125000001
20
33.818084375000005
30
0
0
VERTEX
8
0
10
14.894503125
20
33.261659375
30
0
42
0.06460800577096912
0
VERTEX
8
0
10
14.906718750000001
20
33.24551875
30
0
0
VERTEX
8
0
10
15.1638
20
32.9884375
30
0
0
VERTEX
8
0
10
15.1638
20
24.130000000000003
30
0
42
0.198912367379658
0
VERTEX
8
0
10
15.18611875
20
24.076118750000003
30
0
0
VERTEX
8
0
10
16.4338
20
22.8284375
30
0
0
VERTEX
8
0
10
16.4338
20
11.43
30
0
42
0.198912367379658
0
VERTEX
8
0
10
16.45611875
20
11.37611875
30
0
0
VERTEX
8
0
10
18.99611875
20
8.83611875
30
0
42
0.198912367379658
0
VERTEX
8
0
10
19.05
20
8.8138
30
0
0
VERTEX
8
0
10
31.7184375
20
8.8138
30
0
0
VERTEX
8
0
10
32.1818
20
8.3504375
30
0
0
VERTEX
8
0
10
32.1818
20
6.745203125000001
30
0
0
VERTEX
8
0
10
32.188178125
20
6.6722875
30
0
0
VERTEX
8
0
10
32.200890625
20
6.60020625
30
0
0
VERTEX
8
0
10
32.219834375000005
20
6.529509375
30
0
0
VERTEX
8
0
10
32.244865625
20
6.460728125
30
0
0
VERTEX
8
0
10
32.275800000000004
20
6.39439375
30
0
0
VERTEX
8
0
10
32.312396875000005
20
6.331006250000001
30
0
0
VERTEX
8
0
10
32.354378125000004
20
6.271050000000001
30
0
0
VERTEX
8
0
10
32.401425
20
6.21498125
30
0
0
VERTEX
8
0
10
32.45318125
20
6.163225000000001
30
0
0
VERTEX
8
0
10
32.50925
20
6.116178125
30
0
0
VERTEX
8
0
10
32.56920625
20
6.074196875
30
0
0
VERTEX
8
0
10
32.63259375
20
6.0376
30
0
0
VERTEX
8
0
10
32.698928125
20
6.006665625
30
0
0
VERTEX
8
0
10
32.767709375
20
5.9816343750000005
30
0
0
VERTEX
8
0
10
32.83840625
20
5.9626906250000005
30
0
0
VERTEX
8
0
10
32.9104875
20
5.949978125
30
0
0
VERTEX
8
0
10
32.983403125
20
5.9436
30
0
0
VERTEX
8
0
10
33.056596875000004
20
5.9436
30
0
0
SEQEND
0
POLYLINE
66
1
8
1_copper
10
0.0
20
0.0
30
0.0
70
1
0
VERTEX
8
0
10
26.150000000000002
20
39.7
30
0
0
VERTEX
8
0
10
25.476200000000002
20
39.7
30
0
0
VERTEX
8
0
10
25.476200000000002
20
41.538878125000004
30
0
42
0.8155378645187369
0
VERTEX
8
0
10
25.476200000000002
20
42.281121875000004
30
0
0
VERTEX
8
0
10
25.476200000000002
20
44.120000000000005
30
0
0
VERTEX
8
0
10
26.150000000000002
20
44.120000000000005
30
0
0
VERTEX
8
0
10
26.150000000000002
20
45.42
30
0
0
VERTEX
8
0
10
24.650000000000002
20
45.42
30
0
0
VERTEX
8
0
10
24.650000000000002
20
44.120000000000005
30
0
0
VERTEX
8
0
10
25.323800000000002
20
44.120000000000005
30
0
0
VERTEX
8
0
10
25.323800000000002
20
42.281121875000004
30
0
42
0.8155378645187369
0
VERTEX
8
0
10
25.323800000000002
20
41.538878125000004
30
0
0
VERTEX
8
0
10
25.323800000000002
20
39.7
30
0
0
VERTEX
8
0
10
24.650000000000002
20
39.7
30
0
0
VERTEX
8
0
10
24.650000000000002
20
38.4
30
0
0
VERTEX
8
0
10
26.150000000000002
20
38.4
30
0
0
SEQEND
0
POLYLINE
66
1
8
16_copper
10
0.0
20
0.0
30
0.0
70
1
0
VERTEX
8
0
10
22.881400000000003
20
11.47465625
30
0
42
0.3712105593145738
0
VERTEX
8
0
10
22.9462
20
11.5500875
30
0
0
VERTEX
8
0
10
22.9362375
20
20.288475000000002
30
0
0
VERTEX
8
0
10
25.453881250000002
20
22.80611875
30
0
42
0.198912367379658
0
VERTEX
8
0
10
25.476200000000002
20
22.86
30
0
0
VERTEX
8
0
10
25.476200000000002
20
34.2584375
30
0
0
VERTEX
8
0
10
26.72388125
20
35.50611875
30
0
42
0.198912367379658
0
VERTEX
8
0
10
26.7462
20
35.56
30
0
0
VERTEX
8
0
10
26.7462
20
40.64
30
0
42
0.198912367379658
0
VERTEX
8
0
10
26.72388125
20
40.693881250000004
30
0
0
VERTEX
8
0
10
25.716306250000002
20
41.70145625
30
0
42
0.9969257294187597
0
VERTEX
8
0
10
25.0848625
20
42.120568750000004
30
0
0
VERTEX
8
0
10
25.060075
20
42.07763125
30
0
42
0.76488331982605
0
VERTEX
8
0
10
25.608543750000003
20
41.59369375
30
0
0
VERTEX
8
0
10
26.5938
20
40.6084375
30
0
0
VERTEX
8
0
10
26.5938
20
35.5915625
30
0
0
VERTEX
8
0
10
25.346118750000002
20
34.34388125
30
0
42
0.198912367379658
0
VERTEX
8
0
10
25.323800000000002
20
34.29
30
0
0
VERTEX
8
0
10
25.323800000000002
20
22.891562500000003
30
0
0
VERTEX
8
0
10
22.80611875
20
20.37388125
30
0
42
0.1992108161766843
0
VERTEX
8
0
10
22.7838
20
20.3199125
30
0
0
VERTEX
8
0
10
22.7938
20
11.549912500000001
30
0
0
VERTEX
8
0
10
22.796934375000003
20
11.528371875000001
30
0
0
VERTEX
8
0
10
22.806028125
20
11.508596875
30
0
0
VERTEX
8
0
10
22.820343750000003
20
11.4922
30
0
0
VERTEX
8
0
10
22.8387125
20
11.48051875
30
0
0
VERTEX
8
0
10
22.859634375000002
20
11.474509375
30
0
0
SEQEND
0
POLYLINE
66
1
8
1_copper
10
0.0
20
0.0
30
0.0
70
1
0
VERTEX
8
0
10
26.150000000000002
20
47.32
30
0
0
VERTEX
8
0
10
24.920515625
20
47.32
30
0
0
VERTEX
8
0
10
21.64678125
20
50.977818750000004
30
0
42
0.9999999999999999
0
VERTEX
8
0
10
21.53321875
20
50.87618125
30
0
0
VERTEX
8
0
10
24.7159875
20
47.32
30
0
0
VERTEX
8
0
10
24.650000000000002
20
47.32
30
0
0
VERTEX
8
0
10
24.650000000000002
20
46.02
30
0
0
VERTEX
8
0
10
26.150000000000002
20
46.02
30
0
0
SEQEND
0
POLYLINE
66
1
8
1_copper
10
0.0
20
0.0
30
0.0
70
1
0
VERTEX
8
0
10
34.83220625
20
9.44880625
30
0
42
0.10894743737159904
0
VERTEX
8
0
10
35.002790625
20
9.487234375
30
0
0
VERTEX
8
0
10
35.02558125
20
9.4978
30
0
42
-0.009564581866616214
0
VERTEX
8
0
10
35.0442375
20
9.506321875000001
30
0
0
VERTEX
8
0
10
35.05253125
20
9.486196875000001
30
0
42
0.8660516381004248
0
VERTEX
8
0
10
35.1919875
20
9.543678125000001
30
0
0
VERTEX
8
0
10
35.175109375000005
20
9.6104375
30
0
0
VERTEX
8
0
10
35.808687500000005
20
9.6104375
30
0
0
VERTEX
8
0
10
36.5506
20
8.868525
30
0
42
0.2658731989893196
0
VERTEX
8
0
10
36.66963125
20
8.475631250000001
30
0
0
VERTEX
8
0
10
37.2618
20
7.8834625
30
0
0
VERTEX
8
0
10
37.2618
20
6.745203125000001
30
0
42
0.9572914311583669
0
VERTEX
8
0
10
38.9382
20
6.745203125000001
30
0
0
VERTEX
8
0
10
38.9382
20
8.494796875
30
0
42
0.7354622975157648
0
VERTEX
8
0
10
37.3899625
20
8.904775
30
0
0
VERTEX
8
0
10
37.3634
20
8.9313375
30
0
42
0.2658731989893196
0
VERTEX
8
0
10
37.24436875
20
9.32423125
30
0
0
VERTEX
8
0
10
36.26439375
20
10.30420625
30
0
42
0.198912367379658
0
VERTEX
8
0
10
35.977025000000005
20
10.4232375
30
0
0
VERTEX
8
0
10
34.9937625
20
10.4232375
30
0
42
0.03111929415441734
0
VERTEX
8
0
10
34.943321875
20
10.420093750000001
30
0
0
VERTEX
8
0
10
34.9203125
20
10.415753125
30
0
42
0.13385227267949257
0
VERTEX
8
0
10
34.870846875000005
20
10.403384375
30
0
0
VERTEX
8
0
10
34.846009375
20
10.395428125
30
0
42
0.14104875178976736
0
VERTEX
8
0
10
34.663787500000005
20
10.2616
30
0
0
VERTEX
8
0
10
29.616400000000002
20
10.2616
30
0
0
VERTEX
8
0
10
29.616400000000002
20
32.893
30
0
42
0.4440977292361327
0
VERTEX
8
0
10
29.169125
20
33.29655625
30
0
0
VERTEX
8
0
10
28.213434375000002
20
36.5
30
0
0
VERTEX
8
0
10
28.69
20
36.5
30
0
0
VERTEX
8
0
10
28.69
20
37.800000000000004
30
0
0
VERTEX
8
0
10
27.19
20
37.800000000000004
30
0
0
VERTEX
8
0
10
27.19
20
37.2262
30
0
0
VERTEX
8
0
10
26.150000000000002
20
37.2262
30
0
0
VERTEX
8
0
10
26.150000000000002
20
37.800000000000004
30
0
0
VERTEX
8
0
10
24.650000000000002
20
37.800000000000004
30
0
0
VERTEX
8
0
10
24.650000000000002
20
37.2262
30
0
0
VERTEX
8
0
10
23.61
20
37.2262
30
0
0
VERTEX
8
0
10
23.61
20
37.800000000000004
30
0
0
VERTEX
8
0
10
22.11
20
37.800000000000004
30
0
0
VERTEX
8
0
10
22.11
20
37.2262
30
0
0
VERTEX
8
0
10
21.07
20
37.2262
30
0
0
VERTEX
8
0
10
21.07
20
37.800000000000004
30
0
0
VERTEX
8
0
10
19.57
20
37.800000000000004
30
0
0
VERTEX
8
0
10
19.57
20
37.2262
30
0
0
VERTEX
8
0
10
18.53
20
37.2262
30
0
0
VERTEX
8
0
10
18.53
20
37.800000000000004
30
0
0
VERTEX
8
0
10
17.03
20
37.800000000000004
30
0
0
VERTEX
8
0
10
17.03
20
37.2262
30
0
0
VERTEX
8
0
10
15.99
20
37.2262
30
0
0
VERTEX
8
0
10
15.99
20
37.800000000000004
30
0
0
VERTEX
8
0
10
14.49
20
37.800000000000004
30
0
0
VERTEX
8
0
10
14.49
20
37.2262
30
0
0
VERTEX
8
0
10
13.450000000000001
20
37.2262
30
0
0
VERTEX
8
0
10
13.450000000000001
20
37.800000000000004
30
0
0
VERTEX
8
0
10
11.950000000000001
20
37.800000000000004
30
0
0
VERTEX
8
0
10
11.950000000000001
20
36.5
30
0
0
VERTEX
8
0
10
13.450000000000001
20
36.5
30
0
0
VERTEX
8
0
10
13.450000000000001
20
37.0738
30
0
0
VERTEX
8
0
10
14.49
20
37.0738
30
0
0
VERTEX
8
0
10
14.49
20
36.5
30
0
0
VERTEX
8
0
10
15.99
20
36.5
30
0
0
VERTEX
8
0
10
15.99
20
37.0738
30
0
0
VERTEX
8
0
10
17.03
20
37.0738
30
0
0
VERTEX
8
0
10
17.03
20
36.5
30
0
0
VERTEX
8
0
10
18.53
20
36.5
30
0
0
VERTEX
8
0
10
18.53
20
37.0738
30
0
0
VERTEX
8
0
10
19.57
20
37.0738
30
0
0
VERTEX
8
0
10
19.57
20
36.5
30
0
0
VERTEX
8
0
10
21.07
20
36.5
30
0
0
VERTEX
8
0
10
21.07
20
37.0738
30
0
0
VERTEX
8
0
10
22.11
20
37.0738
30
0
0
VERTEX
8
0
10
22.11
20
36.5
30
0
0
VERTEX
8
0
10
23.61
20
36.5
30
0
0
VERTEX
8
0
10
23.61
20
37.0738
30
0
0
VERTEX
8
0
10
24.650000000000002
20
37.0738
30
0
0
VERTEX
8
0
10
24.650000000000002
20
36.5
30
0
0
VERTEX
8
0
10
26.150000000000002
20
36.5
30
0
0
VERTEX
8
0
10
26.150000000000002
20
37.0738
30
0
0
VERTEX
8
0
10
27.19
20
37.0738
30
0
0
VERTEX
8
0
10
27.19
20
36.5
30
0
0
VERTEX
8
0
10
28.054396875000002
20
36.5
30
0
0
VERTEX
8
0
10
29.023087500000003
20
33.2529875
30
0
42
0.27996140910125034
0
VERTEX
8
0
10
28.803600000000003
20
32.893
30
0
0
VERTEX
8
0
10
28.803600000000003
20
10.2616
30
0
0
VERTEX
8
0
10
27.1809875
20
10.2616
30
0
42
0.198912367379658
0
VERTEX
8
0
10
26.89361875
20
10.14256875
30
0
0
VERTEX
8
0
10
23.507450000000002
20
6.7564
30
0
0
VERTEX
8
0
10
20.84754375
20
6.7564
30
0
0
VERTEX
8
0
10
20.593543750000002
20
7.010400000000001
30
0
0
VERTEX
8
0
10
20.046456250000002
20
7.010400000000001
30
0
0
VERTEX
8
0
10
19.79245625
20
6.7564
30
0
0
VERTEX
8
0
10
18.30754375
20
6.7564
30
0
0
VERTEX
8
0
10
18.05354375
20
7.010400000000001
30
0
0
VERTEX
8
0
10
17.50645625
20
7.010400000000001
30
0
0
VERTEX
8
0
10
17.25245625
20
6.7564
30
0
0
VERTEX
8
0
10
14.424212500000001
20
6.7564
30
0
42
0.198912367379658
0
VERTEX
8
0
10
14.13684375
20
6.63736875
30
0
0
VERTEX
8
0
10
13.036675
20
5.5372
30
0
0
VERTEX
8
0
10
11.919506250000001
20
5.5372
30
0
0
VERTEX
8
0
10
9.5493375
20
7.907368750000001
30
0
42
0.198912367379658
0
VERTEX
8
0
10
9.261968750000001
20
8.0264
30
0
0
VERTEX
8
0
10
9.0583375
20
8.0264
30
0
0
VERTEX
8
0
10
8.720168750000001
20
8.36456875
30
0
42
0.14190440090785927
0
VERTEX
8
0
10
8.52193125
20
8.4729125
30
0
0
VERTEX
8
0
10
7.965221875
20
9.029621875
30
0
42
0.1421367798208045
0
VERTEX
8
0
10
7.85656875
20
9.22816875
30
0
0
VERTEX
8
0
10
7.112
20
9.972737500000001
30
0
0
VERTEX
8
0
10
7.112
20
10.959434375
30
0
42
0.9520795017710562
0
VERTEX
8
0
10
5.588
20
10.959434375
30
0
0
VERTEX
8
0
10
5.588
20
9.360565625000001
30
0
42
0.7145602227898333
0
VERTEX
8
0
10
6.974378125
20
8.960884375000001
30
0
0
VERTEX
8
0
10
7.173178125000001
20
8.762084375
30
0
42
0.1421367798208045
0
VERTEX
8
0
10
7.281831250000001
20
8.5635375
30
0
0
VERTEX
8
0
10
8.0555375
20
7.789831250000001
30
0
42
0.14190440090785927
0
VERTEX
8
0
10
8.253775000000001
20
7.6814875
30
0
0
VERTEX
8
0
10
8.60263125
20
7.33263125
30
0
42
0.198912367379658
0
VERTEX
8
0
10
8.89
20
7.2136000000000005
30
0
0
VERTEX
8
0
10
9.09363125
20
7.2136000000000005
30
0
0
VERTEX
8
0
10
11.4638
20
4.84343125
30
0
42
0.198912367379658
0
VERTEX
8
0
10
11.75116875
20
4.7244
30
0
0
VERTEX
8
0
10
13.2050125
20
4.7244
30
0
42
0.198912367379658
0
VERTEX
8
0
10
13.492381250000001
20
4.84343125
30
0
0
VERTEX
8
0
10
14.592550000000001
20
5.9436
30
0
0
VERTEX
8
0
10
17.25245625
20
5.9436
30
0
0
VERTEX
8
0
10
17.50645625
20
5.6896
30
0
0
VERTEX
8
0
10
18.05354375
20
5.6896
30
0
0
VERTEX
8
0
10
18.30754375
20
5.9436
30
0
0
VERTEX
8
0
10
19.79245625
20
5.9436
30
0
0
VERTEX
8
0
10
20.046456250000002
20
5.6896
30
0
0
VERTEX
8
0
10
20.593543750000002
20
5.6896
30
0
0
VERTEX
8
0
10
20.84754375
20
5.9436
30
0
0
VERTEX
8
0
10
23.675787500000002
20
5.9436
30
0
42
0.198912367379658
0
VERTEX
8
0
10
23.96315625
20
6.06263125
30
0
0
VERTEX
8
0
10
27.349325
20
9.4488
30
0
0
VERTEX
8
0
10
34.832125000000005
20
9.4488
30
0
0
SEQEND
0
POLYLINE
66
1
8
1_copper
10
0.0
20
0.0
30
0.0
70
1
0
VERTEX
8
0
10
3.6195000000000004
20
3.362859375
30
0
0
VERTEX
8
0
10
3.6195000000000004
20
4.257140625
30
0
0
VERTEX
8
0
10
2.9871406250000003
20
4.8895
30
0
0
VERTEX
8
0
10
2.092859375
20
4.8895
30
0
0
VERTEX
8
0
10
1.4605000000000001
20
4.257140625
30
0
0
VERTEX
8
0
10
1.4605000000000001
20
3.362859375
30
0
0
VERTEX
8
0
10
2.092859375
20
2.7305
30
0
0
VERTEX
8
0
10
2.9871406250000003
20
2.7305
30
0
0
SEQEND
0
POLYLINE
66
1
8
16_copper
10
0.0
20
0.0
30
0.0
70
1
0
VERTEX
8
0
10
6.4619437500000005
20
8.643337500000001
30
0
42
0.3578057741447831
0
VERTEX
8
0
10
7.112
20
9.360565625000001
30
0
0
VERTEX
8
0
10
7.112
20
10.959434375
30
0
42
0.9520795017710562
0
VERTEX
8
0
10
5.588
20
10.959434375
30
0
0
VERTEX
8
0
10
5.588
20
9.360565625000001
30
0
0
VERTEX
8
0
10
5.5953375
20
9.28605625
30
0
0
VERTEX
8
0
10
5.60994375
20
9.212625000000001
30
0
0
VERTEX
8
0
10
5.6316781250000005
20
9.140981250000001
30
0
0
VERTEX
8
0
10
5.660328125
20
9.071809375
30
0
0
VERTEX
8
0
10
5.6956218750000005
20
9.00578125
30
0
0
VERTEX
8
0
10
5.73721875
20
8.943531250000001
30
0
0
VERTEX
8
0
10
5.7847156250000005
20
8.88565625
30
0
0
VERTEX
8
0
10
5.83765625
20
8.832715625
30
0
0
VERTEX
8
0
10
5.89553125
20
8.78521875
30
0
0
VERTEX
8
0
10
5.95778125
20
8.743621875
30
0
0
VERTEX
8
0
10
6.023809375
20
8.708328125
30
0
0
VERTEX
8
0
10
6.09298125
20
8.679678125
30
0
0
VERTEX
8
0
10
6.164625
20
8.657943750000001
30
0
0
VERTEX
8
0
10
6.2380562500000005
20
8.643337500000001
30
0
0
VERTEX
8
0
10
6.312565625
20
8.636000000000001
30
0
0
VERTEX
8
0
10
6.387434375000001
20
8.636000000000001
30
0
0
SEQEND
0
POLYLINE
66
1
8
16_copper
10
0.0
20
0.0
30
0.0
70
1
0
VERTEX
8
0
10
38.2095125
20
5.949978125
30
0
42
0.3639697834944294
0
VERTEX
8
0
10
38.9382
20
6.745203125000001
30
0
0
VERTEX
8
0
10
38.9382
20
8.494796875
30
0
42
0.9572914311583669
0
VERTEX
8
0
10
37.2618
20
8.494796875
30
0
0
VERTEX
8
0
10
37.2618
20
6.745203125000001
30
0
0
VERTEX
8
0
10
37.268178125
20
6.6722875
30
0
0
VERTEX
8
0
10
37.280890625000005
20
6.60020625
30
0
0
VERTEX
8
0
10
37.299834375
20
6.529509375
30
0
0
VERTEX
8
0
10
37.324865625
20
6.460728125
30
0
0
VERTEX
8
0
10
37.3558
20
6.39439375
30
0
0
VERTEX
8
0
10
37.392396875
20
6.331006250000001
30
0
0
VERTEX
8
0
10
37.434378125
20
6.271050000000001
30
0
0
VERTEX
8
0
10
37.481425
20
6.21498125
30
0
0
VERTEX
8
0
10
37.53318125
20
6.163225000000001
30
0
0
VERTEX
8
0
10
37.58925
20
6.116178125
30
0
0
VERTEX
8
0
10
37.64920625
20
6.074196875
30
0
0
VERTEX
8
0
10
37.71259375
20
6.0376
30
0
0
VERTEX
8
0
10
37.778928125
20
6.006665625
30
0
0
VERTEX
8
0
10
37.847709375
20
5.9816343750000005
30
0
0
VERTEX
8
0
10
37.918406250000004
20
5.9626906250000005
30
0
0
VERTEX
8
0
10
37.9904875
20
5.949978125
30
0
0
VERTEX
8
0
10
38.063403125
20
5.9436
30
0
0
VERTEX
8
0
10
38.136596875
20
5.9436
30
0
0
SEQEND
0
POLYLINE
66
1
8
16_copper
10
0.0
20
0.0
30
0.0
70
1
0
VERTEX
8
0
10
3.6195000000000004
20
3.362859375
30
0
0
VERTEX
8
0
10
3.6195000000000004
20
4.257140625
30
0
0
VERTEX
8
0
10
2.9871406250000003
20
4.8895
30
0
0
VERTEX
8
0
10
2.9464
20
4.8895
30
0
0
VERTEX
8
0
10
2.9464
20
7.2136000000000005
30
0
0
VERTEX
8
0
10
8.89
20
7.2136000000000005
30
0
42
0.9999999999999999
0
VERTEX
8
0
10
8.89
20
8.0264
30
0
0
VERTEX
8
0
10
2.54
20
8.0264
30
0
42
0.41421356237309503
0
VERTEX
8
0
10
2.1336
20
7.62
30
0
0
VERTEX
8
0
10
2.1336
20
4.8895
30
0
0
VERTEX
8
0
10
2.092859375
20
4.8895
30
0
0
VERTEX
8
0
10
1.4605000000000001
20
4.257140625
30
0
0
VERTEX
8
0
10
1.4605000000000001
20
3.362859375
30
0
0
VERTEX
8
0
10
2.092859375
20
2.7305
30
0
0
VERTEX
8
0
10
2.9871406250000003
20
2.7305
30
0
0
SEQEND
0
POLYLINE
66
1
8
16_copper
10
0.0
20
0.0
30
0.0
70
1
0
VERTEX
8
0
10
20.9804
20
6.076456250000001
30
0
0
VERTEX
8
0
10
20.9804
20
6.6235437500000005
30
0
0
VERTEX
8
0
10
20.593543750000002
20
7.010400000000001
30
0
0
VERTEX
8
0
10
20.046456250000002
20
7.010400000000001
30
0
0
VERTEX
8
0
10
19.6596
20
6.6235437500000005
30
0
0
VERTEX
8
0
10
19.6596
20
6.076456250000001
30
0
0
VERTEX
8
0
10
20.046456250000002
20
5.6896
30
0
0
VERTEX
8
0
10
20.593543750000002
20
5.6896
30
0
0
SEQEND
0
POLYLINE
66
1
8
16_copper
10
0.0
20
0.0
30
0.0
70
1
0
VERTEX
8
0
10
18.4404
20
6.076456250000001
30
0
0
VERTEX
8
0
10
18.4404
20
6.6235437500000005
30
0
0
VERTEX
8
0
10
18.05354375
20
7.010400000000001
30
0
0
VERTEX
8
0
10
17.50645625
20
7.010400000000001
30
0
0
VERTEX
8
0
10
17.119600000000002
20
6.6235437500000005
30
0
0
VERTEX
8
0
10
17.119600000000002
20
6.076456250000001
30
0
0
VERTEX
8
0
10
17.50645625
20
5.6896
30
0
0
VERTEX
8
0
10
18.05354375
20
5.6896
30
0
0
SEQEND
0
CIRCLE
8
drills_NPTH
10
6.3500000000000005
20
25.146
30
0
40
1.651
0
CIRCLE
8
drills_NPTH
10
35.56
20
25.146
30
0
40
1.651
0
CIRCLE
8
drills_PTH
10
26.02
20
19.05
30
0
40
0.9
0
CIRCLE
8
drills_PTH
10
14.620000000000001
20
19.05
30
0
40
0.9
0
CIRCLE
8
drills_PTH
10
20.32
20
41.910000000000004
30
0
40
0.6604
0
CIRCLE
8
drills_PTH
10
6.3500000000000005
20
53.34
30
0
40
0.6604
0
CIRCLE
8
drills_PTH
10
17.78
20
41.910000000000004
30
0
40
0.6604
0
CIRCLE
8
drills_PTH
10
10.16
20
53.34
30
0
40
0.6604
0
CIRCLE
8
drills_PTH
10
39.370000000000005
20
3.81
30
0
40
0.6604
0
CIRCLE
8
drills_PTH
10
21.59
20
3.81
30
0
40
0.6604
0
CIRCLE
8
drills_PTH
10
13.97
20
53.34
30
0
40
0.6604
0
CIRCLE
8
drills_PTH
10
12.700000000000001
20
41.910000000000004
30
0
40
0.6604
0
CIRCLE
8
drills_PTH
10
6.3500000000000005
20
3.81
30
0
40
0.6604
0
CIRCLE
8
drills_PTH
10
2.54
20
3.81
30
0
40
0.6604
0
CIRCLE
8
drills_PTH
10
35.56
20
3.81
30
0
40
0.5588000000000001
0
CIRCLE
8
drills_PTH
10
38.1
20
7.62
30
0
40
0.5588000000000001
0
CIRCLE
8
drills_PTH
10
35.56
20
7.62
30
0
40
0.5588000000000001
0
CIRCLE
8
drills_PTH
10
33.02
20
7.62
30
0
40
0.5588000000000001
0
CIRCLE
8
drills_PTH
10
25.400000000000002
20
3.81
30
0
40
0.5588000000000001
0
CIRCLE
8
drills_PTH
10
8.89
20
10.16
30
0
40
0.508
0
CIRCLE
8
drills_PTH
10
11.43
20
33.147
30
0
40
0.508
0
CIRCLE
8
drills_PTH
10
13.97
20
32.893
30
0
40
0.508
0
CIRCLE
8
drills_PTH
10
16.51
20
33.147
30
0
40
0.508
0
CIRCLE
8
drills_PTH
10
19.05
20
32.893
30
0
40
0.508
0
CIRCLE
8
drills_PTH
10
21.59
20
33.147
30
0
40
0.508
0
CIRCLE
8
drills_PTH
10
24.130000000000003
20
32.893
30
0
40
0.508
0
CIRCLE
8
drills_PTH
10
26.67
20
33.147
30
0
40
0.508
0
CIRCLE
8
drills_PTH
10
29.21
20
32.893
30
0
40
0.508
0
CIRCLE
8
drills_PTH
10
29.21
20
50.673
30
0
40
0.508
0
CIRCLE
8
drills_PTH
10
26.67
20
50.927
30
0
40
0.508
0
CIRCLE
8
drills_PTH
10
24.130000000000003
20
50.673
30
0
40
0.508
0
CIRCLE
8
drills_PTH
10
21.59
20
50.927
30
0
40
0.508
0
CIRCLE
8
drills_PTH
10
19.05
20
50.673
30
0
40
0.508
0
CIRCLE
8
drills_PTH
10
16.51
20
50.927
30
0
40
0.508
0
CIRCLE
8
drills_PTH
10
13.97
20
50.673
30
0
40
0.508
0
CIRCLE
8
drills_PTH
10
11.43
20
50.927
30
0
40
0.508
0
CIRCLE
8
drills_PTH
10
3.81
20
10.16
30
0
40
0.508
0
CIRCLE
8
drills_PTH
10
6.3500000000000005
20
10.16
30
0
40
0.508
0
CIRCLE
8
drills_PTH
10
22.87
20
11.55
30
0
40
0.5
0
CIRCLE
8
drills_PTH
10
17.82
20
11.55
30
0
40
0.5
0
CIRCLE
8
drills_PTH
10
20.32
20
11.55
30
0
40
0.5
0
CIRCLE
8
drills_PTH
10
22.82
20
26.05
30
0
40
0.5
0
CIRCLE
8
drills_PTH
10
17.82
20
26.05
30
0
40
0.5
0
CIRCLE
8
drills_PTH
10
17.78
20
6.3500000000000005
30
0
40
0.40640000000000004
0
CIRCLE
8
drills_PTH
10
12.700000000000001
20
6.3500000000000005
30
0
40
0.40640000000000004
0
CIRCLE
8
drills_PTH
10
20.32
20
6.3500000000000005
30
0
40
0.40640000000000004
0
CIRCLE
8
drills_PTH
10
25.400000000000002
20
6.3500000000000005
30
0
40
0.40640000000000004
0
CIRCLE
8
drills_via_1_16
10
19.05
20
48.260000000000005
30
0
40
0.17500000000000002
0
CIRCLE
8
drills_via_1_16
10
12.700000000000001
20
48.260000000000005
30
0
40
0.17500000000000002
0
CIRCLE
8
drills_via_1_16
10
16.51
20
35.56
30
0
40
0.17500000000000002
0
CIRCLE
8
drills_via_1_16
10
10.16
20
48.260000000000005
30
0
40
0.17500000000000002
0
CIRCLE
8
drills_via_1_16
10
17.78
20
49.53
30
0
40
0.17500000000000002
0
CIRCLE
8
drills_via_1_16
10
22.86
20
41.910000000000004
30
0
40
0.17500000000000002
0
CIRCLE
8
drills_via_1_16
10
27.94
20
41.910000000000004
30
0
40
0.17500000000000002
0
CIRCLE
8
drills_via_1_16
10
15.24
20
41.910000000000004
30
0
40
0.17500000000000002
0
CIRCLE
8
drills_via_1_16
10
25.400000000000002
20
41.910000000000004
30
0
40
0.17500000000000002
0
CIRCLE
8
drills_via_1_16
10
8.89
20
7.62
30
0
40
0.17500000000000002
0
ENDSEC
0
EOF