0
SECTION
2
HEADER
9
$ANGDIR
70
1
9
$AUNITS
70
0
9
$PROJECTNAME
1
CremeDeLaBoard
9
$TDCREATE
40
2458912.79574914
9
$INSUNITS
70
4
0
ENDSEC
0
SECTION
2
ENTITIES
0
POLYLINE
66
1
8
outline
10
0.0
20
0.0
30
0.0
70
1
0
VERTEX
8
0
10
0
20
0
30
0
0
VERTEX
8
0
10
41.580000000000005
20
0
30
0
0
VERTEX
8
0
10
41.580000000000005
20
57.14
30
0
0
VERTEX
8
0
10
0
20
57.14
30
0
0
VERTEX
8
0
10
0
20
0
30
0
0
SEQEND
0
POLYLINE
66
1
8
holes
10
0.0
20
0.0
30
0.0
70
1
0
VERTEX
8
0
10
13.72
20
17.75
30
0
0
VERTEX
8
0
10
15.520000000000001
20
17.75
30
0
0
VERTEX
8
0
10
15.520000000000001
20
20.35
30
0
0
VERTEX
8
0
10
13.72
20
20.35
30
0
0
VERTEX
8
0
10
13.72
20
17.75
30
0
0
SEQEND
0
POLYLINE
66
1
8
holes
10
0.0
20
0.0
30
0.0
70
1
0
VERTEX
8
0
10
25.12
20
17.75
30
0
0
VERTEX
8
0
10
26.92
20
17.75
30
0
0
VERTEX
8
0
10
26.92
20
20.35
30
0
0
VERTEX
8
0
10
25.12
20
20.35
30
0
0
VERTEX
8
0
10
25.12
20
17.75
30
0
0
SEQEND
0
POLYLINE
66
1
8
holes
10
0.0
20
0.0
30
0.0
70
1
0
VERTEX
8
0
10
5.5600000000000005
20
31.692709375000003
30
0
0
VERTEX
8
0
10
5.55250625
20
31.578378125
30
0
0
VERTEX
8
0
10
5.53755
20
31.46478125
30
0
0
VERTEX
8
0
10
5.515196875
20
31.352403125000002
30
0
0
VERTEX
8
0
10
5.485543750000001
20
31.241728125
30
0
0
VERTEX
8
0
10
5.4487125
20
31.13323125
30
0
0
VERTEX
8
0
10
5.404865625
20
31.027375000000003
30
0
0
VERTEX
8
0
10
5.3541875
20
30.924612500000002
30
0
0
VERTEX
8
0
10
5.2969
20
30.8253875
30
0
0
VERTEX
8
0
10
5.233243750000001
20
30.730118750000003
30
0
0
VERTEX
8
0
10
5.163493750000001
20
30.639215625000002
30
0
0
VERTEX
8
0
10
5.087946875
20
30.553071875
30
0
0
VERTEX
8
0
10
5.006928125
20
30.472053125000002
30
0
0
VERTEX
8
0
10
4.920784375
20
30.39650625
30
0
0
VERTEX
8
0
10
4.829881250000001
20
30.326756250000003
30
0
0
VERTEX
8
0
10
4.7346125
20
30.2631
30
0
0
VERTEX
8
0
10
4.6353875
20
30.2058125
30
0
0
VERTEX
8
0
10
4.532625
20
30.155134375000003
30
0
0
VERTEX
8
0
10
4.42676875
20
30.111287500000003
30
0
0
VERTEX
8
0
10
4.318271875000001
20
30.07445625
30
0
0
VERTEX
8
0
10
4.207596875
20
30.044803125
30
0
0
VERTEX
8
0
10
4.09521875
20
30.022450000000003
30
0
0
VERTEX
8
0
10
3.981621875
20
30.007493750000002
30
0
0
VERTEX
8
0
10
3.8672906250000003
20
30
30
0
0
VERTEX
8
0
10
3.7527093750000002
20
30
30
0
0
VERTEX
8
0
10
3.638378125
20
30.007493750000002
30
0
0
VERTEX
8
0
10
3.52478125
20
30.022450000000003
30
0
0
VERTEX
8
0
10
3.412403125
20
30.044803125
30
0
0
VERTEX
8
0
10
3.3017281250000003
20
30.07445625
30
0
0
VERTEX
8
0
10
3.19323125
20
30.111287500000003
30
0
0
VERTEX
8
0
10
3.087375
20
30.155134375000003
30
0
0
VERTEX
8
0
10
2.9846125000000003
20
30.2058125
30
0
0
VERTEX
8
0
10
2.8853875
20
30.2631
30
0
0
VERTEX
8
0
10
2.79011875
20
30.326756250000003
30
0
0
VERTEX
8
0
10
2.6992156250000003
20
30.39650625
30
0
0
VERTEX
8
0
10
2.613071875
20
30.472053125000002
30
0
0
VERTEX
8
0
10
2.532053125
20
30.553071875
30
0
0
VERTEX
8
0
10
2.4565062500000003
20
30.639215625000002
30
0
0
VERTEX
8
0
10
2.38675625
20
30.730118750000003
30
0
0
VERTEX
8
0
10
2.3231
20
30.8253875
30
0
0
VERTEX
8
0
10
2.2658125
20
30.924612500000002
30
0
0
VERTEX
8
0
10
2.2151343750000003
20
31.027375000000003
30
0
0
VERTEX
8
0
10
2.1712875
20
31.13323125
30
0
0
VERTEX
8
0
10
2.13445625
20
31.241728125
30
0
0
VERTEX
8
0
10
2.104803125
20
31.352403125000002
30
0
0
VERTEX
8
0
10
2.08245
20
31.46478125
30
0
0
VERTEX
8
0
10
2.06749375
20
31.578378125
30
0
0
VERTEX
8
0
10
2.06
20
31.692709375000003
30
0
0
VERTEX
8
0
10
2.06
20
31.807290625
30
0
0
VERTEX
8
0
10
2.06749375
20
31.921621875000003
30
0
0
VERTEX
8
0
10
2.08245
20
32.03521875
30
0
0
VERTEX
8
0
10
2.104803125
20
32.147596875000005
30
0
0
VERTEX
8
0
10
2.13445625
20
32.258271875
30
0
0
VERTEX
8
0
10
2.1712875
20
32.36676875
30
0
0
VERTEX
8
0
10
2.2151343750000003
20
32.472625
30
0
0
VERTEX
8
0
10
2.2658125
20
32.575387500000005
30
0
0
VERTEX
8
0
10
2.3231
20
32.6746125
30
0
0
VERTEX
8
0
10
2.38675625
20
32.769881250000005
30
0
0
VERTEX
8
0
10
2.4565062500000003
20
32.860784375
30
0
0
VERTEX
8
0
10
2.532053125
20
32.946928125
30
0
0
VERTEX
8
0
10
2.613071875
20
33.027946875000005
30
0
0
VERTEX
8
0
10
2.6992156250000003
20
33.10349375
30
0
0
VERTEX
8
0
10
2.79011875
20
33.173243750000005
30
0
0
VERTEX
8
0
10
2.8853875
20
33.2369
30
0
0
VERTEX
8
0
10
2.9846125000000003
20
33.2941875
30
0
0
VERTEX
8
0
10
3.087375
20
33.344865625000004
30
0
0
VERTEX
8
0
10
3.19323125
20
33.388712500000004
30
0
0
VERTEX
8
0
10
3.3017281250000003
20
33.42554375
30
0
0
VERTEX
8
0
10
3.412403125
20
33.455196875
30
0
0
VERTEX
8
0
10
3.52478125
20
33.47755
30
0
0
VERTEX
8
0
10
3.638378125
20
33.49250625
30
0
0
VERTEX
8
0
10
3.7527093750000002
20
33.5
30
0
0
VERTEX
8
0
10
3.8672906250000003
20
33.5
30
0
0
VERTEX
8
0
10
3.981621875
20
33.49250625
30
0
0
VERTEX
8
0
10
4.09521875
20
33.47755
30
0
0
VERTEX
8
0
10
4.207596875
20
33.455196875
30
0
0
VERTEX
8
0
10
4.318271875000001
20
33.42554375
30
0
0
VERTEX
8
0
10
4.42676875
20
33.388712500000004
30
0
0
VERTEX
8
0
10
4.532625
20
33.344865625000004
30
0
0
VERTEX
8
0
10
4.6353875
20
33.2941875
30
0
0
VERTEX
8
0
10
4.7346125
20
33.2369
30
0
0
VERTEX
8
0
10
4.829881250000001
20
33.173243750000005
30
0
0
VERTEX
8
0
10
4.920784375
20
33.10349375
30
0
0
VERTEX
8
0
10
5.006928125
20
33.027946875000005
30
0
0
VERTEX
8
0
10
5.087946875
20
32.946928125
30
0
0
VERTEX
8
0
10
5.163493750000001
20
32.860784375
30
0
0
VERTEX
8
0
10
5.233243750000001
20
32.769881250000005
30
0
0
VERTEX
8
0
10
5.2969
20
32.6746125
30
0
0
VERTEX
8
0
10
5.3541875
20
32.575387500000005
30
0
0
VERTEX
8
0
10
5.404865625
20
32.472625
30
0
0
VERTEX
8
0
10
5.4487125
20
32.36676875
30
0
0
VERTEX
8
0
10
5.485543750000001
20
32.258271875
30
0
0
VERTEX
8
0
10
5.515196875
20
32.147596875000005
30
0
0
VERTEX
8
0
10
5.53755
20
32.03521875
30
0
0
VERTEX
8
0
10
5.55250625
20
31.921621875000003
30
0
0
VERTEX
8
0
10
5.5600000000000005
20
31.807290625
30
0
0
VERTEX
8
0
10
5.5600000000000005
20
31.692709375000003
30
0
0
SEQEND
0
POLYLINE
66
1
8
holes
10
0.0
20
0.0
30
0.0
70
1
0
VERTEX
8
0
10
38.580000000000005
20
31.692709375000003
30
0
0
VERTEX
8
0
10
38.57250625
20
31.578378125
30
0
0
VERTEX
8
0
10
38.55755
20
31.46478125
30
0
0
VERTEX
8
0
10
38.535196875000004
20
31.352403125000002
30
0
0
VERTEX
8
0
10
38.50554375
20
31.241728125
30
0
0
VERTEX
8
0
10
38.4687125
20
31.13323125
30
0
0
VERTEX
8
0
10
38.424865625
20
31.027375000000003
30
0
0
VERTEX
8
0
10
38.374187500000005
20
30.924612500000002
30
0
0
VERTEX
8
0
10
38.316900000000004
20
30.8253875
30
0
0
VERTEX
8
0
10
38.25324375
20
30.730118750000003
30
0
0
VERTEX
8
0
10
38.183493750000004
20
30.639215625000002
30
0
0
VERTEX
8
0
10
38.107946875
20
30.553071875
30
0
0
VERTEX
8
0
10
38.026928125000005
20
30.472053125000002
30
0
0
VERTEX
8
0
10
37.940784375
20
30.39650625
30
0
0
VERTEX
8
0
10
37.84988125
20
30.326756250000003
30
0
0
VERTEX
8
0
10
37.7546125
20
30.2631
30
0
0
VERTEX
8
0
10
37.6553875
20
30.2058125
30
0
0
VERTEX
8
0
10
37.552625
20
30.155134375000003
30
0
0
VERTEX
8
0
10
37.446768750000004
20
30.111287500000003
30
0
0
VERTEX
8
0
10
37.338271875000004
20
30.07445625
30
0
0
VERTEX
8
0
10
37.227596875
20
30.044803125
30
0
0
VERTEX
8
0
10
37.115218750000004
20
30.022450000000003
30
0
0
VERTEX
8
0
10
37.001621875000005
20
30.007493750000002
30
0
0
VERTEX
8
0
10
36.887290625
20
30
30
0
0
VERTEX
8
0
10
36.772709375000005
20
30
30
0
0
VERTEX
8
0
10
36.658378125
20
30.007493750000002
30
0
0
VERTEX
8
0
10
36.54478125
20
30.022450000000003
30
0
0
VERTEX
8
0
10
36.432403125
20
30.044803125
30
0
0
VERTEX
8
0
10
36.321728125
20
30.07445625
30
0
0
VERTEX
8
0
10
36.21323125
20
30.111287500000003
30
0
0
VERTEX
8
0
10
36.107375000000005
20
30.155134375000003
30
0
0
VERTEX
8
0
10
36.0046125
20
30.2058125
30
0
0
VERTEX
8
0
10
35.9053875
20
30.2631
30
0
0
VERTEX
8
0
10
35.81011875
20
30.326756250000003
30
0
0
VERTEX
8
0
10
35.719215625000004
20
30.39650625
30
0
0
VERTEX
8
0
10
35.633071875
20
30.472053125000002
30
0
0
VERTEX
8
0
10
35.552053125
20
30.553071875
30
0
0
VERTEX
8
0
10
35.47650625
20
30.639215625000002
30
0
0
VERTEX
8
0
10
35.40675625
20
30.730118750000003
30
0
0
VERTEX
8
0
10
35.3431
20
30.8253875
30
0
0
VERTEX
8
0
10
35.2858125
20
30.924612500000002
30
0
0
VERTEX
8
0
10
35.235134375
20
31.027375000000003
30
0
0
VERTEX
8
0
10
35.1912875
20
31.13323125
30
0
0
VERTEX
8
0
10
35.15445625
20
31.241728125
30
0
0
VERTEX
8
0
10
35.124803125
20
31.352403125000002
30
0
0
VERTEX
8
0
10
35.102450000000005
20
31.46478125
30
0
0
VERTEX
8
0
10
35.08749375
20
31.578378125
30
0
0
VERTEX
8
0
10
35.08
20
31.692709375000003
30
0
0
VERTEX
8
0
10
35.08
20
31.807290625
30
0
0
VERTEX
8
0
10
35.08749375
20
31.921621875000003
30
0
0
VERTEX
8
0
10
35.102450000000005
20
32.03521875
30
0
0
VERTEX
8
0
10
35.124803125
20
32.147596875000005
30
0
0
VERTEX
8
0
10
35.15445625
20
32.258271875
30
0
0
VERTEX
8
0
10
35.1912875
20
32.36676875
30
0
0
VERTEX
8
0
10
35.235134375
20
32.472625
30
0
0
VERTEX
8
0
10
35.2858125
20
32.575387500000005
30
0
0
VERTEX
8
0
10
35.3431
20
32.6746125
30
0
0
VERTEX
8
0
10
35.40675625
20
32.769881250000005
30
0
0
VERTEX
8
0
10
35.47650625
20
32.860784375
30
0
0
VERTEX
8
0
10
35.552053125
20
32.946928125
30
0
0
VERTEX
8
0
10
35.633071875
20
33.027946875000005
30
0
0
VERTEX
8
0
10
35.719215625000004
20
33.10349375
30
0
0
VERTEX
8
0
10
35.81011875
20
33.173243750000005
30
0
0
VERTEX
8
0
10
35.9053875
20
33.2369
30
0
0
VERTEX
8
0
10
36.0046125
20
33.2941875
30
0
0
VERTEX
8
0
10
36.107375000000005
20
33.344865625000004
30
0
0
VERTEX
8
0
10
36.21323125
20
33.388712500000004
30
0
0
VERTEX
8
0
10
36.321728125
20
33.42554375
30
0
0
VERTEX
8
0
10
36.432403125
20
33.455196875
30
0
0
VERTEX
8
0
10
36.54478125
20
33.47755
30
0
0
VERTEX
8
0
10
36.658378125
20
33.49250625
30
0
0
VERTEX
8
0
10
36.772709375000005
20
33.5
30
0
0
VERTEX
8
0
10
36.887290625
20
33.5
30
0
0
VERTEX
8
0
10
37.001621875000005
20
33.49250625
30
0
0
VERTEX
8
0
10
37.115218750000004
20
33.47755
30
0
0
VERTEX
8
0
10
37.227596875
20
33.455196875
30
0
0
VERTEX
8
0
10
37.338271875000004
20
33.42554375
30
0
0
VERTEX
8
0
10
37.446768750000004
20
33.388712500000004
30
0
0
VERTEX
8
0
10
37.552625
20
33.344865625000004
30
0
0
VERTEX
8
0
10
37.6553875
20
33.2941875
30
0
0
VERTEX
8
0
10
37.7546125
20
33.2369
30
0
0
VERTEX
8
0
10
37.84988125
20
33.173243750000005
30
0
0
VERTEX
8
0
10
37.940784375
20
33.10349375
30
0
0
VERTEX
8
0
10
38.026928125000005
20
33.027946875000005
30
0
0
VERTEX
8
0
10
38.107946875
20
32.946928125
30
0
0
VERTEX
8
0
10
38.183493750000004
20
32.860784375
30
0
0
VERTEX
8
0
10
38.25324375
20
32.769881250000005
30
0
0
VERTEX
8
0
10
38.316900000000004
20
32.6746125
30
0
0
VERTEX
8
0
10
38.374187500000005
20
32.575387500000005
30
0
0
VERTEX
8
0
10
38.424865625
20
32.472625
30
0
0
VERTEX
8
0
10
38.4687125
20
32.36676875
30
0
0
VERTEX
8
0
10
38.50554375
20
32.258271875
30
0
0
VERTEX
8
0
10
38.535196875000004
20
32.147596875000005
30
0
0
VERTEX
8
0
10
38.55755
20
32.03521875
30
0
0
VERTEX
8
0
10
38.57250625
20
31.921621875000003
30
0
0
VERTEX
8
0
10
38.580000000000005
20
31.807290625
30
0
0
VERTEX
8
0
10
38.580000000000005
20
31.692709375000003
30
0
0
SEQEND
0
POLYLINE
66
1
8
holes
10
0.0
20
0.0
30
0.0
70
1
0
VERTEX
8
0
10
8.001000000000001
20
25.091953125
30
0
0
VERTEX
8
0
10
7.99393125
20
24.9840875
30
0
0
VERTEX
8
0
10
7.979821875000001
20
24.876915625000002
30
0
0
VERTEX
8
0
10
7.9587312500000005
20
24.770896875000002
30
0
0
VERTEX
8
0
10
7.93075625
20
24.666484375
30
0
0
VERTEX
8
0
10
7.896009375
20
24.564125
30
0
0
VERTEX
8
0
10
7.854640625
20
24.464256250000002
30
0
0
VERTEX
8
0
10
7.80683125
20
24.367306250000002
30
0
0
VERTEX
8
0
10
7.752784375
20
24.27369375
30
0
0
VERTEX
8
0
10
7.692728125
20
24.183815625
30
0
0
VERTEX
8
0
10
7.626925
20
24.098056250000003
30
0
0
VERTEX
8
0
10
7.55565
20
24.016784375
30
0
0
VERTEX
8
0
10
7.479215625
20
23.940350000000002
30
0
0
VERTEX
8
0
10
7.3979437500000005
20
23.869075000000002
30
0
0
VERTEX
8
0
10
7.312184375
20
23.803271875
30
0
0
VERTEX
8
0
10
7.22230625
20
23.743215625
30
0
0
VERTEX
8
0
10
7.12869375
20
23.68916875
30
0
0
VERTEX
8
0
10
7.03174375
20
23.641359375
30
0
0
VERTEX
8
0
10
6.931875000000001
20
23.599990625
30
0
0
VERTEX
8
0
10
6.829515625
20
23.56524375
30
0
0
VERTEX
8
0
10
6.725103125
20
23.537268750000003
30
0
0
VERTEX
8
0
10
6.619084375
20
23.516178125
30
0
0
VERTEX
8
0
10
6.5119125
20
23.50206875
30
0
0
VERTEX
8
0
10
6.404046875000001
20
23.495
30
0
0
VERTEX
8
0
10
6.2959531250000005
20
23.495
30
0
0
VERTEX
8
0
10
6.1880875
20
23.50206875
30
0
0
VERTEX
8
0
10
6.080915625
20
23.516178125
30
0
0
VERTEX
8
0
10
5.974896875000001
20
23.537268750000003
30
0
0
VERTEX
8
0
10
5.870484375
20
23.56524375
30
0
0
VERTEX
8
0
10
5.768125
20
23.599990625
30
0
0
VERTEX
8
0
10
5.668256250000001
20
23.641359375
30
0
0
VERTEX
8
0
10
5.57130625
20
23.68916875
30
0
0
VERTEX
8
0
10
5.47769375
20
23.743215625
30
0
0
VERTEX
8
0
10
5.387815625
20
23.803271875
30
0
0
VERTEX
8
0
10
5.302056250000001
20
23.869075000000002
30
0
0
VERTEX
8
0
10
5.220784375
20
23.940350000000002
30
0
0
VERTEX
8
0
10
5.14435
20
24.016784375
30
0
0
VERTEX
8
0
10
5.073075
20
24.098056250000003
30
0
0
VERTEX
8
0
10
5.007271875
20
24.183815625
30
0
0
VERTEX
8
0
10
4.947215625
20
24.27369375
30
0
0
VERTEX
8
0
10
4.89316875
20
24.367306250000002
30
0
0
VERTEX
8
0
10
4.845359375
20
24.464256250000002
30
0
0
VERTEX
8
0
10
4.803990625
20
24.564125
30
0
0
VERTEX
8
0
10
4.76924375
20
24.666484375
30
0
0
VERTEX
8
0
10
4.741268750000001
20
24.770896875000002
30
0
0
VERTEX
8
0
10
4.720178125
20
24.876915625000002
30
0
0
VERTEX
8
0
10
4.70606875
20
24.9840875
30
0
0
VERTEX
8
0
10
4.699
20
25.091953125
30
0
0
VERTEX
8
0
10
4.699
20
25.200046875
30
0
0
VERTEX
8
0
10
4.70606875
20
25.3079125
30
0
0
VERTEX
8
0
10
4.720178125
20
25.415084375000003
30
0
0
VERTEX
8
0
10
4.741268750000001
20
25.521103125
30
0
0
VERTEX
8
0
10
4.76924375
20
25.625515625000002
30
0
0
VERTEX
8
0
10
4.803990625
20
25.727875
30
0
0
VERTEX
8
0
10
4.845359375
20
25.82774375
30
0
0
VERTEX
8
0
10
4.89316875
20
25.924693750000003
30
0
0
VERTEX
8
0
10
4.947215625
20
26.018306250000002
30
0
0
VERTEX
8
0
10
5.007271875
20
26.108184375
30
0
0
VERTEX
8
0
10
5.073075
20
26.193943750000003
30
0
0
VERTEX
8
0
10
5.14435
20
26.275215625
30
0
0
VERTEX
8
0
10
5.220784375
20
26.351650000000003
30
0
0
VERTEX
8
0
10
5.302056250000001
20
26.422925000000003
30
0
0
VERTEX
8
0
10
5.387815625
20
26.488728125
30
0
0
VERTEX
8
0
10
5.47769375
20
26.548784375
30
0
0
VERTEX
8
0
10
5.57130625
20
26.60283125
30
0
0
VERTEX
8
0
10
5.668256250000001
20
26.650640625
30
0
0
VERTEX
8
0
10
5.768125
20
26.692009375
30
0
0
VERTEX
8
0
10
5.870484375
20
26.72675625
30
0
0
VERTEX
8
0
10
5.974896875000001
20
26.754731250000003
30
0
0
VERTEX
8
0
10
6.080915625
20
26.775821875000002
30
0
0
VERTEX
8
0
10
6.1880875
20
26.789931250000002
30
0
0
VERTEX
8
0
10
6.2959531250000005
20
26.797
30
0
0
VERTEX
8
0
10
6.404046875000001
20
26.797
30
0
0
VERTEX
8
0
10
6.5119125
20
26.789931250000002
30
0
0
VERTEX
8
0
10
6.619084375
20
26.775821875000002
30
0
0
VERTEX
8
0
10
6.725103125
20
26.754731250000003
30
0
0
VERTEX
8
0
10
6.829515625
20
26.72675625
30
0
0
VERTEX
8
0
10
6.931875000000001
20
26.692009375
30
0
0
VERTEX
8
0
10
7.03174375
20
26.650640625
30
0
0
VERTEX
8
0
10
7.12869375
20
26.60283125
30
0
0
VERTEX
8
0
10
7.22230625
20
26.548784375
30
0
0
VERTEX
8
0
10
7.312184375
20
26.488728125
30
0
0
VERTEX
8
0
10
7.3979437500000005
20
26.422925000000003
30
0
0
VERTEX
8
0
10
7.479215625
20
26.351650000000003
30
0
0
VERTEX
8
0
10
7.55565
20
26.275215625
30
0
0
VERTEX
8
0
10
7.626925
20
26.193943750000003
30
0
0
VERTEX
8
0
10
7.692728125
20
26.108184375
30
0
0
VERTEX
8
0
10
7.752784375
20
26.018306250000002
30
0
0
VERTEX
8
0
10
7.80683125
20
25.924693750000003
30
0
0
VERTEX
8
0
10
7.854640625
20
25.82774375
30
0
0
VERTEX
8
0
10
7.896009375
20
25.727875
30
0
0
VERTEX
8
0
10
7.93075625
20
25.625515625000002
30
0
0
VERTEX
8
0
10
7.9587312500000005
20
25.521103125
30
0
0
VERTEX
8
0
10
7.979821875000001
20
25.415084375000003
30
0
0
VERTEX
8
0
10
7.99393125
20
25.3079125
30
0
0
VERTEX
8
0
10
8.001000000000001
20
25.200046875
30
0
0
VERTEX
8
0
10
8.001000000000001
20
25.091953125
30
0
0
SEQEND
0
POLYLINE
66
1
8
holes
10
0.0
20
0.0
30
0.0
70
1
0
VERTEX
8
0
10
37.211
20
25.091953125
30
0
0
VERTEX
8
0
10
37.203931250000004
20
24.9840875
30
0
0
VERTEX
8
0
10
37.189821875
20
24.876915625000002
30
0
0
VERTEX
8
0
10
37.16873125
20
24.770896875000002
30
0
0
VERTEX
8
0
10
37.14075625
20
24.666484375
30
0
0
VERTEX
8
0
10
37.106009375
20
24.564125
30
0
0
VERTEX
8
0
10
37.064640625
20
24.464256250000002
30
0
0
VERTEX
8
0
10
37.01683125
20
24.367306250000002
30
0
0
VERTEX
8
0
10
36.962784375
20
24.27369375
30
0
0
VERTEX
8
0
10
36.902728125
20
24.183815625
30
0
0
VERTEX
8
0
10
36.836925
20
24.098056250000003
30
0
0
VERTEX
8
0
10
36.76565
20
24.016784375
30
0
0
VERTEX
8
0
10
36.689215625
20
23.940350000000002
30
0
0
VERTEX
8
0
10
36.607943750000004
20
23.869075000000002
30
0
0
VERTEX
8
0
10
36.522184375
20
23.803271875
30
0
0
VERTEX
8
0
10
36.43230625
20
23.743215625
30
0
0
VERTEX
8
0
10
36.338693750000004
20
23.68916875
30
0
0
VERTEX
8
0
10
36.241743750000005
20
23.641359375
30
0
0
VERTEX
8
0
10
36.141875
20
23.599990625
30
0
0
VERTEX
8
0
10
36.039515625
20
23.56524375
30
0
0
VERTEX
8
0
10
35.935103125000005
20
23.537268750000003
30
0
0
VERTEX
8
0
10
35.829084375
20
23.516178125
30
0
0
VERTEX
8
0
10
35.7219125
20
23.50206875
30
0
0
VERTEX
8
0
10
35.614046875
20
23.495
30
0
0
VERTEX
8
0
10
35.505953125000005
20
23.495
30
0
0
VERTEX
8
0
10
35.3980875
20
23.50206875
30
0
0
VERTEX
8
0
10
35.290915625000004
20
23.516178125
30
0
0
VERTEX
8
0
10
35.184896875
20
23.537268750000003
30
0
0
VERTEX
8
0
10
35.080484375000005
20
23.56524375
30
0
0
VERTEX
8
0
10
34.978125
20
23.599990625
30
0
0
VERTEX
8
0
10
34.87825625
20
23.641359375
30
0
0
VERTEX
8
0
10
34.78130625
20
23.68916875
30
0
0
VERTEX
8
0
10
34.68769375
20
23.743215625
30
0
0
VERTEX
8
0
10
34.597815625
20
23.803271875
30
0
0
VERTEX
8
0
10
34.51205625
20
23.869075000000002
30
0
0
VERTEX
8
0
10
34.430784375
20
23.940350000000002
30
0
0
VERTEX
8
0
10
34.354350000000004
20
24.016784375
30
0
0
VERTEX
8
0
10
34.283075000000004
20
24.098056250000003
30
0
0
VERTEX
8
0
10
34.217271875
20
24.183815625
30
0
0
VERTEX
8
0
10
34.157215625
20
24.27369375
30
0
0
VERTEX
8
0
10
34.10316875
20
24.367306250000002
30
0
0
VERTEX
8
0
10
34.055359375
20
24.464256250000002
30
0
0
VERTEX
8
0
10
34.013990625
20
24.564125
30
0
0
VERTEX
8
0
10
33.97924375
20
24.666484375
30
0
0
VERTEX
8
0
10
33.951268750000004
20
24.770896875000002
30
0
0
VERTEX
8
0
10
33.930178125000005
20
24.876915625000002
30
0
0
VERTEX
8
0
10
33.91606875
20
24.9840875
30
0
0
VERTEX
8
0
10
33.909
20
25.091953125
30
0
0
VERTEX
8
0
10
33.909
20
25.200046875
30
0
0
VERTEX
8
0
10
33.91606875
20
25.3079125
30
0
0
VERTEX
8
0
10
33.930178125000005
20
25.415084375000003
30
0
0
VERTEX
8
0
10
33.951268750000004
20
25.521103125
30
0
0
VERTEX
8
0
10
33.97924375
20
25.625515625000002
30
0
0
VERTEX
8
0
10
34.013990625
20
25.727875
30
0
0
VERTEX
8
0
10
34.055359375
20
25.82774375
30
0
0
VERTEX
8
0
10
34.10316875
20
25.924693750000003
30
0
0
VERTEX
8
0
10
34.157215625
20
26.018306250000002
30
0
0
VERTEX
8
0
10
34.217271875
20
26.108184375
30
0
0
VERTEX
8
0
10
34.283075000000004
20
26.193943750000003
30
0
0
VERTEX
8
0
10
34.354350000000004
20
26.275215625
30
0
0
VERTEX
8
0
10
34.430784375
20
26.351650000000003
30
0
0
VERTEX
8
0
10
34.51205625
20
26.422925000000003
30
0
0
VERTEX
8
0
10
34.597815625
20
26.488728125
30
0
0
VERTEX
8
0
10
34.68769375
20
26.548784375
30
0
0
VERTEX
8
0
10
34.78130625
20
26.60283125
30
0
0
VERTEX
8
0
10
34.87825625
20
26.650640625
30
0
0
VERTEX
8
0
10
34.978125
20
26.692009375
30
0
0
VERTEX
8
0
10
35.080484375000005
20
26.72675625
30
0
0
VERTEX
8
0
10
35.184896875
20
26.754731250000003
30
0
0
VERTEX
8
0
10
35.290915625000004
20
26.775821875000002
30
0
0
VERTEX
8
0
10
35.3980875
20
26.789931250000002
30
0
0
VERTEX
8
0
10
35.505953125000005
20
26.797
30
0
0
VERTEX
8
0
10
35.614046875
20
26.797
30
0
0
VERTEX
8
0
10
35.7219125
20
26.789931250000002
30
0
0
VERTEX
8
0
10
35.829084375
20
26.775821875000002
30
0
0
VERTEX
8
0
10
35.935103125000005
20
26.754731250000003
30
0
0
VERTEX
8
0
10
36.039515625
20
26.72675625
30
0
0
VERTEX
8
0
10
36.141875
20
26.692009375
30
0
0
VERTEX
8
0
10
36.241743750000005
20
26.650640625
30
0
0
VERTEX
8
0
10
36.338693750000004
20
26.60283125
30
0
0
VERTEX
8
0
10
36.43230625
20
26.548784375
30
0
0
VERTEX
8
0
10
36.522184375
20
26.488728125
30
0
0
VERTEX
8
0
10
36.607943750000004
20
26.422925000000003
30
0
0
VERTEX
8
0
10
36.689215625
20
26.351650000000003
30
0
0
VERTEX
8
0
10
36.76565
20
26.275215625
30
0
0
VERTEX
8
0
10
36.836925
20
26.193943750000003
30
0
0
VERTEX
8
0
10
36.902728125
20
26.108184375
30
0
0
VERTEX
8
0
10
36.962784375
20
26.018306250000002
30
0
0
VERTEX
8
0
10
37.01683125
20
25.924693750000003
30
0
0
VERTEX
8
0
10
37.064640625
20
25.82774375
30
0
0
VERTEX
8
0
10
37.106009375
20
25.727875
30
0
0
VERTEX
8
0
10
37.14075625
20
25.625515625000002
30
0
0
VERTEX
8
0
10
37.16873125
20
25.521103125
30
0
0
VERTEX
8
0
10
37.189821875
20
25.415084375000003
30
0
0
VERTEX
8
0
10
37.203931250000004
20
25.3079125
30
0
0
VERTEX
8
0
10
37.211
20
25.200046875
30
0
0
VERTEX
8
0
10
37.211
20
25.091953125
30
0
0
SEQEND
0
POLYLINE
66
1
8
1_copper
10
0.0
20
0.0
30
0.0
70
1
0
VERTEX
8
0
10
15.97
20
20.400000000000002
30
0
0
VERTEX
8
0
10
13.270000000000001
20
20.400000000000002
30
0
0
VERTEX
8
0
10
13.270000000000001
20
17.7
30
0
0
VERTEX
8
0
10
15.97
20
17.7
30
0
0
SEQEND
0
POLYLINE
66
1
8
1_copper
10
0.0
20
0.0
30
0.0
70
1
0
VERTEX
8
0
10
27.37
20
20.400000000000002
30
0
0
VERTEX
8
0
10
24.67
20
20.400000000000002
30
0
0
VERTEX
8
0
10
24.67
20
17.7
30
0
0
VERTEX
8
0
10
27.37
20
17.7
30
0
0
SEQEND
0
POLYLINE
66
1
8
16_copper
10
0.0
20
0.0
30
0.0
70
1
0
VERTEX
8
0
10
15.97
20
20.400000000000002
30
0
0
VERTEX
8
0
10
13.270000000000001
20
20.400000000000002
30
0
0
VERTEX
8
0
10
13.270000000000001
20
17.7
30
0
0
VERTEX
8
0
10
15.97
20
17.7
30
0
0
SEQEND
0
POLYLINE
66
1
8
16_copper
10
0.0
20
0.0
30
0.0
70
1
0
VERTEX
8
0
10
27.37
20
20.400000000000002
30
0
0
VERTEX
8
0
10
24.67
20
20.400000000000002
30
0
0
VERTEX
8
0
10
24.67
20
17.7
30
0
0
VERTEX
8
0
10
27.37
20
17.7
30
0
0
SEQEND
0
POLYLINE
66
1
8
1_copper
10
0.0
20
0.0
30
0.0
70
1
0
VERTEX
8
0
10
9.2964
20
49.1236
30
0
0
VERTEX
8
0
10
13.97
20
49.1236
30
0
42
0.41421356237309503
0
VERTEX
8
0
10
14.3764
20
49.53
30
0
0
VERTEX
8
0
10
14.3764
20
52.2605
30
0
0
VERTEX
8
0
10
14.417140625
20
52.2605
30
0
0
VERTEX
8
0
10
15.0495
20
52.892859375
30
0
0
VERTEX
8
0
10
15.0495
20
53.787140625
30
0
0
VERTEX
8
0
10
14.417140625
20
54.4195
30
0
0
VERTEX
8
0
10
13.522859375000001
20
54.4195
30
0
0
VERTEX
8
0
10
12.890500000000001
20
53.787140625
30
0
0
VERTEX
8
0
10
12.890500000000001
20
53.7464
30
0
0
VERTEX
8
0
10
11.239500000000001
20
53.7464
30
0
0
VERTEX
8
0
10
11.239500000000001
20
53.787140625
30
0
0
VERTEX
8
0
10
10.607140625000001
20
54.4195
30
0
0
VERTEX
8
0
10
9.712859375
20
54.4195
30
0
0
VERTEX
8
0
10
9.0805
20
53.787140625
30
0
0
VERTEX
8
0
10
9.0805
20
53.7464
30
0
0
VERTEX
8
0
10
7.4295
20
53.7464
30
0
0
VERTEX
8
0
10
7.4295
20
53.787140625
30
0
0
VERTEX
8
0
10
6.797140625
20
54.4195
30
0
0
VERTEX
8
0
10
5.902859375
20
54.4195
30
0
0
VERTEX
8
0
10
5.2705
20
53.787140625
30
0
0
VERTEX
8
0
10
5.2705
20
52.892859375
30
0
0
VERTEX
8
0
10
5.902859375
20
52.2605
30
0
0
VERTEX
8
0
10
6.797140625
20
52.2605
30
0
0
VERTEX
8
0
10
7.4295
20
52.892859375
30
0
0
VERTEX
8
0
10
7.4295
20
52.933600000000006
30
0
0
VERTEX
8
0
10
9.0805
20
52.933600000000006
30
0
0
VERTEX
8
0
10
9.0805
20
52.892859375
30
0
0
VERTEX
8
0
10
9.712859375
20
52.2605
30
0
0
VERTEX
8
0
10
10.607140625000001
20
52.2605
30
0
0
VERTEX
8
0
10
11.239500000000001
20
52.892859375
30
0
0
VERTEX
8
0
10
11.239500000000001
20
52.933600000000006
30
0
0
VERTEX
8
0
10
12.890500000000001
20
52.933600000000006
30
0
0
VERTEX
8
0
10
12.890500000000001
20
52.892859375
30
0
0
VERTEX
8
0
10
13.522859375000001
20
52.2605
30
0
0
VERTEX
8
0
10
13.563600000000001
20
52.2605
30
0
0
VERTEX
8
0
10
13.563600000000001
20
49.9364
30
0
0
VERTEX
8
0
10
8.89
20
49.9364
30
0
42
0.41421356237309503
0
VERTEX
8
0
10
8.483600000000001
20
49.53
30
0
0
VERTEX
8
0
10
8.483600000000001
20
30.48
30
0
42
0.41421356237309503
0
VERTEX
8
0
10
8.89
20
30.073600000000003
30
0
0
VERTEX
8
0
10
22.413600000000002
20
30.073600000000003
30
0
0
VERTEX
8
0
10
22.413600000000002
20
26.05
30
0
42
0.005208107583906143
0
VERTEX
8
0
10
22.4136875
20
26.041534375
30
0
0
VERTEX
8
0
10
22.450078125
20
24.294815625000002
30
0
0
VERTEX
8
0
10
20.03263125
20
21.877368750000002
30
0
42
0.198912367379658
0
VERTEX
8
0
10
19.913600000000002
20
21.59
30
0
0
VERTEX
8
0
10
19.913600000000002
20
11.7183375
30
0
0
VERTEX
8
0
10
15.9168625
20
7.7216000000000005
30
0
0
VERTEX
8
0
10
14.0244125
20
7.7216000000000005
30
0
42
0.198912367379658
0
VERTEX
8
0
10
13.73704375
20
7.6025687500000005
30
0
0
VERTEX
8
0
10
13.059209375
20
6.924734375000001
30
0
0
VERTEX
8
0
10
12.973543750000001
20
7.010400000000001
30
0
0
VERTEX
8
0
10
12.614337500000001
20
7.010400000000001
30
0
0
VERTEX
8
0
10
9.652000000000001
20
9.972737500000001
30
0
0
VERTEX
8
0
10
9.652000000000001
20
10.959434375
30
0
42
0.9520795017710562
0
VERTEX
8
0
10
8.128
20
10.959434375
30
0
0
VERTEX
8
0
10
8.128
20
9.360565625000001
30
0
42
0.7145602227898333
0
VERTEX
8
0
10
9.514378125
20
8.960884375000001
30
0
0
VERTEX
8
0
10
12.0396
20
6.4356625
30
0
0
VERTEX
8
0
10
12.0396
20
6.076456250000001
30
0
0
VERTEX
8
0
10
12.426456250000001
20
5.6896
30
0
0
VERTEX
8
0
10
12.973543750000001
20
5.6896
30
0
0
VERTEX
8
0
10
13.346540625000001
20
6.0625968750000006
30
0
0
VERTEX
8
0
10
13.34658125
20
6.06263125
30
0
0
VERTEX
8
0
10
14.19275
20
6.9088
30
0
0
VERTEX
8
0
10
16.0852
20
6.9088
30
0
42
0.198912367379658
0
VERTEX
8
0
10
16.37256875
20
7.02783125
30
0
0
VERTEX
8
0
10
20.607368750000003
20
11.26263125
30
0
42
0.198912367379658
0
VERTEX
8
0
10
20.7264
20
11.55
30
0
0
VERTEX
8
0
10
20.7264
20
21.4216625
30
0
0
VERTEX
8
0
10
23.147368750000002
20
23.84263125
30
0
42
0.20433215429098286
0
VERTEX
8
0
10
23.2663125
20
24.138465625000002
30
0
0
VERTEX
8
0
10
23.2264
20
26.054265625000003
30
0
0
VERTEX
8
0
10
23.2264
20
30.304621875000002
30
0
42
0.5519055849794872
0
VERTEX
8
0
10
22.86
20
30.886400000000002
30
0
0
VERTEX
8
0
10
9.2964
20
30.886400000000002
30
0
0
SEQEND
0
POLYLINE
66
1
8
16_copper
10
0.0
20
0.0
30
0.0
70
1
0
VERTEX
8
0
10
15.0495
20
52.892859375
30
0
0
VERTEX
8
0
10
15.0495
20
53.787140625
30
0
0
VERTEX
8
0
10
14.417140625
20
54.4195
30
0
0
VERTEX
8
0
10
13.522859375000001
20
54.4195
30
0
0
VERTEX
8
0
10
12.890500000000001
20
53.787140625
30
0
0
VERTEX
8
0
10
12.890500000000001
20
52.892859375
30
0
0
VERTEX
8
0
10
13.522859375000001
20
52.2605
30
0
0
VERTEX
8
0
10
14.417140625
20
52.2605
30
0
0
SEQEND
0
POLYLINE
66
1
8
16_copper
10
0.0
20
0.0
30
0.0
70
1
0
VERTEX
8
0
10
11.239500000000001
20
52.892859375
30
0
0
VERTEX
8
0
10
11.239500000000001
20
53.787140625
30
0
0
VERTEX
8
0
10
10.607140625000001
20
54.4195
30
0
0
VERTEX
8
0
10
9.712859375
20
54.4195
30
0
0
VERTEX
8
0
10
9.0805
20
53.787140625
30
0
0
VERTEX
8
0
10
9.0805
20
52.892859375
30
0
0
VERTEX
8
0
10
9.712859375
20
52.2605
30
0
0
VERTEX
8
0
10
10.607140625000001
20
52.2605
30
0
0
SEQEND
0
POLYLINE
66
1
8
16_copper
10
0.0
20
0.0
30
0.0
70
1
0
VERTEX
8
0
10
7.4295
20
52.892859375
30
0
0
VERTEX
8
0
10
7.4295
20
53.787140625
30
0
0
VERTEX
8
0
10
6.797140625
20
54.4195
30
0
0
VERTEX
8
0
10
5.902859375
20
54.4195
30
0
0
VERTEX
8
0
10
5.2705
20
53.787140625
30
0
0
VERTEX
8
0
10
5.2705
20
52.892859375
30
0
0
VERTEX
8
0
10
5.902859375
20
52.2605
30
0
0
VERTEX
8
0
10
6.797140625
20
52.2605
30
0
0
SEQEND
0
POLYLINE
66
1
8
16_copper
10
0.0
20
0.0
30
0.0
70
1
0
VERTEX
8
0
10
9.00194375
20
8.643337500000001
30
0
42
0.3578057741447831
0
VERTEX
8
0
10
9.652000000000001
20
9.360565625000001
30
0
0
VERTEX
8
0
10
9.652000000000001
20
10.959434375
30
0
42
0.9520795017710562
0
VERTEX
8
0
10
8.128
20
10.959434375
30
0
0
VERTEX
8
0
10
8.128
20
9.360565625000001
30
0
0
VERTEX
8
0
10
8.1353375
20
9.28605625
30
0
0
VERTEX
8
0
10
8.14994375
20
9.212625000000001
30
0
0
VERTEX
8
0
10
8.171678125
20
9.140981250000001
30
0
0
VERTEX
8
0
10
8.200328125
20
9.071809375
30
0
0
VERTEX
8
0
10
8.235621875
20
9.00578125
30
0
0
VERTEX
8
0
10
8.277218750000001
20
8.943531250000001
30
0
0
VERTEX
8
0
10
8.324715625
20
8.88565625
30
0
0
VERTEX
8
0
10
8.377656250000001
20
8.832715625
30
0
0
VERTEX
8
0
10
8.43553125
20
8.78521875
30
0
0
VERTEX
8
0
10
8.497781250000001
20
8.743621875
30
0
0
VERTEX
8
0
10
8.563809375
20
8.708328125
30
0
0
VERTEX
8
0
10
8.63298125
20
8.679678125
30
0
0
VERTEX
8
0
10
8.704625
20
8.657943750000001
30
0
0
VERTEX
8
0
10
8.77805625
20
8.643337500000001
30
0
0
VERTEX
8
0
10
8.852565625
20
8.636000000000001
30
0
0
VERTEX
8
0
10
8.927434375
20
8.636000000000001
30
0
0
SEQEND
0
POLYLINE
66
1
8
16_copper
10
0.0
20
0.0
30
0.0
70
1
0
VERTEX
8
0
10
13.3604
20
6.076456250000001
30
0
0
VERTEX
8
0
10
13.3604
20
6.6235437500000005
30
0
0
VERTEX
8
0
10
12.973543750000001
20
7.010400000000001
30
0
0
VERTEX
8
0
10
12.426456250000001
20
7.010400000000001
30
0
0
VERTEX
8
0
10
12.0396
20
6.6235437500000005
30
0
0
VERTEX
8
0
10
12.0396
20
6.076456250000001
30
0
0
VERTEX
8
0
10
12.426456250000001
20
5.6896
30
0
0
VERTEX
8
0
10
12.973543750000001
20
5.6896
30
0
0
SEQEND
0
POLYLINE
66
1
8
1_copper
10
0.0
20
0.0
30
0.0
70
1
0
VERTEX
8
0
10
19.05008125
20
2.13360625
30
0
42
0.1988604079762159
0
VERTEX
8
0
10
19.33736875
20
2.2526312500000003
30
0
0
VERTEX
8
0
10
20.4883375
20
3.4036
30
0
0
VERTEX
8
0
10
20.5105
20
3.4036
30
0
0
VERTEX
8
0
10
20.5105
20
3.362859375
30
0
0
VERTEX
8
0
10
21.142859375
20
2.7305
30
0
0
VERTEX
8
0
10
22.037140625000003
20
2.7305
30
0
0
VERTEX
8
0
10
22.6695
20
3.362859375
30
0
0
VERTEX
8
0
10
22.6695
20
3.4036
30
0
0
VERTEX
8
0
10
25.400000000000002
20
3.4036
30
0
42
0.41421356237309503
0
VERTEX
8
0
10
25.8064
20
3.81
30
0
0
VERTEX
8
0
10
25.8064
20
5.82245625
30
0
0
VERTEX
8
0
10
26.0604
20
6.076456250000001
30
0
0
VERTEX
8
0
10
26.0604
20
6.6235437500000005
30
0
0
VERTEX
8
0
10
25.67354375
20
7.010400000000001
30
0
0
VERTEX
8
0
10
25.12645625
20
7.010400000000001
30
0
0
VERTEX
8
0
10
24.739600000000003
20
6.6235437500000005
30
0
0
VERTEX
8
0
10
24.739600000000003
20
6.076456250000001
30
0
0
VERTEX
8
0
10
24.9936
20
5.82245625
30
0
0
VERTEX
8
0
10
24.9936
20
4.2164
30
0
0
VERTEX
8
0
10
22.6695
20
4.2164
30
0
0
VERTEX
8
0
10
22.6695
20
4.257140625
30
0
0
VERTEX
8
0
10
22.037140625000003
20
4.8895
30
0
0
VERTEX
8
0
10
21.142859375
20
4.8895
30
0
0
VERTEX
8
0
10
20.5105
20
4.257140625
30
0
0
VERTEX
8
0
10
20.5105
20
4.2164
30
0
0
VERTEX
8
0
10
20.32
20
4.2164
30
0
42
0.198912367379658
0
VERTEX
8
0
10
20.03263125
20
4.09736875
30
0
0
VERTEX
8
0
10
18.8816625
20
2.9464
30
0
0
VERTEX
8
0
10
12.8683375
20
2.9464
30
0
0
VERTEX
8
0
10
11.71736875
20
4.09736875
30
0
42
0.198912367379658
0
VERTEX
8
0
10
11.43
20
4.2164
30
0
0
VERTEX
8
0
10
7.4295
20
4.2164
30
0
0
VERTEX
8
0
10
7.4295
20
4.257140625
30
0
0
VERTEX
8
0
10
6.797140625
20
4.8895
30
0
0
VERTEX
8
0
10
5.902859375
20
4.8895
30
0
0
VERTEX
8
0
10
5.87405
20
4.860690625
30
0
0
VERTEX
8
0
10
4.2164
20
6.5183375
30
0
0
VERTEX
8
0
10
4.2164
20
8.753096875
30
0
42
0.24455754813634345
0
VERTEX
8
0
10
4.572
20
9.360565625000001
30
0
0
VERTEX
8
0
10
4.572
20
10.959434375
30
0
42
0.9520795017710562
0
VERTEX
8
0
10
3.048
20
10.959434375
30
0
0
VERTEX
8
0
10
3.048
20
9.360565625000001
30
0
42
0.24455754813634345
0
VERTEX
8
0
10
3.4036
20
8.753096875
30
0
0
VERTEX
8
0
10
3.4036
20
6.3500000000000005
30
0
42
0.198912367379658
0
VERTEX
8
0
10
3.5226312500000003
20
6.06263125
30
0
0
VERTEX
8
0
10
5.2993125
20
4.285953125
30
0
0
VERTEX
8
0
10
5.2705
20
4.257140625
30
0
0
VERTEX
8
0
10
5.2705
20
3.362859375
30
0
0
VERTEX
8
0
10
5.902859375
20
2.7305
30
0
0
VERTEX
8
0
10
6.797140625
20
2.7305
30
0
0
VERTEX
8
0
10
7.4295
20
3.362859375
30
0
0
VERTEX
8
0
10
7.4295
20
3.4036
30
0
0
VERTEX
8
0
10
11.2616625
20
3.4036
30
0
0
VERTEX
8
0
10
12.41263125
20
2.2526312500000003
30
0
42
0.198912367379658
0
VERTEX
8
0
10
12.700000000000001
20
2.1336
30
0
0
VERTEX
8
0
10
19.05
20
2.1336
30
0
0
SEQEND
0
POLYLINE
66
1
8
16_copper
10
0.0
20
0.0
30
0.0
70
1
0
VERTEX
8
0
10
3.92194375
20
8.643337500000001
30
0
42
0.3578057741447831
0
VERTEX
8
0
10
4.572
20
9.360565625000001
30
0
0
VERTEX
8
0
10
4.572
20
10.959434375
30
0
42
0.9520795017710562
0
VERTEX
8
0
10
3.048
20
10.959434375
30
0
0
VERTEX
8
0
10
3.048
20
9.360565625000001
30
0
0
VERTEX
8
0
10
3.0553375000000003
20
9.28605625
30
0
0
VERTEX
8
0
10
3.06994375
20
9.212625000000001
30
0
0
VERTEX
8
0
10
3.091678125
20
9.140981250000001
30
0
0
VERTEX
8
0
10
3.1203281250000003
20
9.071809375
30
0
0
VERTEX
8
0
10
3.155621875
20
9.00578125
30
0
0
VERTEX
8
0
10
3.19721875
20
8.943531250000001
30
0
0
VERTEX
8
0
10
3.244715625
20
8.88565625
30
0
0
VERTEX
8
0
10
3.29765625
20
8.832715625
30
0
0
VERTEX
8
0
10
3.3555312500000003
20
8.78521875
30
0
0
VERTEX
8
0
10
3.41778125
20
8.743621875
30
0
0
VERTEX
8
0
10
3.4838093750000003
20
8.708328125
30
0
0
VERTEX
8
0
10
3.55298125
20
8.679678125
30
0
0
VERTEX
8
0
10
3.624625
20
8.657943750000001
30
0
0
VERTEX
8
0
10
3.69805625
20
8.643337500000001
30
0
0
VERTEX
8
0
10
3.7725656250000004
20
8.636000000000001
30
0
0
VERTEX
8
0
10
3.847434375
20
8.636000000000001
30
0
0
SEQEND
0
POLYLINE
66
1
8
16_copper
10
0.0
20
0.0
30
0.0
70
1
0
VERTEX
8
0
10
26.0604
20
6.076456250000001
30
0
0
VERTEX
8
0
10
26.0604
20
6.6235437500000005
30
0
0
VERTEX
8
0
10
25.67354375
20
7.010400000000001
30
0
0
VERTEX
8
0
10
25.12645625
20
7.010400000000001
30
0
0
VERTEX
8
0
10
24.739600000000003
20
6.6235437500000005
30
0
0
VERTEX
8
0
10
24.739600000000003
20
6.076456250000001
30
0
0
VERTEX
8
0
10
25.12645625
20
5.6896
30
0
0
VERTEX
8
0
10
25.67354375
20
5.6896
30
0
0
SEQEND
0
POLYLINE
66
1
8
16_copper
10
0.0
20
0.0
30
0.0
70
1
0
VERTEX
8
0
10
22.6695
20
3.362859375
30
0
0
VERTEX
8
0
10
22.6695
20
4.257140625
30
0
0
VERTEX
8
0
10
22.037140625000003
20
4.8895
30
0
0
VERTEX
8
0
10
21.142859375
20
4.8895
30
0
0
VERTEX
8
0
10
20.5105
20
4.257140625
30
0
0
VERTEX
8
0
10
20.5105
20
3.362859375
30
0
0
VERTEX
8
0
10
21.142859375
20
2.7305
30
0
0
VERTEX
8
0
10
22.037140625000003
20
2.7305
30
0
0
SEQEND
0
POLYLINE
66
1
8
16_copper
10
0.0
20
0.0
30
0.0
70
1
0
VERTEX
8
0
10
7.4295
20
3.362859375
30
0
0
VERTEX
8
0
10
7.4295
20
4.257140625
30
0
0
VERTEX
8
0
10
6.797140625
20
4.8895
30
0
0
VERTEX
8
0
10
5.902859375
20
4.8895
30
0
0
VERTEX
8
0
10
5.2705
20
4.257140625
30
0
0
VERTEX
8
0
10
5.2705
20
3.362859375
30
0
0
VERTEX
8
0
10
5.902859375
20
2.7305
30
0
0
VERTEX
8
0
10
6.797140625
20
2.7305
30
0
0
SEQEND
0
POLYLINE
66
1
8
1_copper
10
0.0
20
0.0
30
0.0
70
1
0
VERTEX
8
0
10
40.4495
20
3.362859375
30
0
0
VERTEX
8
0
10
40.4495
20
4.257140625
30
0
0
VERTEX
8
0
10
39.817140625
20
4.8895
30
0
0
VERTEX
8
0
10
38.922859375
20
4.8895
30
0
0
VERTEX
8
0
10
38.2905
20
4.257140625
30
0
0
VERTEX
8
0
10
38.2905
20
4.2164
30
0
0
VERTEX
8
0
10
35.9664
20
4.2164
30
0
0
VERTEX
8
0
10
35.9664
20
6.048565625
30
0
42
0.2609571049034481
0
VERTEX
8
0
10
36.3982
20
6.745203125000001
30
0
0
VERTEX
8
0
10
36.3982
20
8.494796875
30
0
42
0.9572914311583669
0
VERTEX
8
0
10
34.7218
20
8.494796875
30
0
0
VERTEX
8
0
10
34.7218
20
6.745203125000001
30
0
42
0.2609571049034481
0
VERTEX
8
0
10
35.153600000000004
20
6.048565625
30
0
0
VERTEX
8
0
10
35.153600000000004
20
3.81
30
0
42
0.41421356237309503
0
VERTEX
8
0
10
35.56
20
3.4036
30
0
0
VERTEX
8
0
10
38.2905
20
3.4036
30
0
0
VERTEX
8
0
10
38.2905
20
3.362859375
30
0
0
VERTEX
8
0
10
38.922859375
20
2.7305
30
0
0
VERTEX
8
0
10
39.817140625
20
2.7305
30
0
0
SEQEND
0
POLYLINE
66
1
8
16_copper
10
0.0
20
0.0
30
0.0
70
1
0
VERTEX
8
0
10
35.6695125
20
5.949978125
30
0
42
0.3639697834944294
0
VERTEX
8
0
10
36.3982
20
6.745203125000001
30
0
0
VERTEX
8
0
10
36.3982
20
8.494796875
30
0
42
0.9572914311583669
0
VERTEX
8
0
10
34.7218
20
8.494796875
30
0
0
VERTEX
8
0
10
34.7218
20
6.745203125000001
30
0
0
VERTEX
8
0
10
34.728178125
20
6.6722875
30
0
0
VERTEX
8
0
10
34.740890625
20
6.60020625
30
0
0
VERTEX
8
0
10
34.759834375000004
20
6.529509375
30
0
0
VERTEX
8
0
10
34.784865625
20
6.460728125
30
0
0
VERTEX
8
0
10
34.8158
20
6.39439375
30
0
0
VERTEX
8
0
10
34.852396875000004
20
6.331006250000001
30
0
0
VERTEX
8
0
10
34.894378125
20
6.271050000000001
30
0
0
VERTEX
8
0
10
34.941425
20
6.21498125
30
0
0
VERTEX
8
0
10
34.99318125
20
6.163225000000001
30
0
0
VERTEX
8
0
10
35.04925
20
6.116178125
30
0
0
VERTEX
8
0
10
35.10920625
20
6.074196875
30
0
0
VERTEX
8
0
10
35.172593750000004
20
6.0376
30
0
0
VERTEX
8
0
10
35.238928125
20
6.006665625
30
0
0
VERTEX
8
0
10
35.307709375
20
5.9816343750000005
30
0
0
VERTEX
8
0
10
35.378406250000005
20
5.9626906250000005
30
0
0
VERTEX
8
0
10
35.4504875
20
5.949978125
30
0
0
VERTEX
8
0
10
35.523403125
20
5.9436
30
0
0
VERTEX
8
0
10
35.596596875
20
5.9436
30
0
0
SEQEND
0
POLYLINE
66
1
8
16_copper
10
0.0
20
0.0
30
0.0
70
1
0
VERTEX
8
0
10
40.4495
20
3.362859375
30
0
0
VERTEX
8
0
10
40.4495
20
4.257140625
30
0
0
VERTEX
8
0
10
39.817140625
20
4.8895
30
0
0
VERTEX
8
0
10
38.922859375
20
4.8895
30
0
0
VERTEX
8
0
10
38.2905
20
4.257140625
30
0
0
VERTEX
8
0
10
38.2905
20
3.362859375
30
0
0
VERTEX
8
0
10
38.922859375
20
2.7305
30
0
0
VERTEX
8
0
10
39.817140625
20
2.7305
30
0
0
SEQEND
0
POLYLINE
66
1
8
1_copper
10
0.0
20
0.0
30
0.0
70
1
0
VERTEX
8
0
10
15.99
20
47.051446875
30
0
0
VERTEX
8
0
10
16.79736875
20
47.858815625000005
30
0
42
0.198912367379658
0
VERTEX
8
0
10
16.9164
20
48.146184375000004
30
0
0
VERTEX
8
0
10
16.9164
20
50.927
30
0
42
0.9999999999999999
0
VERTEX
8
0
10
16.1036
20
50.927
30
0
0
VERTEX
8
0
10
16.1036
20
48.314521875000004
30
0
0
VERTEX
8
0
10
15.109078125
20
47.32
30
0
0
VERTEX
8
0
10
14.49
20
47.32
30
0
0
VERTEX
8
0
10
14.49
20
46.02
30
0
0
VERTEX
8
0
10
15.99
20
46.02
30
0
0
SEQEND
0
POLYLINE
66
1
8
1_copper
10
0.0
20
0.0
30
0.0
70
1
0
VERTEX
8
0
10
23.61
20
47.32
30
0
0
VERTEX
8
0
10
22.9777375
20
47.32
30
0
0
VERTEX
8
0
10
19.33736875
20
50.96036875
30
0
42
0.9999999999999999
0
VERTEX
8
0
10
18.762631250000002
20
50.38563125
30
0
0
VERTEX
8
0
10
22.11
20
47.0382625
30
0
0
VERTEX
8
0
10
22.11
20
46.02
30
0
0
VERTEX
8
0
10
23.61
20
46.02
30
0
0
SEQEND
0
POLYLINE
66
1
8
1_copper
10
0.0
20
0.0
30
0.0
70
1
0
VERTEX
8
0
10
28.69
20
47.32
30
0
0
VERTEX
8
0
10
28.0577375
20
47.32
30
0
0
VERTEX
8
0
10
24.41736875
20
50.96036875
30
0
42
0.9999999999999999
0
VERTEX
8
0
10
23.84263125
20
50.38563125
30
0
0
VERTEX
8
0
10
27.19
20
47.0382625
30
0
0
VERTEX
8
0
10
27.19
20
46.02
30
0
0
VERTEX
8
0
10
28.69
20
46.02
30
0
0
SEQEND
0
POLYLINE
66
1
8
1_copper
10
0.0
20
0.0
30
0.0
70
1
0
VERTEX
8
0
10
21.07
20
47.32
30
0
0
VERTEX
8
0
10
20.32094375
20
47.32
30
0
0
VERTEX
8
0
10
19.367540625
20
48.51363125
30
0
42
0.9999999999999999
0
VERTEX
8
0
10
18.732459375
20
48.00636875
30
0
0
VERTEX
8
0
10
19.57
20
46.95779375
30
0
0
VERTEX
8
0
10
19.57
20
46.02
30
0
0
VERTEX
8
0
10
21.07
20
46.02
30
0
0
SEQEND
0
POLYLINE
66
1
8
16_copper
10
0.0
20
0.0
30
0.0
70
1
0
VERTEX
8
0
10
26.79708125
20
32.74060625
30
0
0
VERTEX
8
0
10
26.797165625
20
32.7406
30
0
0
VERTEX
8
0
10
26.82059375
20
32.742065625
30
0
42
0.18382931724068585
0
VERTEX
8
0
10
27.084368750000003
20
32.85963125
30
0
0
VERTEX
8
0
10
29.49736875
20
35.27263125
30
0
42
0.198912367379658
0
VERTEX
8
0
10
29.616400000000002
20
35.56
30
0
0
VERTEX
8
0
10
29.616400000000002
20
48.260000000000005
30
0
42
0.41421356237309503
0
VERTEX
8
0
10
29.21
20
48.6664
30
0
0
VERTEX
8
0
10
19.05
20
48.6664
30
0
42
0.920803015538475
0
VERTEX
8
0
10
18.983315625
20
47.859109375
30
0
0
VERTEX
8
0
10
19.05
20
47.8536
30
0
0
VERTEX
8
0
10
28.803600000000003
20
47.8536
30
0
0
VERTEX
8
0
10
28.803600000000003
20
35.7283375
30
0
0
VERTEX
8
0
10
26.625925000000002
20
33.5506625
30
0
0
VERTEX
8
0
10
26.619721875
20
33.550278125
30
0
0
VERTEX
8
0
10
26.570218750000002
20
33.540959375
30
0
0
VERTEX
8
0
10
26.522246875
20
33.525590625
30
0
0
VERTEX
8
0
10
26.47654375
20
33.504400000000004
30
0
0
VERTEX
8
0
10
26.433815625
20
33.477721875
30
0
0
VERTEX
8
0
10
26.394715625
20
33.4459625
30
0
0
VERTEX
8
0
10
26.35984375
20
33.409609375
30
0
0
VERTEX
8
0
10
26.3297375
20
33.369221875
30
0
0
VERTEX
8
0
10
26.304859375
20
33.325418750000004
30
0
0
VERTEX
8
0
10
26.285590625
20
33.278875
30
0
0
VERTEX
8
0
10
26.27223125
20
33.23030625
30
0
0
VERTEX
8
0
10
26.264978125000003
20
33.18045625
30
0
0
VERTEX
8
0
10
26.263953125
20
33.130090625
30
0
0
VERTEX
8
0
10
26.2691625
20
33.0799875
30
0
0
VERTEX
8
0
10
26.280531250000003
20
33.0309125
30
0
0
VERTEX
8
0
10
26.297884375000002
20
32.983621875000004
30
0
0
VERTEX
8
0
10
26.320956250000002
20
32.938843750000004
30
0
0
VERTEX
8
0
10
26.349390625
20
32.897259375000004
30
0
0
VERTEX
8
0
10
26.38275
20
32.859515625
30
0
0
VERTEX
8
0
10
26.420521875000002
20
32.8261875
30
0
0
VERTEX
8
0
10
26.462128125
20
32.7977875
30
0
0
VERTEX
8
0
10
26.506928125
20
32.774753125000004
30
0
0
VERTEX
8
0
10
26.55423125
20
32.7574375
30
0
0
VERTEX
8
0
10
26.603315625
20
32.746109375
30
0
0
VERTEX
8
0
10
26.67
20
32.7406
30
0
0
VERTEX
8
0
10
26.797
20
32.7406
30
0
0
SEQEND
0
POLYLINE
66
1
8
1_copper
10
0.0
20
0.0
30
0.0
70
1
0
VERTEX
8
0
10
13.450000000000001
20
47.32
30
0
0
VERTEX
8
0
10
13.1064
20
47.32
30
0
0
VERTEX
8
0
10
13.1064
20
48.260000000000005
30
0
42
0.9999999999999999
0
VERTEX
8
0
10
12.293600000000001
20
48.260000000000005
30
0
0
VERTEX
8
0
10
12.293600000000001
20
47.32
30
0
0
VERTEX
8
0
10
11.950000000000001
20
47.32
30
0
0
VERTEX
8
0
10
11.950000000000001
20
46.02
30
0
0
VERTEX
8
0
10
13.450000000000001
20
46.02
30
0
0
SEQEND
0
POLYLINE
66
1
8
1_copper
10
0.0
20
0.0
30
0.0
70
1
0
VERTEX
8
0
10
24.1970125
20
32.4921625
30
0
42
0.36648739915395223
0
VERTEX
8
0
10
24.5364
20
32.893
30
0
0
VERTEX
8
0
10
24.5364
20
35.56
30
0
42
0.41421356237309503
0
VERTEX
8
0
10
24.130000000000003
20
35.9664
30
0
0
VERTEX
8
0
10
16.51
20
35.9664
30
0
42
0.920803015538475
0
VERTEX
8
0
10
16.443315625
20
35.159109375
30
0
0
VERTEX
8
0
10
16.51
20
35.153600000000004
30
0
0
VERTEX
8
0
10
23.7236
20
35.153600000000004
30
0
0
VERTEX
8
0
10
23.7236
20
32.893
30
0
0
VERTEX
8
0
10
23.726721875000003
20
32.842721875
30
0
0
VERTEX
8
0
10
23.736040625
20
32.79321875
30
0
0
VERTEX
8
0
10
23.751409375
20
32.745246875
30
0
0
VERTEX
8
0
10
23.7726
20
32.699543750000004
30
0
0
VERTEX
8
0
10
23.799278125
20
32.656815625
30
0
0
VERTEX
8
0
10
23.8310375
20
32.617715625
30
0
0
VERTEX
8
0
10
23.867390625000002
20
32.58284375
30
0
0
VERTEX
8
0
10
23.907778125
20
32.5527375
30
0
0
VERTEX
8
0
10
23.95158125
20
32.527859375
30
0
0
VERTEX
8
0
10
23.998125
20
32.508590625000004
30
0
0
VERTEX
8
0
10
24.046693750000003
20
32.49523125
30
0
0
VERTEX
8
0
10
24.096543750000002
20
32.487978125000005
30
0
0
VERTEX
8
0
10
24.146909375
20
32.486953125
30
0
0
SEQEND
0
POLYLINE
66
1
8
16_copper
10
0.0
20
0.0
30
0.0
70
1
0
VERTEX
8
0
10
16.583940625
20
35.188271875000005
30
0
42
0.5490021925923434
0
VERTEX
8
0
10
16.8148
20
35.784040625
30
0
0
VERTEX
8
0
10
16.8148
20
41.006775000000005
30
0
42
0.198912367379658
0
VERTEX
8
0
10
16.725525
20
41.222300000000004
30
0
0
VERTEX
8
0
10
16.5481
20
41.399725000000004
30
0
0
VERTEX
8
0
10
16.5481
20
42.420275000000004
30
0
0
VERTEX
8
0
10
16.725525
20
42.5977
30
0
42
0.198912367379658
0
VERTEX
8
0
10
16.8148
20
42.813225
30
0
0
VERTEX
8
0
10
16.8148
20
43.18
30
0
42
0.1622781862971499
0
VERTEX
8
0
10
16.753840625000002
20
43.36288125
30
0
0
VERTEX
8
0
10
13.0782
20
48.263734375000006
30
0
42
0.9630313242992362
0
VERTEX
8
0
10
12.321800000000001
20
48.2847875
30
0
0
VERTEX
8
0
10
12.321800000000001
20
48.2352125
30
0
42
0.3127006886036071
0
VERTEX
8
0
10
12.590684375
20
47.89775
30
0
0
VERTEX
8
0
10
16.2052
20
43.078396875
30
0
0
VERTEX
8
0
10
16.2052
20
42.939475
30
0
0
VERTEX
8
0
10
16.027775000000002
20
42.76205
30
0
42
0.198912367379658
0
VERTEX
8
0
10
15.938500000000001
20
42.546525
30
0
0
VERTEX
8
0
10
15.938500000000001
20
41.273475000000005
30
0
42
0.198912367379658
0
VERTEX
8
0
10
16.027775000000002
20
41.057950000000005
30
0
0
VERTEX
8
0
10
16.2052
20
40.880525
30
0
0
VERTEX
8
0
10
16.2052
20
35.784040625
30
0
0
VERTEX
8
0
10
16.1948625
20
35.77056875
30
0
0
VERTEX
8
0
10
16.170075
20
35.72763125
30
0
0
VERTEX
8
0
10
16.151103125000002
20
35.681828125
30
0
0
VERTEX
8
0
10
16.138271875
20
35.633940625
30
0
0
VERTEX
8
0
10
16.131800000000002
20
35.584787500000004
30
0
0
VERTEX
8
0
10
16.131800000000002
20
35.5352125
30
0
0
VERTEX
8
0
10
16.138271875
20
35.486059375
30
0
0
VERTEX
8
0
10
16.151103125000002
20
35.438171875
30
0
0
VERTEX
8
0
10
16.170075
20
35.39236875
30
0
0
VERTEX
8
0
10
16.1948625
20
35.34943125
30
0
0
VERTEX
8
0
10
16.22504375
20
35.3101
30
0
0
VERTEX
8
0
10
16.2601
20
35.27504375
30
0
0
VERTEX
8
0
10
16.29943125
20
35.2448625
30
0
0
VERTEX
8
0
10
16.342368750000002
20
35.220075
30
0
0
VERTEX
8
0
10
16.388171875
20
35.201103125
30
0
0
VERTEX
8
0
10
16.436059375
20
35.188271875000005
30
0
0
VERTEX
8
0
10
16.4852125
20
35.1818
30
0
0
VERTEX
8
0
10
16.5347875
20
35.1818
30
0
0
SEQEND
0
POLYLINE
66
1
8
1_copper
10
0.0
20
0.0
30
0.0
70
1
0
VERTEX
8
0
10
18.53
20
47.32
30
0
0
VERTEX
8
0
10
18.186400000000003
20
47.32
30
0
0
VERTEX
8
0
10
18.186400000000003
20
49.53
30
0
42
0.9999999999999999
0
VERTEX
8
0
10
17.3736
20
49.53
30
0
0
VERTEX
8
0
10
17.3736
20
47.32
30
0
0
VERTEX
8
0
10
17.03
20
47.32
30
0
0
VERTEX
8
0
10
17.03
20
46.02
30
0
0
VERTEX
8
0
10
18.53
20
46.02
30
0
0
SEQEND
0
POLYLINE
66
1
8
1_copper
10
0.0
20
0.0
30
0.0
70
1
0
VERTEX
8
0
10
21.640278125000002
20
32.743721875
30
0
42
0.8886893301523037
0
VERTEX
8
0
10
21.635059375
20
33.549678125
30
0
0
VERTEX
8
0
10
20.607368750000003
20
34.577368750000005
30
0
42
0.198912367379658
0
VERTEX
8
0
10
20.32
20
34.696400000000004
30
0
0
VERTEX
8
0
10
17.40323125
20
34.696400000000004
30
0
42
0.2519155893417986
0
VERTEX
8
0
10
17.05709375
20
34.8742
30
0
0
VERTEX
8
0
10
15.962906250000001
20
34.8742
30
0
42
0.2519155893417986
0
VERTEX
8
0
10
15.61676875
20
34.696400000000004
30
0
0
VERTEX
8
0
10
15.4083375
20
34.696400000000004
30
0
0
VERTEX
8
0
10
14.257368750000001
20
35.84736875
30
0
42
0.198912367379658
0
VERTEX
8
0
10
13.97
20
35.9664
30
0
0
VERTEX
8
0
10
10.5664
20
35.9664
30
0
0
VERTEX
8
0
10
10.5664
20
48.260000000000005
30
0
42
0.9999999999999999
0
VERTEX
8
0
10
9.7536
20
48.260000000000005
30
0
0
VERTEX
8
0
10
9.7536
20
35.56
30
0
42
0.41421356237309503
0
VERTEX
8
0
10
10.16
20
35.153600000000004
30
0
0
VERTEX
8
0
10
13.8016625
20
35.153600000000004
30
0
0
VERTEX
8
0
10
14.952631250000001
20
34.00263125
30
0
42
0.198912367379658
0
VERTEX
8
0
10
15.24
20
33.8836
30
0
0
VERTEX
8
0
10
15.78510625
20
33.8836
30
0
42
0.2519155893417986
0
VERTEX
8
0
10
16.13124375
20
34.0614
30
0
0
VERTEX
8
0
10
16.88875625
20
34.0614
30
0
42
0.2519155893417986
0
VERTEX
8
0
10
17.23489375
20
33.8836
30
0
0
VERTEX
8
0
10
20.1516625
20
33.8836
30
0
0
VERTEX
8
0
10
21.175631250000002
20
32.85963125
30
0
0
VERTEX
8
0
10
21.17570625
20
32.859565625
30
0
0
VERTEX
8
0
10
21.17575
20
32.859515625
30
0
0
VERTEX
8
0
10
21.190996875
20
32.8460625
30
0
0
VERTEX
8
0
10
21.213390625000002
20
32.8262875
30
0
0
VERTEX
8
0
10
21.21346875
20
32.826234375
30
0
0
VERTEX
8
0
10
21.213521875
20
32.8261875
30
0
0
VERTEX
8
0
10
21.231315625
20
32.81404375
30
0
0
VERTEX
8
0
10
21.254984375
20
32.797871875
30
0
0
VERTEX
8
0
10
21.255065625
20
32.79783125
30
0
0
VERTEX
8
0
10
21.255128125000002
20
32.7977875
30
0
0
VERTEX
8
0
10
21.27486875
20
32.7876375
30
0
0
VERTEX
8
0
10
21.299775
20
32.77481875
30
0
0
VERTEX
8
0
10
21.2998625
20
32.7747875
30
0
0
VERTEX
8
0
10
21.299928125
20
32.774753125000004
30
0
0
VERTEX
8
0
10
21.321296875
20
32.76693125
30
0
0
VERTEX
8
0
10
21.347071875
20
32.757484375000004
30
0
0
VERTEX
8
0
10
21.34715625
20
32.757465625
30
0
0
VERTEX
8
0
10
21.34723125
20
32.7574375
30
0
0
VERTEX
8
0
10
21.36899375
20
32.752415625000005
30
0
0
VERTEX
8
0
10
21.396153125
20
32.746134375000004
30
0
0
VERTEX
8
0
10
21.396250000000002
20
32.746125
30
0
0
VERTEX
8
0
10
21.396315625
20
32.746109375
30
0
0
VERTEX
8
0
10
21.39670625
20
32.746078125000004
30
0
0
VERTEX
8
0
10
21.446259375
20
32.74094375
30
0
0
VERTEX
8
0
10
21.456303125
20
32.741153125000004
30
0
0
VERTEX
8
0
10
21.463
20
32.7406
30
0
0
VERTEX
8
0
10
21.59
20
32.7406
30
0
0
SEQEND
0
POLYLINE
66
1
8
16_copper
10
0.0
20
0.0
30
0.0
70
1
0
VERTEX
8
0
10
10.2270125
20
47.859162500000004
30
0
42
0.36648739915395223
0
VERTEX
8
0
10
10.5664
20
48.260000000000005
30
0
0
VERTEX
8
0
10
10.5664
20
49.1236
30
0
0
VERTEX
8
0
10
13.076768750000001
20
49.1236
30
0
42
0.2519155893417986
0
VERTEX
8
0
10
13.42290625
20
48.945800000000006
30
0
0
VERTEX
8
0
10
14.51709375
20
48.945800000000006
30
0
42
0.2519155893417986
0
VERTEX
8
0
10
14.86323125
20
49.1236
30
0
0
VERTEX
8
0
10
17.78
20
49.1236
30
0
42
0.9999999999999999
0
VERTEX
8
0
10
17.78
20
49.9364
30
0
0
VERTEX
8
0
10
14.69489375
20
49.9364
30
0
42
0.2519155893417986
0
VERTEX
8
0
10
14.348756250000001
20
49.7586
30
0
0
VERTEX
8
0
10
13.59124375
20
49.7586
30
0
42
0.2519155893417986
0
VERTEX
8
0
10
13.245106250000001
20
49.9364
30
0
0
VERTEX
8
0
10
10.16
20
49.9364
30
0
42
0.41421356237309503
0
VERTEX
8
0
10
9.7536
20
49.53
30
0
0
VERTEX
8
0
10
9.7536
20
48.260000000000005
30
0
0
VERTEX
8
0
10
9.756721875
20
48.209721875
30
0
0
VERTEX
8
0
10
9.766040625
20
48.160218750000006
30
0
0
VERTEX
8
0
10
9.781409375
20
48.112246875000004
30
0
0
VERTEX
8
0
10
9.8026
20
48.06654375
30
0
0
VERTEX
8
0
10
9.829278125
20
48.023815625000005
30
0
0
VERTEX
8
0
10
9.8610375
20
47.984715625
30
0
0
VERTEX
8
0
10
9.897390625
20
47.94984375
30
0
0
VERTEX
8
0
10
9.937778125000001
20
47.919737500000004
30
0
0
VERTEX
8
0
10
9.98158125
20
47.894859375
30
0
0
VERTEX
8
0
10
10.028125000000001
20
47.875590625
30
0
0
VERTEX
8
0
10
10.07669375
20
47.86223125
30
0
0
VERTEX
8
0
10
10.12654375
20
47.854978125
30
0
0
VERTEX
8
0
10
10.176909375000001
20
47.853953125000004
30
0
0
SEQEND
0
POLYLINE
66
1
8
1_copper
10
0.0
20
0.0
30
0.0
70
1
0
VERTEX
8
0
10
18.53
20
39.7
30
0
0
VERTEX
8
0
10
18.186400000000003
20
39.7
30
0
0
VERTEX
8
0
10
18.186400000000003
20
40.8305
30
0
0
VERTEX
8
0
10
18.227140625
20
40.8305
30
0
0
VERTEX
8
0
10
18.8595
20
41.462859375
30
0
0
VERTEX
8
0
10
18.8595
20
42.357140625
30
0
0
VERTEX
8
0
10
18.227140625
20
42.9895
30
0
0
VERTEX
8
0
10
18.186400000000003
20
42.9895
30
0
0
VERTEX
8
0
10
18.186400000000003
20
44.120000000000005
30
0
0
VERTEX
8
0
10
18.53
20
44.120000000000005
30
0
0
VERTEX
8
0
10
18.53
20
45.42
30
0
0
VERTEX
8
0
10
17.03
20
45.42
30
0
0
VERTEX
8
0
10
17.03
20
44.120000000000005
30
0
0
VERTEX
8
0
10
17.3736
20
44.120000000000005
30
0
0
VERTEX
8
0
10
17.3736
20
42.9895
30
0
0
VERTEX
8
0
10
17.332859375
20
42.9895
30
0
0
VERTEX
8
0
10
16.7005
20
42.357140625
30
0
0
VERTEX
8
0
10
16.7005
20
41.462859375
30
0
0
VERTEX
8
0
10
17.332859375
20
40.8305
30
0
0
VERTEX
8
0
10
17.3736
20
40.8305
30
0
0
VERTEX
8
0
10
17.3736
20
39.7
30
0
0
VERTEX
8
0
10
17.03
20
39.7
30
0
0
VERTEX
8
0
10
17.03
20
38.4
30
0
0
VERTEX
8
0
10
18.53
20
38.4
30
0
0
SEQEND
0
POLYLINE
66
1
8
16_copper
10
0.0
20
0.0
30
0.0
70
1
0
VERTEX
8
0
10
18.8595
20
41.462859375
30
0
0
VERTEX
8
0
10
18.8595
20
42.357140625
30
0
0
VERTEX
8
0
10
18.227140625
20
42.9895
30
0
0
VERTEX
8
0
10
17.332859375
20
42.9895
30
0
0
VERTEX
8
0
10
16.7005
20
42.357140625
30
0
0
VERTEX
8
0
10
16.7005
20
41.462859375
30
0
0
VERTEX
8
0
10
17.332859375
20
40.8305
30
0
0
VERTEX
8
0
10
18.227140625
20
40.8305
30
0
0
SEQEND
0
POLYLINE
66
1
8
1_copper
10
0.0
20
0.0
30
0.0
70
1
0
VERTEX
8
0
10
13.450000000000001
20
39.7
30
0
0
VERTEX
8
0
10
12.776200000000001
20
39.7
30
0
0
VERTEX
8
0
10
12.776200000000001
20
40.8305
30
0
0
VERTEX
8
0
10
13.147140625
20
40.8305
30
0
0
VERTEX
8
0
10
13.7795
20
41.462859375
30
0
0
VERTEX
8
0
10
13.7795
20
42.357140625
30
0
0
VERTEX
8
0
10
13.147140625
20
42.9895
30
0
0
VERTEX
8
0
10
12.776200000000001
20
42.9895
30
0
0
VERTEX
8
0
10
12.776200000000001
20
44.120000000000005
30
0
0
VERTEX
8
0
10
13.450000000000001
20
44.120000000000005
30
0
0
VERTEX
8
0
10
13.450000000000001
20
45.42
30
0
0
VERTEX
8
0
10
11.950000000000001
20
45.42
30
0
0
VERTEX
8
0
10
11.950000000000001
20
44.120000000000005
30
0
0
VERTEX
8
0
10
12.623800000000001
20
44.120000000000005
30
0
0
VERTEX
8
0
10
12.623800000000001
20
42.9895
30
0
0
VERTEX
8
0
10
12.252859375
20
42.9895
30
0
0
VERTEX
8
0
10
11.6205
20
42.357140625
30
0
0
VERTEX
8
0
10
11.6205
20
41.462859375
30
0
0
VERTEX
8
0
10
12.252859375
20
40.8305
30
0
0
VERTEX
8
0
10
12.623800000000001
20
40.8305
30
0
0
VERTEX
8
0
10
12.623800000000001
20
39.7
30
0
0
VERTEX
8
0
10
11.950000000000001
20
39.7
30
0
0
VERTEX
8
0
10
11.950000000000001
20
38.4
30
0
0
VERTEX
8
0
10
13.450000000000001
20
38.4
30
0
0
SEQEND
0
POLYLINE
66
1
8
16_copper
10
0.0
20
0.0
30
0.0
70
1
0
VERTEX
8
0
10
13.7795
20
41.462859375
30
0
0
VERTEX
8
0
10
13.7795
20
42.357140625
30
0
0
VERTEX
8
0
10
13.147140625
20
42.9895
30
0
0
VERTEX
8
0
10
12.252859375
20
42.9895
30
0
0
VERTEX
8
0
10
11.6205
20
42.357140625
30
0
0
VERTEX
8
0
10
11.6205
20
41.462859375
30
0
0
VERTEX
8
0
10
12.252859375
20
40.8305
30
0
0
VERTEX
8
0
10
13.147140625
20
40.8305
30
0
0
SEQEND
0
POLYLINE
66
1
8
1_copper
10
0.0
20
0.0
30
0.0
70
1
0
VERTEX
8
0
10
21.07
20
39.7
30
0
0
VERTEX
8
0
10
20.7264
20
39.7
30
0
0
VERTEX
8
0
10
20.7264
20
40.8305
30
0
0
VERTEX
8
0
10
20.767140625
20
40.8305
30
0
0
VERTEX
8
0
10
21.3995
20
41.462859375
30
0
0
VERTEX
8
0
10
21.3995
20
42.357140625
30
0
0
VERTEX
8
0
10
20.767140625
20
42.9895
30
0
0
VERTEX
8
0
10
20.7264
20
42.9895
30
0
0
VERTEX
8
0
10
20.7264
20
44.120000000000005
30
0
0
VERTEX
8
0
10
21.07
20
44.120000000000005
30
0
0
VERTEX
8
0
10
21.07
20
45.42
30
0
0
VERTEX
8
0
10
19.57
20
45.42
30
0
0
VERTEX
8
0
10
19.57
20
44.120000000000005
30
0
0
VERTEX
8
0
10
19.913600000000002
20
44.120000000000005
30
0
0
VERTEX
8
0
10
19.913600000000002
20
42.9895
30
0
0
VERTEX
8
0
10
19.872859375
20
42.9895
30
0
0
VERTEX
8
0
10
19.2405
20
42.357140625
30
0
0
VERTEX
8
0
10
19.2405
20
41.462859375
30
0
0
VERTEX
8
0
10
19.872859375
20
40.8305
30
0
0
VERTEX
8
0
10
19.913600000000002
20
40.8305
30
0
0
VERTEX
8
0
10
19.913600000000002
20
39.7
30
0
0
VERTEX
8
0
10
19.57
20
39.7
30
0
0
VERTEX
8
0
10
19.57
20
38.4
30
0
0
VERTEX
8
0
10
21.07
20
38.4
30
0
0
SEQEND
0
POLYLINE
66
1
8
16_copper
10
0.0
20
0.0
30
0.0
70
1
0
VERTEX
8
0
10
21.3995
20
41.462859375
30
0
0
VERTEX
8
0
10
21.3995
20
42.357140625
30
0
0
VERTEX
8
0
10
20.767140625
20
42.9895
30
0
0
VERTEX
8
0
10
19.872859375
20
42.9895
30
0
0
VERTEX
8
0
10
19.2405
20
42.357140625
30
0
0
VERTEX
8
0
10
19.2405
20
41.462859375
30
0
0
VERTEX
8
0
10
19.872859375
20
40.8305
30
0
0
VERTEX
8
0
10
20.767140625
20
40.8305
30
0
0
SEQEND
0
POLYLINE
66
1
8
1_copper
10
0.0
20
0.0
30
0.0
70
1
0
VERTEX
8
0
10
23.61
20
44.120000000000005
30
0
0
VERTEX
8
0
10
23.61
20
45.42
30
0
0
VERTEX
8
0
10
22.11
20
45.42
30
0
0
VERTEX
8
0
10
22.11
20
44.120000000000005
30
0
0
VERTEX
8
0
10
22.4536
20
44.120000000000005
30
0
0
VERTEX
8
0
10
22.4536
20
39.7
30
0
0
VERTEX
8
0
10
22.11
20
39.7
30
0
0
VERTEX
8
0
10
22.11
20
38.4
30
0
0
VERTEX
8
0
10
23.61
20
38.4
30
0
0
VERTEX
8
0
10
23.61
20
39.7
30
0
0
VERTEX
8
0
10
23.2664
20
39.7
30
0
0
VERTEX
8
0
10
23.2664
20
44.120000000000005
30
0
0
SEQEND
0
POLYLINE
66
1
8
16_copper
10
0.0
20
0.0
30
0.0
70
1
0
VERTEX
8
0
10
17.85925
20
11.299050000000001
30
0
42
0.36946801241560906
0
VERTEX
8
0
10
18.074
20
11.55
30
0
0
VERTEX
8
0
10
18.074
20
21.524787500000002
30
0
0
VERTEX
8
0
10
20.49960625
20
23.95039375
30
0
42
0.198912367379658
0
VERTEX
8
0
10
20.574
20
24.130000000000003
30
0
0
VERTEX
8
0
10
20.574
20
27.8347875
30
0
0
VERTEX
8
0
10
23.039606250000002
20
30.30039375
30
0
42
0.198912367379658
0
VERTEX
8
0
10
23.114
20
30.48
30
0
0
VERTEX
8
0
10
23.114
20
41.629143750000004
30
0
42
0.9923891646940391
0
VERTEX
8
0
10
22.610100000000003
20
42.194956250000004
30
0
0
VERTEX
8
0
10
22.575043750000003
20
42.1599
30
0
42
0.4097452777413187
0
VERTEX
8
0
10
22.606
20
41.629143750000004
30
0
0
VERTEX
8
0
10
22.606
20
30.5852125
30
0
0
VERTEX
8
0
10
20.14039375
20
28.11960625
30
0
42
0.198912367379658
0
VERTEX
8
0
10
20.066000000000003
20
27.94
30
0
0
VERTEX
8
0
10
20.066000000000003
20
24.235212500000003
30
0
0
VERTEX
8
0
10
17.600393750000002
20
21.769606250000002
30
0
42
0.3042251436172271
0
VERTEX
8
0
10
17.546365625
20
21.49234375
30
0
0
VERTEX
8
0
10
17.553321875
20
21.475403125
30
0
42
0.021671798362890574
0
VERTEX
8
0
10
17.566000000000003
20
21.454559375000002
30
0
0
VERTEX
8
0
10
17.566000000000003
20
11.55
30
0
0
VERTEX
8
0
10
17.56911875
20
11.510309375
30
0
0
VERTEX
8
0
10
17.578403125
20
11.47159375
30
0
0
VERTEX
8
0
10
17.593625
20
11.434806250000001
30
0
0
VERTEX
8
0
10
17.614406250000002
20
11.400846875000001
30
0
0
VERTEX
8
0
10
17.6402375
20
11.370553125
30
0
0
VERTEX
8
0
10
17.6704875
20
11.344665625000001
30
0
0
VERTEX
8
0
10
17.704409375
20
11.323825000000001
30
0
0
VERTEX
8
0
10
17.741171875
20
11.308540625000001
30
0
0
VERTEX
8
0
10
17.779868750000002
20
11.299190625000001
30
0
0
VERTEX
8
0
10
17.819553125000002
20
11.296000000000001
30
0
0
SEQEND
0
POLYLINE
66
1
8
1_copper
10
0.0
20
0.0
30
0.0
70
1
0
VERTEX
8
0
10
28.69
20
44.120000000000005
30
0
0
VERTEX
8
0
10
28.69
20
45.42
30
0
0
VERTEX
8
0
10
27.19
20
45.42
30
0
0
VERTEX
8
0
10
27.19
20
44.120000000000005
30
0
0
VERTEX
8
0
10
27.5336
20
44.120000000000005
30
0
0
VERTEX
8
0
10
27.5336
20
39.7
30
0
0
VERTEX
8
0
10
27.19
20
39.7
30
0
0
VERTEX
8
0
10
27.19
20
38.4
30
0
0
VERTEX
8
0
10
28.69
20
38.4
30
0
0
VERTEX
8
0
10
28.69
20
39.7
30
0
0
VERTEX
8
0
10
28.346400000000003
20
39.7
30
0
0
VERTEX
8
0
10
28.346400000000003
20
44.120000000000005
30
0
0
SEQEND
0
POLYLINE
66
1
8
16_copper
10
0.0
20
0.0
30
0.0
70
1
0
VERTEX
8
0
10
21.570315625000003
20
43.432453125
30
0
42
0.3916014460306381
0
VERTEX
8
0
10
21.336000000000002
20
43.18
30
0
0
VERTEX
8
0
10
21.336000000000002
20
42.74138125
30
0
42
0.198912367379658
0
VERTEX
8
0
10
21.41039375
20
42.561775000000004
30
0
0
VERTEX
8
0
10
21.5519
20
42.420268750000005
30
0
0
VERTEX
8
0
10
21.5519
20
35.30009375
30
0
0
VERTEX
8
0
10
20.11499375
20
33.8631875
30
0
42
0.198912367379658
0
VERTEX
8
0
10
20.0406
20
33.68358125
30
0
0
VERTEX
8
0
10
20.0406
20
30.559812500000003
30
0
0
VERTEX
8
0
10
17.600393750000002
20
28.11960625
30
0
42
0.20441828327353742
0
VERTEX
8
0
10
17.52605625
20
27.934625
30
0
0
VERTEX
8
0
10
17.552921875
20
26.66519375
30
0
42
0.3274672133348302
0
VERTEX
8
0
10
17.735803125
20
26.426918750000002
30
0
0
VERTEX
8
0
10
17.743815625
20
26.0483875
30
0
42
0.9999999999999999
0
VERTEX
8
0
10
17.896184375
20
26.0516125
30
0
0
VERTEX
8
0
10
17.888175
20
26.43008125
30
0
42
0.3274881565726946
0
VERTEX
8
0
10
18.060809375
20
26.675943750000002
30
0
0
VERTEX
8
0
10
18.036237500000002
20
27.837025
30
0
0
VERTEX
8
0
10
20.47420625
20
30.27499375
30
0
42
0.21610879654752924
0
VERTEX
8
0
10
20.5486
20
30.48
30
0
0
VERTEX
8
0
10
20.5486
20
33.57836875
30
0
0
VERTEX
8
0
10
21.98550625
20
35.015275
30
0
42
0.198912367379658
0
VERTEX
8
0
10
22.059900000000003
20
35.19488125
30
0
0
VERTEX
8
0
10
22.059900000000003
20
42.52548125
30
0
42
0.198912367379658
0
VERTEX
8
0
10
21.98550625
20
42.705087500000005
30
0
0
VERTEX
8
0
10
21.844
20
42.846593750000004
30
0
0
VERTEX
8
0
10
21.844
20
42.926
30
0
0
VERTEX
8
0
10
26.5647875
20
42.926
30
0
0
VERTEX
8
0
10
27.5618
20
41.928987500000005
30
0
42
0.9923868960061771
0
VERTEX
8
0
10
28.3182
20
41.8852125
30
0
0
VERTEX
8
0
10
28.3182
20
41.9347875
30
0
42
0.40974394282901455
0
VERTEX
8
0
10
27.9210125
20
42.2882
30
0
0
VERTEX
8
0
10
26.84960625
20
43.35960625
30
0
42
0.198912367379658
0
VERTEX
8
0
10
26.67
20
43.434000000000005
30
0
0
VERTEX
8
0
10
21.59
20
43.434000000000005
30
0
0
SEQEND
0
POLYLINE
66
1
8
1_copper
10
0.0
20
0.0
30
0.0
70
1
0
VERTEX
8
0
10
15.99
20
44.120000000000005
30
0
0
VERTEX
8
0
10
15.99
20
45.42
30
0
0
VERTEX
8
0
10
14.49
20
45.42
30
0
0
VERTEX
8
0
10
14.49
20
44.120000000000005
30
0
0
VERTEX
8
0
10
14.8336
20
44.120000000000005
30
0
0
VERTEX
8
0
10
14.8336
20
39.7
30
0
0
VERTEX
8
0
10
14.49
20
39.7
30
0
0
VERTEX
8
0
10
14.49
20
38.4
30
0
0
VERTEX
8
0
10
15.99
20
38.4
30
0
0
VERTEX
8
0
10
15.99
20
39.7
30
0
0
VERTEX
8
0
10
15.6464
20
39.7
30
0
0
VERTEX
8
0
10
15.6464
20
44.120000000000005
30
0
0
SEQEND
0
POLYLINE
66
1
8
1_copper
10
0.0
20
0.0
30
0.0
70
1
0
VERTEX
8
0
10
33.129512500000004
20
5.949978125
30
0
42
0.3639697834944294
0
VERTEX
8
0
10
33.858200000000004
20
6.745203125000001
30
0
0
VERTEX
8
0
10
33.858200000000004
20
8.494796875
30
0
42
0.9572914311583669
0
VERTEX
8
0
10
32.1818
20
8.494796875
30
0
0
VERTEX
8
0
10
32.1818
20
6.745203125000001
30
0
0
VERTEX
8
0
10
32.188178125
20
6.6722875
30
0
0
VERTEX
8
0
10
32.200890625
20
6.60020625
30
0
0
VERTEX
8
0
10
32.219834375000005
20
6.529509375
30
0
0
VERTEX
8
0
10
32.244865625
20
6.460728125
30
0
0
VERTEX
8
0
10
32.275800000000004
20
6.39439375
30
0
0
VERTEX
8
0
10
32.312396875000005
20
6.331006250000001
30
0
0
VERTEX
8
0
10
32.354378125000004
20
6.271050000000001
30
0
0
VERTEX
8
0
10
32.401425
20
6.21498125
30
0
0
VERTEX
8
0
10
32.45318125
20
6.163225000000001
30
0
0
VERTEX
8
0
10
32.50925
20
6.116178125
30
0
0
VERTEX
8
0
10
32.56920625
20
6.074196875
30
0
0
VERTEX
8
0
10
32.63259375
20
6.0376
30
0
0
VERTEX
8
0
10
32.698928125
20
6.006665625
30
0
0
VERTEX
8
0
10
32.767709375
20
5.9816343750000005
30
0
0
VERTEX
8
0
10
32.83840625
20
5.9626906250000005
30
0
0
VERTEX
8
0
10
32.9104875
20
5.949978125
30
0
0
VERTEX
8
0
10
32.983403125
20
5.9436
30
0
0
VERTEX
8
0
10
33.056596875000004
20
5.9436
30
0
0
SEQEND
0
POLYLINE
66
1
8
16_copper
10
0.0
20
0.0
30
0.0
70
1
0
VERTEX
8
0
10
33.129512500000004
20
5.949978125
30
0
42
0.3639697834944294
0
VERTEX
8
0
10
33.858200000000004
20
6.745203125000001
30
0
0
VERTEX
8
0
10
33.858200000000004
20
8.494796875
30
0
42
0.8121553186336157
0
VERTEX
8
0
10
32.238215625
20
8.760996875
30
0
0
VERTEX
8
0
10
31.929606250000003
20
9.06960625
30
0
42
0.198912367379658
0
VERTEX
8
0
10
31.75
20
9.144
30
0
0
VERTEX
8
0
10
18.944156250000002
20
9.144
30
0
0
VERTEX
8
0
10
16.913600000000002
20
11.17455625
30
0
42
0.3039274534654881
0
VERTEX
8
0
10
16.83920625
20
11.460006250000001
30
0
0
VERTEX
8
0
10
16.764
20
11.5352125
30
0
0
VERTEX
8
0
10
16.764
20
22.86
30
0
42
0.198912367379658
0
VERTEX
8
0
10
16.68960625
20
23.039606250000002
30
0
0
VERTEX
8
0
10
15.494000000000002
20
24.235212500000003
30
0
0
VERTEX
8
0
10
15.494000000000002
20
33.27536875
30
0
42
0.198912367379658
0
VERTEX
8
0
10
15.419606250000001
20
33.454975000000005
30
0
0
VERTEX
8
0
10
14.633575
20
34.24100625
30
0
42
0.198912367379658
0
VERTEX
8
0
10
14.453968750000001
20
34.315400000000004
30
0
0
VERTEX
8
0
10
14.303812500000001
20
34.315400000000004
30
0
0
VERTEX
8
0
10
14.224
20
34.3952125
30
0
0
VERTEX
8
0
10
14.224
20
40.5347875
30
0
0
VERTEX
8
0
10
15.2210125
20
41.531800000000004
30
0
42
0.9923868960061771
0
VERTEX
8
0
10
15.2647875
20
42.2882
30
0
0
VERTEX
8
0
10
15.215212500000002
20
42.2882
30
0
42
0.40974394282901455
0
VERTEX
8
0
10
14.8618
20
41.8910125
30
0
0
VERTEX
8
0
10
13.79039375
20
40.81960625
30
0
42
0.198912367379658
0
VERTEX
8
0
10
13.716000000000001
20
40.64
30
0
0
VERTEX
8
0
10
13.716000000000001
20
34.29
30
0
42
0.198912367379658
0
VERTEX
8
0
10
13.79039375
20
34.11039375
30
0
0
VERTEX
8
0
10
14.01899375
20
33.88179375
30
0
42
0.198912367379658
0
VERTEX
8
0
10
14.1986
20
33.8074
30
0
0
VERTEX
8
0
10
14.348756250000001
20
33.8074
30
0
0
VERTEX
8
0
10
14.986
20
33.170156250000005
30
0
0
VERTEX
8
0
10
14.986
20
24.130000000000003
30
0
42
0.198912367379658
0
VERTEX
8
0
10
15.060393750000001
20
23.95039375
30
0
0
VERTEX
8
0
10
16.256
20
22.754787500000003
30
0
0
VERTEX
8
0
10
16.256
20
11.43
30
0
42
0.30439739088943346
0
VERTEX
8
0
10
16.4056
20
11.1751875
30
0
0
VERTEX
8
0
10
16.4056
20
11.06934375
30
0
42
0.198912367379658
0
VERTEX
8
0
10
16.479993750000002
20
10.8897375
30
0
0
VERTEX
8
0
10
18.6593375
20
8.71039375
30
0
42
0.198912367379658
0
VERTEX
8
0
10
18.838943750000002
20
8.636000000000001
30
0
0
VERTEX
8
0
10
31.644787500000003
20
8.636000000000001
30
0
0
VERTEX
8
0
10
32.1818
20
8.0989875
30
0
0
VERTEX
8
0
10
32.1818
20
6.745203125000001
30
0
0
VERTEX
8
0
10
32.188178125
20
6.6722875
30
0
0
VERTEX
8
0
10
32.200890625
20
6.60020625
30
0
0
VERTEX
8
0
10
32.219834375000005
20
6.529509375
30
0
0
VERTEX
8
0
10
32.244865625
20
6.460728125
30
0
0
VERTEX
8
0
10
32.275800000000004
20
6.39439375
30
0
0
VERTEX
8
0
10
32.312396875000005
20
6.331006250000001
30
0
0
VERTEX
8
0
10
32.354378125000004
20
6.271050000000001
30
0
0
VERTEX
8
0
10
32.401425
20
6.21498125
30
0
0
VERTEX
8
0
10
32.45318125
20
6.163225000000001
30
0
0
VERTEX
8
0
10
32.50925
20
6.116178125
30
0
0
VERTEX
8
0
10
32.56920625
20
6.074196875
30
0
0
VERTEX
8
0
10
32.63259375
20
6.0376
30
0
0
VERTEX
8
0
10
32.698928125
20
6.006665625
30
0
0
VERTEX
8
0
10
32.767709375
20
5.9816343750000005
30
0
0
VERTEX
8
0
10
32.83840625
20
5.9626906250000005
30
0
0
VERTEX
8
0
10
32.9104875
20
5.949978125
30
0
0
VERTEX
8
0
10
32.983403125
20
5.9436
30
0
0
VERTEX
8
0
10
33.056596875000004
20
5.9436
30
0
0
SEQEND
0
POLYLINE
66
1
8
1_copper
10
0.0
20
0.0
30
0.0
70
1
0
VERTEX
8
0
10
26.150000000000002
20
44.120000000000005
30
0
0
VERTEX
8
0
10
26.150000000000002
20
45.42
30
0
0
VERTEX
8
0
10
24.650000000000002
20
45.42
30
0
0
VERTEX
8
0
10
24.650000000000002
20
44.120000000000005
30
0
0
VERTEX
8
0
10
24.9936
20
44.120000000000005
30
0
0
VERTEX
8
0
10
24.9936
20
39.7
30
0
0
VERTEX
8
0
10
24.650000000000002
20
39.7
30
0
0
VERTEX
8
0
10
24.650000000000002
20
38.4
30
0
0
VERTEX
8
0
10
26.150000000000002
20
38.4
30
0
0
VERTEX
8
0
10
26.150000000000002
20
39.7
30
0
0
VERTEX
8
0
10
25.8064
20
39.7
30
0
0
VERTEX
8
0
10
25.8064
20
44.120000000000005
30
0
0
SEQEND
0
POLYLINE
66
1
8
16_copper
10
0.0
20
0.0
30
0.0
70
1
0
VERTEX
8
0
10
22.915268750000003
20
11.24858125
30
0
42
0.3715194375369281
0
VERTEX
8
0
10
23.1748
20
11.550346875
30
0
0
VERTEX
8
0
10
23.164943750000003
20
20.19389375
30
0
0
VERTEX
8
0
10
25.615525
20
22.644475
30
0
42
0.198912367379658
0
VERTEX
8
0
10
25.704800000000002
20
22.86
30
0
0
VERTEX
8
0
10
25.704800000000002
20
34.0200625
30
0
0
VERTEX
8
0
10
26.95736875
20
35.27263125
30
0
42
0.198912367379658
0
VERTEX
8
0
10
27.0764
20
35.56
30
0
0
VERTEX
8
0
10
27.0764
20
40.64
30
0
42
0.198912367379658
0
VERTEX
8
0
10
26.95736875
20
40.92736875
30
0
0
VERTEX
8
0
10
25.68736875
20
42.19736875
30
0
42
0.9999999999999999
0
VERTEX
8
0
10
25.11263125
20
41.622631250000005
30
0
0
VERTEX
8
0
10
26.2636
20
40.4716625
30
0
0
VERTEX
8
0
10
26.2636
20
35.7283375
30
0
0
VERTEX
8
0
10
25.11263125
20
34.577368750000005
30
0
42
0.39565495824790053
0
VERTEX
8
0
10
25.095200000000002
20
34.02179375
30
0
0
VERTEX
8
0
10
25.095200000000002
20
22.986250000000002
30
0
0
VERTEX
8
0
10
22.644475
20
20.535525
30
0
42
0.19920815130663702
0
VERTEX
8
0
10
22.555200000000003
20
20.319653125000002
30
0
0
VERTEX
8
0
10
22.5652
20
11.549653125
30
0
0
VERTEX
8
0
10
22.568371875
20
11.50615
30
0
0
VERTEX
8
0
10
22.577718750000003
20
11.463543750000001
30
0
0
VERTEX
8
0
10
22.593053125
20
11.422709375
30
0
0
VERTEX
8
0
10
22.61405625
20
11.38448125
30
0
0
VERTEX
8
0
10
22.640303125000003
20
11.34964375
30
0
0
VERTEX
8
0
10
22.671253125
20
11.318909375
30
0
0
VERTEX
8
0
10
22.706275
20
11.29290625
30
0
0
VERTEX
8
0
10
22.744646875
20
11.27216875
30
0
0
VERTEX
8
0
10
22.785587500000002
20
11.257121875000001
30
0
0
VERTEX
8
0
10
22.828256250000003
20
11.248071875
30
0
0
VERTEX
8
0
10
22.87178125
20
11.24520625
30
0
0
SEQEND
0
POLYLINE
66
1
8
1_copper
10
0.0
20
0.0
30
0.0
70
1
0
VERTEX
8
0
10
26.150000000000002
20
47.32
30
0
0
VERTEX
8
0
10
25.751450000000002
20
47.32
30
0
42
0.06549511388785775
0
VERTEX
8
0
10
25.68736875
20
47.40436875
30
0
0
VERTEX
8
0
10
21.877368750000002
20
51.214368750000006
30
0
42
0.9999999999999999
0
VERTEX
8
0
10
21.30263125
20
50.63963125
30
0
0
VERTEX
8
0
10
24.650000000000002
20
47.2922625
30
0
0
VERTEX
8
0
10
24.650000000000002
20
46.02
30
0
0
VERTEX
8
0
10
26.150000000000002
20
46.02
30
0
0
SEQEND
0
POLYLINE
66
1
8
1_copper
10
0.0
20
0.0
30
0.0
70
1
0
VERTEX
8
0
10
34.83220625
20
9.44880625
30
0
42
0.10894743737159904
0
VERTEX
8
0
10
35.002790625
20
9.487234375
30
0
0
VERTEX
8
0
10
35.02558125
20
9.4978
30
0
42
-0.009564581866616214
0
VERTEX
8
0
10
35.0442375
20
9.506321875000001
30
0
0
VERTEX
8
0
10
35.05253125
20
9.486196875000001
30
0
42
0.8660516381004248
0
VERTEX
8
0
10
35.1919875
20
9.543678125000001
30
0
0
VERTEX
8
0
10
35.175109375000005
20
9.6104375
30
0
0
VERTEX
8
0
10
35.808687500000005
20
9.6104375
30
0
0
VERTEX
8
0
10
36.5506
20
8.868525
30
0
42
0.2658731989893196
0
VERTEX
8
0
10
36.66963125
20
8.475631250000001
30
0
0
VERTEX
8
0
10
37.2618
20
7.8834625
30
0
0
VERTEX
8
0
10
37.2618
20
6.745203125000001
30
0
42
0.9572914311583669
0
VERTEX
8
0
10
38.9382
20
6.745203125000001
30
0
0
VERTEX
8
0
10
38.9382
20
8.494796875
30
0
42
0.7354622975157648
0
VERTEX
8
0
10
37.3899625
20
8.904775
30
0
0
VERTEX
8
0
10
37.3634
20
8.9313375
30
0
42
0.2658731989893196
0
VERTEX
8
0
10
37.24436875
20
9.32423125
30
0
0
VERTEX
8
0
10
36.26439375
20
10.30420625
30
0
42
0.198912367379658
0
VERTEX
8
0
10
35.977025000000005
20
10.4232375
30
0
0
VERTEX
8
0
10
34.9937625
20
10.4232375
30
0
42
0.03111929415441734
0
VERTEX
8
0
10
34.943321875
20
10.420093750000001
30
0
0
VERTEX
8
0
10
34.9203125
20
10.415753125
30
0
42
0.13385227267949257
0
VERTEX
8
0
10
34.870846875000005
20
10.403384375
30
0
0
VERTEX
8
0
10
34.846009375
20
10.395428125
30
0
42
0.14104875178976736
0
VERTEX
8
0
10
34.663787500000005
20
10.2616
30
0
0
VERTEX
8
0
10
29.616400000000002
20
10.2616
30
0
0
VERTEX
8
0
10
29.616400000000002
20
32.893
30
0
42
0.10360089459897284
0
VERTEX
8
0
10
29.581609375000003
20
33.055809375
30
0
0
VERTEX
8
0
10
29.581609375000003
20
35.914790625
30
0
42
0.198912367379658
0
VERTEX
8
0
10
29.462578125
20
36.202159375
30
0
0
VERTEX
8
0
10
28.69
20
36.9747375
30
0
0
VERTEX
8
0
10
28.69
20
37.800000000000004
30
0
0
VERTEX
8
0
10
27.19
20
37.800000000000004
30
0
0
VERTEX
8
0
10
27.19
20
37.556400000000004
30
0
0
VERTEX
8
0
10
26.150000000000002
20
37.556400000000004
30
0
0
VERTEX
8
0
10
26.150000000000002
20
37.800000000000004
30
0
0
VERTEX
8
0
10
24.650000000000002
20
37.800000000000004
30
0
0
VERTEX
8
0
10
24.650000000000002
20
37.556400000000004
30
0
0
VERTEX
8
0
10
23.61
20
37.556400000000004
30
0
0
VERTEX
8
0
10
23.61
20
37.800000000000004
30
0
0
VERTEX
8
0
10
22.11
20
37.800000000000004
30
0
0
VERTEX
8
0
10
22.11
20
37.556400000000004
30
0
0
VERTEX
8
0
10
21.07
20
37.556400000000004
30
0
0
VERTEX
8
0
10
21.07
20
37.800000000000004
30
0
0
VERTEX
8
0
10
19.57
20
37.800000000000004
30
0
0
VERTEX
8
0
10
19.57
20
37.556400000000004
30
0
0
VERTEX
8
0
10
18.53
20
37.556400000000004
30
0
0
VERTEX
8
0
10
18.53
20
37.800000000000004
30
0
0
VERTEX
8
0
10
17.03
20
37.800000000000004
30
0
0
VERTEX
8
0
10
17.03
20
37.556400000000004
30
0
0
VERTEX
8
0
10
15.99
20
37.556400000000004
30
0
0
VERTEX
8
0
10
15.99
20
37.800000000000004
30
0
0
VERTEX
8
0
10
14.49
20
37.800000000000004
30
0
0
VERTEX
8
0
10
14.49
20
37.556400000000004
30
0
0
VERTEX
8
0
10
13.450000000000001
20
37.556400000000004
30
0
0
VERTEX
8
0
10
13.450000000000001
20
37.800000000000004
30
0
0
VERTEX
8
0
10
11.950000000000001
20
37.800000000000004
30
0
0
VERTEX
8
0
10
11.950000000000001
20
36.5
30
0
0
VERTEX
8
0
10
13.450000000000001
20
36.5
30
0
0
VERTEX
8
0
10
13.450000000000001
20
36.7436
30
0
0
VERTEX
8
0
10
14.49
20
36.7436
30
0
0
VERTEX
8
0
10
14.49
20
36.5
30
0
0
VERTEX
8
0
10
15.99
20
36.5
30
0
0
VERTEX
8
0
10
15.99
20
36.7436
30
0
0
VERTEX
8
0
10
17.03
20
36.7436
30
0
0
VERTEX
8
0
10
17.03
20
36.5
30
0
0
VERTEX
8
0
10
18.53
20
36.5
30
0
0
VERTEX
8
0
10
18.53
20
36.7436
30
0
0
VERTEX
8
0
10
19.57
20
36.7436
30
0
0
VERTEX
8
0
10
19.57
20
36.5
30
0
0
VERTEX
8
0
10
21.07
20
36.5
30
0
0
VERTEX
8
0
10
21.07
20
36.7436
30
0
0
VERTEX
8
0
10
22.11
20
36.7436
30
0
0
VERTEX
8
0
10
22.11
20
36.5
30
0
0
VERTEX
8
0
10
23.61
20
36.5
30
0
0
VERTEX
8
0
10
23.61
20
36.7436
30
0
0
VERTEX
8
0
10
24.650000000000002
20
36.7436
30
0
0
VERTEX
8
0
10
24.650000000000002
20
36.5
30
0
0
VERTEX
8
0
10
26.150000000000002
20
36.5
30
0
0
VERTEX
8
0
10
26.150000000000002
20
36.7436
30
0
0
VERTEX
8
0
10
27.19
20
36.7436
30
0
0
VERTEX
8
0
10
27.19
20
36.5
30
0
0
VERTEX
8
0
10
28.015262500000002
20
36.5
30
0
0
VERTEX
8
0
10
28.768809375
20
35.746453125
30
0
0
VERTEX
8
0
10
28.768809375
20
33.009621875
30
0
0
VERTEX
8
0
10
28.77193125
20
32.95934375
30
0
0
VERTEX
8
0
10
28.78125
20
32.909840625
30
0
42
0.03812421177489067
0
VERTEX
8
0
10
28.803600000000003
20
32.8468125
30
0
0
VERTEX
8
0
10
28.803600000000003
20
10.2616
30
0
0
VERTEX
8
0
10
27.1809875
20
10.2616
30
0
42
0.198912367379658
0
VERTEX
8
0
10
26.89361875
20
10.14256875
30
0
0
VERTEX
8
0
10
23.507450000000002
20
6.7564
30
0
0
VERTEX
8
0
10
20.84754375
20
6.7564
30
0
0
VERTEX
8
0
10
20.593543750000002
20
7.010400000000001
30
0
0
VERTEX
8
0
10
20.046456250000002
20
7.010400000000001
30
0
0
VERTEX
8
0
10
19.79245625
20
6.7564
30
0
0
VERTEX
8
0
10
18.30754375
20
6.7564
30
0
0
VERTEX
8
0
10
18.05354375
20
7.010400000000001
30
0
0
VERTEX
8
0
10
17.50645625
20
7.010400000000001
30
0
0
VERTEX
8
0
10
17.25245625
20
6.7564
30
0
0
VERTEX
8
0
10
14.424212500000001
20
6.7564
30
0
42
0.198912367379658
0
VERTEX
8
0
10
14.13684375
20
6.63736875
30
0
0
VERTEX
8
0
10
13.036675
20
5.5372
30
0
0
VERTEX
8
0
10
11.919506250000001
20
5.5372
30
0
0
VERTEX
8
0
10
9.5493375
20
7.907368750000001
30
0
42
0.198912367379658
0
VERTEX
8
0
10
9.261968750000001
20
8.0264
30
0
0
VERTEX
8
0
10
9.0583375
20
8.0264
30
0
0
VERTEX
8
0
10
8.720168750000001
20
8.36456875
30
0
42
0.14190440090785927
0
VERTEX
8
0
10
8.52193125
20
8.4729125
30
0
0
VERTEX
8
0
10
7.965221875
20
9.029621875
30
0
42
0.1421367798208045
0
VERTEX
8
0
10
7.85656875
20
9.22816875
30
0
0
VERTEX
8
0
10
7.112
20
9.972737500000001
30
0
0
VERTEX
8
0
10
7.112
20
10.959434375
30
0
42
0.9520795017710562
0
VERTEX
8
0
10
5.588
20
10.959434375
30
0
0
VERTEX
8
0
10
5.588
20
9.360565625000001
30
0
42
0.7145602227898333
0
VERTEX
8
0
10
6.974378125
20
8.960884375000001
30
0
0
VERTEX
8
0
10
7.173178125000001
20
8.762084375
30
0
42
0.1421367798208045
0
VERTEX
8
0
10
7.281831250000001
20
8.5635375
30
0
0
VERTEX
8
0
10
8.0555375
20
7.789831250000001
30
0
42
0.14190440090785927
0
VERTEX
8
0
10
8.253775000000001
20
7.6814875
30
0
0
VERTEX
8
0
10
8.60263125
20
7.33263125
30
0
42
0.198912367379658
0
VERTEX
8
0
10
8.89
20
7.2136000000000005
30
0
0
VERTEX
8
0
10
9.09363125
20
7.2136000000000005
30
0
0
VERTEX
8
0
10
11.4638
20
4.84343125
30
0
42
0.198912367379658
0
VERTEX
8
0
10
11.75116875
20
4.7244
30
0
0
VERTEX
8
0
10
13.2050125
20
4.7244
30
0
42
0.198912367379658
0
VERTEX
8
0
10
13.492381250000001
20
4.84343125
30
0
0
VERTEX
8
0
10
14.592550000000001
20
5.9436
30
0
0
VERTEX
8
0
10
17.25245625
20
5.9436
30
0
0
VERTEX
8
0
10
17.50645625
20
5.6896
30
0
0
VERTEX
8
0
10
18.05354375
20
5.6896
30
0
0
VERTEX
8
0
10
18.30754375
20
5.9436
30
0
0
VERTEX
8
0
10
19.79245625
20
5.9436
30
0
0
VERTEX
8
0
10
20.046456250000002
20
5.6896
30
0
0
VERTEX
8
0
10
20.593543750000002
20
5.6896
30
0
0
VERTEX
8
0
10
20.84754375
20
5.9436
30
0
0
VERTEX
8
0
10
23.675787500000002
20
5.9436
30
0
42
0.198912367379658
0
VERTEX
8
0
10
23.96315625
20
6.06263125
30
0
0
VERTEX
8
0
10
27.349325
20
9.4488
30
0
0
VERTEX
8
0
10
34.832125000000005
20
9.4488
30
0
0
SEQEND
0
POLYLINE
66
1
8
1_copper
10
0.0
20
0.0
30
0.0
70
1
0
VERTEX
8
0
10
3.6195000000000004
20
3.362859375
30
0
0
VERTEX
8
0
10
3.6195000000000004
20
4.257140625
30
0
0
VERTEX
8
0
10
2.9871406250000003
20
4.8895
30
0
0
VERTEX
8
0
10
2.092859375
20
4.8895
30
0
0
VERTEX
8
0
10
1.4605000000000001
20
4.257140625
30
0
0
VERTEX
8
0
10
1.4605000000000001
20
3.362859375
30
0
0
VERTEX
8
0
10
2.092859375
20
2.7305
30
0
0
VERTEX
8
0
10
2.9871406250000003
20
2.7305
30
0
0
SEQEND
0
POLYLINE
66
1
8
16_copper
10
0.0
20
0.0
30
0.0
70
1
0
VERTEX
8
0
10
6.4619437500000005
20
8.643337500000001
30
0
42
0.3578057741447831
0
VERTEX
8
0
10
7.112
20
9.360565625000001
30
0
0
VERTEX
8
0
10
7.112
20
10.959434375
30
0
42
0.9520795017710562
0
VERTEX
8
0
10
5.588
20
10.959434375
30
0
0
VERTEX
8
0
10
5.588
20
9.360565625000001
30
0
0
VERTEX
8
0
10
5.5953375
20
9.28605625
30
0
0
VERTEX
8
0
10
5.60994375
20
9.212625000000001
30
0
0
VERTEX
8
0
10
5.6316781250000005
20
9.140981250000001
30
0
0
VERTEX
8
0
10
5.660328125
20
9.071809375
30
0
0
VERTEX
8
0
10
5.6956218750000005
20
9.00578125
30
0
0
VERTEX
8
0
10
5.73721875
20
8.943531250000001
30
0
0
VERTEX
8
0
10
5.7847156250000005
20
8.88565625
30
0
0
VERTEX
8
0
10
5.83765625
20
8.832715625
30
0
0
VERTEX
8
0
10
5.89553125
20
8.78521875
30
0
0
VERTEX
8
0
10
5.95778125
20
8.743621875
30
0
0
VERTEX
8
0
10
6.023809375
20
8.708328125
30
0
0
VERTEX
8
0
10
6.09298125
20
8.679678125
30
0
0
VERTEX
8
0
10
6.164625
20
8.657943750000001
30
0
0
VERTEX
8
0
10
6.2380562500000005
20
8.643337500000001
30
0
0
VERTEX
8
0
10
6.312565625
20
8.636000000000001
30
0
0
VERTEX
8
0
10
6.387434375000001
20
8.636000000000001
30
0
0
SEQEND
0
POLYLINE
66
1
8
16_copper
10
0.0
20
0.0
30
0.0
70
1
0
VERTEX
8
0
10
38.2095125
20
5.949978125
30
0
42
0.3639697834944294
0
VERTEX
8
0
10
38.9382
20
6.745203125000001
30
0
0
VERTEX
8
0
10
38.9382
20
8.494796875
30
0
42
0.9572914311583669
0
VERTEX
8
0
10
37.2618
20
8.494796875
30
0
0
VERTEX
8
0
10
37.2618
20
6.745203125000001
30
0
0
VERTEX
8
0
10
37.268178125
20
6.6722875
30
0
0
VERTEX
8
0
10
37.280890625000005
20
6.60020625
30
0
0
VERTEX
8
0
10
37.299834375
20
6.529509375
30
0
0
VERTEX
8
0
10
37.324865625
20
6.460728125
30
0
0
VERTEX
8
0
10
37.3558
20
6.39439375
30
0
0
VERTEX
8
0
10
37.392396875
20
6.331006250000001
30
0
0
VERTEX
8
0
10
37.434378125
20
6.271050000000001
30
0
0
VERTEX
8
0
10
37.481425
20
6.21498125
30
0
0
VERTEX
8
0
10
37.53318125
20
6.163225000000001
30
0
0
VERTEX
8
0
10
37.58925
20
6.116178125
30
0
0
VERTEX
8
0
10
37.64920625
20
6.074196875
30
0
0
VERTEX
8
0
10
37.71259375
20
6.0376
30
0
0
VERTEX
8
0
10
37.778928125
20
6.006665625
30
0
0
VERTEX
8
0
10
37.847709375
20
5.9816343750000005
30
0
0
VERTEX
8
0
10
37.918406250000004
20
5.9626906250000005
30
0
0
VERTEX
8
0
10
37.9904875
20
5.949978125
30
0
0
VERTEX
8
0
10
38.063403125
20
5.9436
30
0
0
VERTEX
8
0
10
38.136596875
20
5.9436
30
0
0
SEQEND
0
POLYLINE
66
1
8
16_copper
10
0.0
20
0.0
30
0.0
70
1
0
VERTEX
8
0
10
3.6195000000000004
20
3.362859375
30
0
0
VERTEX
8
0
10
3.6195000000000004
20
4.257140625
30
0
0
VERTEX
8
0
10
2.9871406250000003
20
4.8895
30
0
0
VERTEX
8
0
10
2.9464
20
4.8895
30
0
0
VERTEX
8
0
10
2.9464
20
7.2136000000000005
30
0
0
VERTEX
8
0
10
8.89
20
7.2136000000000005
30
0
42
0.9999999999999999
0
VERTEX
8
0
10
8.89
20
8.0264
30
0
0
VERTEX
8
0
10
2.54
20
8.0264
30
0
42
0.41421356237309503
0
VERTEX
8
0
10
2.1336
20
7.62
30
0
0
VERTEX
8
0
10
2.1336
20
4.8895
30
0
0
VERTEX
8
0
10
2.092859375
20
4.8895
30
0
0
VERTEX
8
0
10
1.4605000000000001
20
4.257140625
30
0
0
VERTEX
8
0
10
1.4605000000000001
20
3.362859375
30
0
0
VERTEX
8
0
10
2.092859375
20
2.7305
30
0
0
VERTEX
8
0
10
2.9871406250000003
20
2.7305
30
0
0
SEQEND
0
POLYLINE
66
1
8
16_copper
10
0.0
20
0.0
30
0.0
70
1
0
VERTEX
8
0
10
20.9804
20
6.076456250000001
30
0
0
VERTEX
8
0
10
20.9804
20
6.6235437500000005
30
0
0
VERTEX
8
0
10
20.593543750000002
20
7.010400000000001
30
0
0
VERTEX
8
0
10
20.046456250000002
20
7.010400000000001
30
0
0
VERTEX
8
0
10
19.6596
20
6.6235437500000005
30
0
0
VERTEX
8
0
10
19.6596
20
6.076456250000001
30
0
0
VERTEX
8
0
10
20.046456250000002
20
5.6896
30
0
0
VERTEX
8
0
10
20.593543750000002
20
5.6896
30
0
0
SEQEND
0
POLYLINE
66
1
8
16_copper
10
0.0
20
0.0
30
0.0
70
1
0
VERTEX
8
0
10
18.4404
20
6.076456250000001
30
0
0
VERTEX
8
0
10
18.4404
20
6.6235437500000005
30
0
0
VERTEX
8
0
10
18.05354375
20
7.010400000000001
30
0
0
VERTEX
8
0
10
17.50645625
20
7.010400000000001
30
0
0
VERTEX
8
0
10
17.119600000000002
20
6.6235437500000005
30
0
0
VERTEX
8
0
10
17.119600000000002
20
6.076456250000001
30
0
0
VERTEX
8
0
10
17.50645625
20
5.6896
30
0
0
VERTEX
8
0
10
18.05354375
20
5.6896
30
0
0
SEQEND
0
CIRCLE
8
drills_NPTH
10
3.81
20
31.75
30
0
40
1.75
0
CIRCLE
8
drills_NPTH
10
36.83
20
31.75
30
0
40
1.75
0
CIRCLE
8
drills_NPTH
10
6.3500000000000005
20
25.146
30
0
40
1.651
0
CIRCLE
8
drills_NPTH
10
35.56
20
25.146
30
0
40
1.651
0
CIRCLE
8
drills_PTH
10
26.02
20
19.05
30
0
40
0.9
0
CIRCLE
8
drills_PTH
10
14.620000000000001
20
19.05
30
0
40
0.9
0
CIRCLE
8
drills_PTH
10
20.32
20
41.910000000000004
30
0
40
0.6604
0
CIRCLE
8
drills_PTH
10
13.97
20
53.34
30
0
40
0.6604
0
CIRCLE
8
drills_PTH
10
12.700000000000001
20
41.910000000000004
30
0
40
0.6604
0
CIRCLE
8
drills_PTH
10
6.3500000000000005
20
3.81
30
0
40
0.6604
0
CIRCLE
8
drills_PTH
10
2.54
20
3.81
30
0
40
0.6604
0
CIRCLE
8
drills_PTH
10
21.59
20
3.81
30
0
40
0.6604
0
CIRCLE
8
drills_PTH
10
39.370000000000005
20
3.81
30
0
40
0.6604
0
CIRCLE
8
drills_PTH
10
10.16
20
53.34
30
0
40
0.6604
0
CIRCLE
8
drills_PTH
10
17.78
20
41.910000000000004
30
0
40
0.6604
0
CIRCLE
8
drills_PTH
10
6.3500000000000005
20
53.34
30
0
40
0.6604
0
CIRCLE
8
drills_PTH
10
35.56
20
3.81
30
0
40
0.5588000000000001
0
CIRCLE
8
drills_PTH
10
25.400000000000002
20
3.81
30
0
40
0.5588000000000001
0
CIRCLE
8
drills_PTH
10
33.02
20
7.62
30
0
40
0.5588000000000001
0
CIRCLE
8
drills_PTH
10
35.56
20
7.62
30
0
40
0.5588000000000001
0
CIRCLE
8
drills_PTH
10
38.1
20
7.62
30
0
40
0.5588000000000001
0
CIRCLE
8
drills_PTH
10
21.59
20
50.927
30
0
40
0.508
0
CIRCLE
8
drills_PTH
10
24.130000000000003
20
50.673
30
0
40
0.508
0
CIRCLE
8
drills_PTH
10
26.67
20
50.927
30
0
40
0.508
0
CIRCLE
8
drills_PTH
10
29.21
20
32.893
30
0
40
0.508
0
CIRCLE
8
drills_PTH
10
19.05
20
32.893
30
0
40
0.508
0
CIRCLE
8
drills_PTH
10
21.59
20
33.147
30
0
40
0.508
0
CIRCLE
8
drills_PTH
10
24.130000000000003
20
32.893
30
0
40
0.508
0
CIRCLE
8
drills_PTH
10
26.67
20
33.147
30
0
40
0.508
0
CIRCLE
8
drills_PTH
10
29.21
20
50.673
30
0
40
0.508
0
CIRCLE
8
drills_PTH
10
3.81
20
10.16
30
0
40
0.508
0
CIRCLE
8
drills_PTH
10
11.43
20
50.927
30
0
40
0.508
0
CIRCLE
8
drills_PTH
10
8.89
20
10.16
30
0
40
0.508
0
CIRCLE
8
drills_PTH
10
11.43
20
33.147
30
0
40
0.508
0
CIRCLE
8
drills_PTH
10
13.97
20
32.893
30
0
40
0.508
0
CIRCLE
8
drills_PTH
10
16.51
20
33.147
30
0
40
0.508
0
CIRCLE
8
drills_PTH
10
19.05
20
50.673
30
0
40
0.508
0
CIRCLE
8
drills_PTH
10
16.51
20
50.927
30
0
40
0.508
0
CIRCLE
8
drills_PTH
10
13.97
20
50.673
30
0
40
0.508
0
CIRCLE
8
drills_PTH
10
6.3500000000000005
20
10.16
30
0
40
0.508
0
CIRCLE
8
drills_PTH
10
20.32
20
11.55
30
0
40
0.5
0
CIRCLE
8
drills_PTH
10
17.82
20
11.55
30
0
40
0.5
0
CIRCLE
8
drills_PTH
10
22.87
20
11.55
30
0
40
0.5
0
CIRCLE
8
drills_PTH
10
17.82
20
26.05
30
0
40
0.5
0
CIRCLE
8
drills_PTH
10
22.82
20
26.05
30
0
40
0.5
0
CIRCLE
8
drills_PTH
10
25.400000000000002
20
6.3500000000000005
30
0
40
0.40640000000000004
0
CIRCLE
8
drills_PTH
10
17.78
20
6.3500000000000005
30
0
40
0.40640000000000004
0
CIRCLE
8
drills_PTH
10
12.700000000000001
20
6.3500000000000005
30
0
40
0.40640000000000004
0
CIRCLE
8
drills_PTH
10
20.32
20
6.3500000000000005
30
0
40
0.40640000000000004
0
CIRCLE
8
drills_via_1_16
10
19.05
20
48.260000000000005
30
0
40
0.17500000000000002
0
CIRCLE
8
drills_via_1_16
10
12.700000000000001
20
48.260000000000005
30
0
40
0.17500000000000002
0
CIRCLE
8
drills_via_1_16
10
16.51
20
35.56
30
0
40
0.17500000000000002
0
CIRCLE
8
drills_via_1_16
10
10.16
20
48.260000000000005
30
0
40
0.17500000000000002
0
CIRCLE
8
drills_via_1_16
10
17.78
20
49.53
30
0
40
0.17500000000000002
0
CIRCLE
8
drills_via_1_16
10
22.86
20
41.910000000000004
30
0
40
0.17500000000000002
0
CIRCLE
8
drills_via_1_16
10
27.94
20
41.910000000000004
30
0
40
0.17500000000000002
0
CIRCLE
8
drills_via_1_16
10
15.24
20
41.910000000000004
30
0
40
0.17500000000000002
0
CIRCLE
8
drills_via_1_16
10
25.400000000000002
20
41.910000000000004
30
0
40
0.17500000000000002
0
CIRCLE
8
drills_via_1_16
10
8.89
20
7.62
30
0
40
0.17500000000000002
0
ENDSEC
0
EOF