G04 EAGLE Gerber RS-274X export*
G75*
%MOMM*%
%FSLAX34Y34*%
%LPD*%
%INTop Copper*%
%IPPOS*%
%AMOC8*
5,1,8,0,0,1.08239X$1,22.5*%
G01*
%ADD10P,1.429621X8X202.500000*%
%ADD11P,1.429621X8X22.500000*%
%ADD12C,1.676400*%
%ADD13C,1.508000*%
%ADD14R,2.700000X2.700000*%
%ADD15R,1.500000X1.300000*%
%ADD16P,2.336880X8X22.500000*%
%ADD17C,1.524000*%
%ADD18C,1.524000*%
%ADD19P,2.336880X8X202.500000*%
%ADD20C,1.676400*%
%ADD21P,2.336880X8X112.500000*%
%ADD22R,1.300000X1.500000*%
%ADD23C,0.812800*%
%ADD24C,0.756400*%
%ADD25C,0.152400*%


D10*
X254000Y63500D03*
X203200Y63500D03*
D11*
X127000Y63500D03*
X177800Y63500D03*
D12*
X355600Y38100D03*
X254000Y38100D03*
D13*
X203200Y115500D03*
X178200Y115500D03*
X228700Y115500D03*
X178200Y260500D03*
X228200Y260500D03*
D14*
X146200Y190500D03*
X260200Y190500D03*
D15*
X279400Y371500D03*
X279400Y390500D03*
D16*
X139700Y533400D03*
X127000Y419100D03*
D15*
X127000Y371500D03*
X127000Y390500D03*
D17*
X38100Y109220D02*
X38100Y93980D01*
X63500Y93980D02*
X63500Y109220D01*
X88900Y109220D02*
X88900Y93980D01*
D18*
X114300Y331470D03*
X139700Y328930D03*
X165100Y331470D03*
X190500Y328930D03*
X215900Y331470D03*
X241300Y328930D03*
X266700Y331470D03*
X292100Y328930D03*
X292100Y506730D03*
X266700Y509270D03*
X241300Y506730D03*
X215900Y509270D03*
X190500Y506730D03*
X165100Y509270D03*
X139700Y506730D03*
X114300Y509270D03*
D15*
X152400Y447700D03*
X152400Y466700D03*
D19*
X215900Y38100D03*
X393700Y38100D03*
D20*
X330200Y67818D02*
X330200Y84582D01*
X355600Y84582D02*
X355600Y67818D01*
X381000Y67818D02*
X381000Y84582D01*
D15*
X203200Y466700D03*
X203200Y447700D03*
X127000Y466700D03*
X127000Y447700D03*
X177800Y466700D03*
X177800Y447700D03*
X279400Y447700D03*
X279400Y466700D03*
D16*
X101600Y533400D03*
X177800Y419100D03*
D15*
X177800Y371500D03*
X177800Y390500D03*
D16*
X63500Y533400D03*
X203200Y419100D03*
D15*
X203200Y371500D03*
X203200Y390500D03*
D21*
X63500Y38100D03*
D16*
X25400Y38100D03*
D22*
X181000Y533400D03*
X200000Y533400D03*
D23*
X88900Y101600D02*
X127000Y63500D01*
X130592Y63500D01*
X140244Y73152D01*
X160852Y73152D01*
X228600Y241300D02*
X228200Y260500D01*
X101600Y533400D02*
X63500Y533400D01*
X101600Y533400D02*
X139700Y533400D01*
X139700Y506730D01*
X139700Y495300D01*
X88900Y495300D01*
X88900Y304800D01*
X228600Y304800D01*
X228200Y304400D01*
X228200Y260500D01*
X200000Y533400D02*
X342900Y533400D01*
X342900Y342900D01*
X317500Y317500D01*
D24*
X317500Y317500D03*
X266700Y304800D03*
D23*
X228600Y304800D01*
X160852Y135452D02*
X160852Y73152D01*
X177800Y190500D02*
X228600Y241300D01*
X177800Y190500D02*
X177800Y152400D01*
X160852Y135452D01*
X114300Y38100D02*
X63500Y38100D01*
X114300Y38100D02*
X127000Y25400D01*
X190500Y25400D01*
X203200Y38100D01*
X215900Y38100D01*
X63500Y38100D02*
X38100Y63500D01*
X38100Y101600D01*
X215900Y38100D02*
X254000Y38100D01*
X254000Y63500D01*
X355600Y76200D02*
X355600Y38100D01*
X393700Y38100D01*
D25*
X152400Y466700D02*
X153277Y469638D01*
D23*
X165100Y481462D02*
X165100Y509270D01*
X165100Y481462D02*
X153277Y469638D01*
X165100Y509270D02*
X165100Y517500D01*
X181000Y533400D01*
D25*
X277802Y468379D02*
X279400Y466700D01*
D23*
X277802Y470228D02*
X241300Y506730D01*
X277802Y470228D02*
X277802Y468379D01*
D24*
X190500Y482600D03*
D23*
X203200Y466700D01*
D25*
X127000Y466700D02*
X127000Y482600D01*
D24*
X127000Y482600D03*
X165100Y355600D03*
D25*
X241300Y355600D01*
X241300Y328930D01*
D23*
X241300Y355600D01*
X165100Y355600D01*
X127000Y466700D02*
X127000Y482600D01*
D24*
X101600Y482600D03*
D25*
X101600Y355600D01*
D23*
X177800Y466700D02*
X177800Y495300D01*
D24*
X177800Y495300D03*
D23*
X101600Y482600D02*
X101600Y355600D01*
X139700Y355600D01*
X152400Y342900D01*
X157851Y342900D01*
X159629Y344678D01*
X170571Y344678D01*
X172349Y342900D01*
X203200Y342900D01*
X214630Y331470D01*
X215900Y331470D01*
D25*
X177800Y390500D02*
X177800Y393700D01*
X177800Y444500D02*
X177800Y447700D01*
D23*
X177800Y444500D02*
X177800Y419100D01*
X177800Y393700D01*
D25*
X127000Y393700D02*
X127000Y390500D01*
D23*
X127000Y419100D02*
X127000Y447700D01*
X127000Y419100D02*
X127000Y393700D01*
D25*
X203200Y444500D02*
X203200Y447700D01*
D23*
X203200Y419100D02*
X203200Y390500D01*
X203200Y419100D02*
X203200Y444500D01*
D24*
X228600Y419100D03*
D23*
X228600Y468630D02*
X190500Y506730D01*
X228600Y468630D02*
X228600Y419100D01*
X279400Y419100D02*
X279400Y390500D01*
X279400Y419100D02*
X279400Y447700D01*
D24*
X279400Y419100D03*
D23*
X152400Y419100D02*
X152400Y447700D01*
D24*
X152400Y419100D03*
X254000Y419100D03*
D23*
X254000Y471170D02*
X215900Y509270D01*
X254000Y471170D02*
X254000Y419100D01*
D25*
X379069Y76200D02*
X381000Y76200D01*
X351181Y95250D02*
X349938Y100168D01*
X349175Y103186D01*
X292100Y328930D02*
X291752Y330096D01*
D24*
X88900Y76200D03*
D23*
X369570Y87630D02*
X381000Y76200D01*
X369570Y87630D02*
X369570Y90369D01*
X359770Y100168D01*
X349938Y100168D01*
X348321Y98552D01*
X236758Y63500D02*
X203200Y63500D01*
X292100Y98552D02*
X348321Y98552D01*
X292100Y98552D02*
X271810Y98552D01*
X236758Y63500D01*
X75692Y89408D02*
X63500Y101600D01*
X75692Y89408D02*
X75692Y88509D01*
X83429Y80772D01*
X84328Y80772D01*
X88900Y76200D01*
X177800Y63500D02*
X203200Y63500D01*
X92620Y76200D02*
X88900Y76200D01*
X144242Y63500D02*
X177800Y63500D01*
X144242Y63500D02*
X132050Y51308D01*
X117512Y51308D01*
X92620Y76200D01*
X292100Y98552D02*
X292100Y328930D01*
X203200Y371500D02*
X177800Y371500D01*
X279400Y371500D02*
X291752Y359148D01*
X291752Y330096D01*
X177800Y371500D02*
X127000Y371500D01*
X203200Y115500D02*
X203200Y63500D01*
X203200Y371500D02*
X279400Y371500D01*
M02*
