G04 EAGLE Gerber RS-274X export*
G75*
%MOMM*%
%FSLAX34Y34*%
%LPD*%
%INBottom Copper*%
%IPPOS*%
%AMOC8*
5,1,8,0,0,1.08239X$1,22.5*%
G01*
%ADD10P,1.429621X8X202.500000*%
%ADD11P,1.429621X8X22.500000*%
%ADD12C,1.676400*%
%ADD13C,1.508000*%
%ADD14R,2.700000X2.700000*%
%ADD15P,2.336880X8X22.500000*%
%ADD16C,1.524000*%
%ADD17C,1.524000*%
%ADD18P,2.336880X8X202.500000*%
%ADD19C,1.676400*%
%ADD20P,2.336880X8X112.500000*%
%ADD21C,0.756400*%
%ADD22C,0.812800*%
%ADD23C,0.609600*%
%ADD24C,0.152400*%
%ADD25C,0.508000*%


D10*
X254000Y63500D03*
X203200Y63500D03*
D11*
X127000Y63500D03*
X177800Y63500D03*
D12*
X355600Y38100D03*
X254000Y38100D03*
D13*
X203200Y115500D03*
X178200Y115500D03*
X228700Y115500D03*
X178200Y260500D03*
X228200Y260500D03*
D14*
X146200Y190500D03*
X260200Y190500D03*
D15*
X139700Y533400D03*
X127000Y419100D03*
D16*
X38100Y109220D02*
X38100Y93980D01*
X63500Y93980D02*
X63500Y109220D01*
X88900Y109220D02*
X88900Y93980D01*
D17*
X114300Y331470D03*
X139700Y328930D03*
X165100Y331470D03*
X190500Y328930D03*
X215900Y331470D03*
X241300Y328930D03*
X266700Y331470D03*
X292100Y328930D03*
X292100Y506730D03*
X266700Y509270D03*
X241300Y506730D03*
X215900Y509270D03*
X190500Y506730D03*
X165100Y509270D03*
X139700Y506730D03*
X114300Y509270D03*
D18*
X215900Y38100D03*
X393700Y38100D03*
D19*
X330200Y67818D02*
X330200Y84582D01*
X355600Y84582D02*
X355600Y67818D01*
X381000Y67818D02*
X381000Y84582D01*
D15*
X101600Y533400D03*
X177800Y419100D03*
X63500Y533400D03*
X203200Y419100D03*
D20*
X63500Y38100D03*
D15*
X25400Y38100D03*
D21*
X317500Y317500D03*
D22*
X304800Y304800D01*
X266700Y304800D01*
D21*
X266700Y304800D03*
D22*
X266700Y331470D02*
X267970Y331470D01*
X292100Y355600D01*
X292100Y482600D01*
X190500Y482600D01*
D21*
X190500Y482600D03*
X127000Y482600D03*
X165100Y355600D03*
D23*
X165100Y431800D02*
X127000Y482600D01*
X165100Y431800D02*
X165100Y428132D01*
X162433Y425465D01*
X162433Y412735D01*
X165100Y410068D01*
X165100Y355600D01*
D21*
X101600Y482600D03*
D24*
X101600Y495300D01*
D21*
X177800Y495300D03*
D22*
X101600Y495300D02*
X101600Y482600D01*
X145171Y493522D02*
X146949Y495300D01*
X145171Y493522D02*
X134229Y493522D01*
X132451Y495300D01*
X101600Y495300D01*
X146949Y495300D02*
X177800Y495300D01*
D21*
X228600Y419100D03*
D25*
X228600Y304800D01*
X203200Y279400D01*
X203200Y241300D01*
X178200Y215500D02*
X178200Y115500D01*
X178200Y215500D02*
X177800Y215900D01*
X203200Y241300D01*
D24*
X202946Y304546D02*
X202946Y304800D01*
X178069Y266706D02*
X178200Y260500D01*
D21*
X279400Y419100D03*
D25*
X266700Y431800D01*
X215900Y431800D01*
X215900Y427414D01*
X218059Y425255D01*
X218059Y351949D01*
X202946Y336836D01*
X202946Y304800D01*
X202946Y304546D02*
X177800Y279400D01*
X178069Y266706D01*
D21*
X152400Y419100D03*
D25*
X139700Y406400D01*
X139700Y342900D01*
X141986Y340614D01*
X144540Y340614D01*
X152400Y332754D01*
X152400Y241300D01*
X165100Y228600D01*
X165100Y114300D01*
X166596Y112804D01*
X166596Y110693D01*
X188389Y88900D01*
X317500Y88900D01*
X330200Y76200D01*
D21*
X254000Y419100D03*
D22*
X266700Y406400D01*
X266700Y355600D01*
X254000Y342900D01*
D23*
X228600Y203200D02*
X228700Y115500D01*
X228600Y203200D02*
X254000Y228600D01*
X254000Y342900D01*
D21*
X88900Y76200D03*
D22*
X25400Y76200D01*
X25400Y38100D01*
M02*
