G04 EAGLE Gerber RS-274X export*
G75*
%MOMM*%
%FSLAX34Y34*%
%LPD*%
%IN*%
%IPPOS*%
%AMOC8*
5,1,8,0,0,1.08239X$1,22.5*%
G01*
%ADD10C,0.254000*%


D10*
X0Y0D02*
X415800Y0D01*
X415800Y571400D01*
X0Y571400D01*
X0Y0D01*
X137200Y177500D02*
X155200Y177500D01*
X155200Y203500D01*
X137200Y203500D01*
X137200Y177500D01*
X251200Y177500D02*
X269200Y177500D01*
X269200Y203500D01*
X251200Y203500D01*
X251200Y177500D01*
X55600Y316927D02*
X55525Y315784D01*
X55376Y314648D01*
X55152Y313524D01*
X54855Y312417D01*
X54487Y311332D01*
X54049Y310274D01*
X53542Y309246D01*
X52969Y308254D01*
X52332Y307301D01*
X51635Y306392D01*
X50879Y305531D01*
X50069Y304721D01*
X49208Y303965D01*
X48299Y303268D01*
X47346Y302631D01*
X46354Y302058D01*
X45326Y301551D01*
X44268Y301113D01*
X43183Y300745D01*
X42076Y300448D01*
X40952Y300225D01*
X39816Y300075D01*
X38673Y300000D01*
X37527Y300000D01*
X36384Y300075D01*
X35248Y300225D01*
X34124Y300448D01*
X33017Y300745D01*
X31932Y301113D01*
X30874Y301551D01*
X29846Y302058D01*
X28854Y302631D01*
X27901Y303268D01*
X26992Y303965D01*
X26131Y304721D01*
X25321Y305531D01*
X24565Y306392D01*
X23868Y307301D01*
X23231Y308254D01*
X22658Y309246D01*
X22151Y310274D01*
X21713Y311332D01*
X21345Y312417D01*
X21048Y313524D01*
X20825Y314648D01*
X20675Y315784D01*
X20600Y316927D01*
X20600Y318073D01*
X20675Y319216D01*
X20825Y320352D01*
X21048Y321476D01*
X21345Y322583D01*
X21713Y323668D01*
X22151Y324726D01*
X22658Y325754D01*
X23231Y326746D01*
X23868Y327699D01*
X24565Y328608D01*
X25321Y329469D01*
X26131Y330279D01*
X26992Y331035D01*
X27901Y331732D01*
X28854Y332369D01*
X29846Y332942D01*
X30874Y333449D01*
X31932Y333887D01*
X33017Y334255D01*
X34124Y334552D01*
X35248Y334776D01*
X36384Y334925D01*
X37527Y335000D01*
X38673Y335000D01*
X39816Y334925D01*
X40952Y334776D01*
X42076Y334552D01*
X43183Y334255D01*
X44268Y333887D01*
X45326Y333449D01*
X46354Y332942D01*
X47346Y332369D01*
X48299Y331732D01*
X49208Y331035D01*
X50069Y330279D01*
X50879Y329469D01*
X51635Y328608D01*
X52332Y327699D01*
X52969Y326746D01*
X53542Y325754D01*
X54049Y324726D01*
X54487Y323668D01*
X54855Y322583D01*
X55152Y321476D01*
X55376Y320352D01*
X55525Y319216D01*
X55600Y318073D01*
X55600Y316927D01*
X385800Y316927D02*
X385725Y315784D01*
X385576Y314648D01*
X385352Y313524D01*
X385055Y312417D01*
X384687Y311332D01*
X384249Y310274D01*
X383742Y309246D01*
X383169Y308254D01*
X382532Y307301D01*
X381835Y306392D01*
X381079Y305531D01*
X380269Y304721D01*
X379408Y303965D01*
X378499Y303268D01*
X377546Y302631D01*
X376554Y302058D01*
X375526Y301551D01*
X374468Y301113D01*
X373383Y300745D01*
X372276Y300448D01*
X371152Y300225D01*
X370016Y300075D01*
X368873Y300000D01*
X367727Y300000D01*
X366584Y300075D01*
X365448Y300225D01*
X364324Y300448D01*
X363217Y300745D01*
X362132Y301113D01*
X361074Y301551D01*
X360046Y302058D01*
X359054Y302631D01*
X358101Y303268D01*
X357192Y303965D01*
X356331Y304721D01*
X355521Y305531D01*
X354765Y306392D01*
X354068Y307301D01*
X353431Y308254D01*
X352858Y309246D01*
X352351Y310274D01*
X351913Y311332D01*
X351545Y312417D01*
X351248Y313524D01*
X351025Y314648D01*
X350875Y315784D01*
X350800Y316927D01*
X350800Y318073D01*
X350875Y319216D01*
X351025Y320352D01*
X351248Y321476D01*
X351545Y322583D01*
X351913Y323668D01*
X352351Y324726D01*
X352858Y325754D01*
X353431Y326746D01*
X354068Y327699D01*
X354765Y328608D01*
X355521Y329469D01*
X356331Y330279D01*
X357192Y331035D01*
X358101Y331732D01*
X359054Y332369D01*
X360046Y332942D01*
X361074Y333449D01*
X362132Y333887D01*
X363217Y334255D01*
X364324Y334552D01*
X365448Y334776D01*
X366584Y334925D01*
X367727Y335000D01*
X368873Y335000D01*
X370016Y334925D01*
X371152Y334776D01*
X372276Y334552D01*
X373383Y334255D01*
X374468Y333887D01*
X375526Y333449D01*
X376554Y332942D01*
X377546Y332369D01*
X378499Y331732D01*
X379408Y331035D01*
X380269Y330279D01*
X381079Y329469D01*
X381835Y328608D01*
X382532Y327699D01*
X383169Y326746D01*
X383742Y325754D01*
X384249Y324726D01*
X384687Y323668D01*
X385055Y322583D01*
X385352Y321476D01*
X385576Y320352D01*
X385725Y319216D01*
X385800Y318073D01*
X385800Y316927D01*
X80010Y250920D02*
X79939Y249841D01*
X79798Y248769D01*
X79587Y247709D01*
X79308Y246665D01*
X78960Y245641D01*
X78546Y244643D01*
X78068Y243673D01*
X77528Y242737D01*
X76927Y241838D01*
X76269Y240981D01*
X75557Y240168D01*
X74792Y239404D01*
X73979Y238691D01*
X73122Y238033D01*
X72223Y237432D01*
X71287Y236892D01*
X70317Y236414D01*
X69319Y236000D01*
X68295Y235652D01*
X67251Y235373D01*
X66191Y235162D01*
X65119Y235021D01*
X64040Y234950D01*
X62960Y234950D01*
X61881Y235021D01*
X60809Y235162D01*
X59749Y235373D01*
X58705Y235652D01*
X57681Y236000D01*
X56683Y236414D01*
X55713Y236892D01*
X54777Y237432D01*
X53878Y238033D01*
X53021Y238691D01*
X52208Y239404D01*
X51444Y240168D01*
X50731Y240981D01*
X50073Y241838D01*
X49472Y242737D01*
X48932Y243673D01*
X48454Y244643D01*
X48040Y245641D01*
X47692Y246665D01*
X47413Y247709D01*
X47202Y248769D01*
X47061Y249841D01*
X46990Y250920D01*
X46990Y252000D01*
X47061Y253079D01*
X47202Y254151D01*
X47413Y255211D01*
X47692Y256255D01*
X48040Y257279D01*
X48454Y258277D01*
X48932Y259247D01*
X49472Y260183D01*
X50073Y261082D01*
X50731Y261939D01*
X51444Y262752D01*
X52208Y263517D01*
X53021Y264229D01*
X53878Y264887D01*
X54777Y265488D01*
X55713Y266028D01*
X56683Y266506D01*
X57681Y266920D01*
X58705Y267268D01*
X59749Y267547D01*
X60809Y267758D01*
X61881Y267899D01*
X62960Y267970D01*
X64040Y267970D01*
X65119Y267899D01*
X66191Y267758D01*
X67251Y267547D01*
X68295Y267268D01*
X69319Y266920D01*
X70317Y266506D01*
X71287Y266028D01*
X72223Y265488D01*
X73122Y264887D01*
X73979Y264229D01*
X74792Y263517D01*
X75557Y262752D01*
X76269Y261939D01*
X76927Y261082D01*
X77528Y260183D01*
X78068Y259247D01*
X78546Y258277D01*
X78960Y257279D01*
X79308Y256255D01*
X79587Y255211D01*
X79798Y254151D01*
X79939Y253079D01*
X80010Y252000D01*
X80010Y250920D01*
X372110Y250920D02*
X372039Y249841D01*
X371898Y248769D01*
X371687Y247709D01*
X371408Y246665D01*
X371060Y245641D01*
X370646Y244643D01*
X370168Y243673D01*
X369628Y242737D01*
X369027Y241838D01*
X368369Y240981D01*
X367657Y240168D01*
X366892Y239404D01*
X366079Y238691D01*
X365222Y238033D01*
X364323Y237432D01*
X363387Y236892D01*
X362417Y236414D01*
X361419Y236000D01*
X360395Y235652D01*
X359351Y235373D01*
X358291Y235162D01*
X357219Y235021D01*
X356140Y234950D01*
X355060Y234950D01*
X353981Y235021D01*
X352909Y235162D01*
X351849Y235373D01*
X350805Y235652D01*
X349781Y236000D01*
X348783Y236414D01*
X347813Y236892D01*
X346877Y237432D01*
X345978Y238033D01*
X345121Y238691D01*
X344308Y239404D01*
X343544Y240168D01*
X342831Y240981D01*
X342173Y241838D01*
X341572Y242737D01*
X341032Y243673D01*
X340554Y244643D01*
X340140Y245641D01*
X339792Y246665D01*
X339513Y247709D01*
X339302Y248769D01*
X339161Y249841D01*
X339090Y250920D01*
X339090Y252000D01*
X339161Y253079D01*
X339302Y254151D01*
X339513Y255211D01*
X339792Y256255D01*
X340140Y257279D01*
X340554Y258277D01*
X341032Y259247D01*
X341572Y260183D01*
X342173Y261082D01*
X342831Y261939D01*
X343544Y262752D01*
X344308Y263517D01*
X345121Y264229D01*
X345978Y264887D01*
X346877Y265488D01*
X347813Y266028D01*
X348783Y266506D01*
X349781Y266920D01*
X350805Y267268D01*
X351849Y267547D01*
X352909Y267758D01*
X353981Y267899D01*
X355060Y267970D01*
X356140Y267970D01*
X357219Y267899D01*
X358291Y267758D01*
X359351Y267547D01*
X360395Y267268D01*
X361419Y266920D01*
X362417Y266506D01*
X363387Y266028D01*
X364323Y265488D01*
X365222Y264887D01*
X366079Y264229D01*
X366892Y263517D01*
X367657Y262752D01*
X368369Y261939D01*
X369027Y261082D01*
X369628Y260183D01*
X370168Y259247D01*
X370646Y258277D01*
X371060Y257279D01*
X371408Y256255D01*
X371687Y255211D01*
X371898Y254151D01*
X372039Y253079D01*
X372110Y252000D01*
X372110Y250920D01*
M02*
