G04 EAGLE Gerber RS-274X export*
G75*
%MOMM*%
%FSLAX34Y34*%
%LPD*%
%INSoldermask Bottom*%
%IPPOS*%
%AMOC8*
5,1,8,0,0,1.08239X$1,22.5*%
G01*
%ADD10C,3.703200*%
%ADD11P,1.649562X8X202.500000*%
%ADD12P,1.649562X8X22.500000*%
%ADD13C,1.879600*%
%ADD14C,1.711200*%
%ADD15R,2.903200X2.903200*%
%ADD16P,2.556822X8X22.500000*%
%ADD17C,1.727200*%
%ADD18C,3.505200*%
%ADD19C,1.727200*%
%ADD20P,2.556822X8X202.500000*%
%ADD21C,1.879600*%
%ADD22P,2.556822X8X112.500000*%
%ADD23C,0.959600*%


D10*
X38100Y317500D03*
X368300Y317500D03*
D11*
X254000Y63500D03*
X203200Y63500D03*
D12*
X127000Y63500D03*
X177800Y63500D03*
D13*
X355600Y38100D03*
X254000Y38100D03*
D14*
X203200Y115500D03*
X178200Y115500D03*
X228700Y115500D03*
X178200Y260500D03*
X228200Y260500D03*
D15*
X146200Y190500D03*
X260200Y190500D03*
D16*
X139700Y533400D03*
X127000Y419100D03*
D17*
X38100Y109220D02*
X38100Y93980D01*
X63500Y93980D02*
X63500Y109220D01*
X88900Y109220D02*
X88900Y93980D01*
D18*
X63500Y251460D03*
D19*
X114300Y331470D03*
X139700Y328930D03*
X165100Y331470D03*
X190500Y328930D03*
X215900Y331470D03*
X241300Y328930D03*
X266700Y331470D03*
X292100Y328930D03*
X292100Y506730D03*
X266700Y509270D03*
X241300Y506730D03*
X215900Y509270D03*
X190500Y506730D03*
X165100Y509270D03*
X139700Y506730D03*
X114300Y509270D03*
D20*
X215900Y38100D03*
X393700Y38100D03*
D21*
X330200Y67818D02*
X330200Y84582D01*
X355600Y84582D02*
X355600Y67818D01*
X381000Y67818D02*
X381000Y84582D01*
D18*
X355600Y251460D03*
D16*
X101600Y533400D03*
X177800Y419100D03*
X63500Y533400D03*
X203200Y419100D03*
D22*
X63500Y38100D03*
D16*
X25400Y38100D03*
D23*
X317500Y317500D03*
X266700Y304800D03*
X190500Y482600D03*
X127000Y482600D03*
X165100Y355600D03*
X101600Y482600D03*
X177800Y495300D03*
X228600Y419100D03*
X279400Y419100D03*
X152400Y419100D03*
X254000Y419100D03*
X88900Y76200D03*
M02*
