M48
;GenerationSoftware,Autodesk,EAGLE,9.2.2*%
;CreationDate,2020-07-12T09:44:13Z*%
FMAT,2
ICI,OFF
METRIC,TZ,000.000
T9C0.350
T8C0.813
T7C1.000
T6C1.016
T5C1.118
T4C1.321
T3C1.800
T2C3.302
T1C3.500
%
G90
M71
T1
X3810Y31750
X36830Y31750
T2
X6350Y25146
X35560Y25146
T3
X14620Y19050
X26020Y19050
T4
X12700Y41910
X39370Y3810
X21590Y3810
X2540Y3810
X13970Y53340
X6350Y3810
X20320Y41910
X6350Y53340
X17780Y41910
X10160Y53340
T5
X25400Y3810
X33020Y7620
X35560Y7620
X38100Y7620
X35560Y3810
T6
X29210Y32893
X29210Y50673
X26670Y50927
X24130Y50673
X21590Y50927
X16510Y50927
X13970Y50673
X11430Y50927
X19050Y50673
X19050Y32893
X3810Y10160
X6350Y10160
X8890Y10160
X11430Y33147
X13970Y32893
X16510Y33147
X21590Y33147
X24130Y32893
X26670Y33147
T7
X17820Y11550
X17820Y26050
X22870Y11550
X20320Y11550
X22820Y26050
T8
X17780Y6350
X12700Y6350
X20320Y6350
X25400Y6350
T9
X26670Y30480
X19050Y48260
X12700Y48260
X16510Y35560
X10160Y48260
X17780Y49530
X27940Y41910
X15240Y41910
X25400Y41910
X31750Y31750
X22860Y41910
X8890Y7620
M30